<svg width="17" height="17" viewBox="0 0 17 17" fill="none" xmlns="http://www.w3.org/2000/svg">
<path d="M6.02084 13.4582H5.66667C2.83334 13.4582 1.41667 12.7498 1.41667 9.20817V5.6665C1.41667 2.83317 2.83334 1.4165 5.66667 1.4165H11.3333C14.1667 1.4165 15.5833 2.83317 15.5833 5.6665V9.20817C15.5833 12.0415 14.1667 13.4582 11.3333 13.4582H10.9792C10.7596 13.4582 10.5471 13.5644 10.4125 13.7415L9.35 15.1582C8.8825 15.7815 8.11751 15.7815 7.65001 15.1582L6.58751 13.7415C6.47417 13.5857 6.21209 13.4582 6.02084 13.4582Z" stroke="#088395" stroke-width="1.5" stroke-miterlimit="10" stroke-linecap="round" stroke-linejoin="round"/>
<path d="M4.95833 5.6665H12.0417" stroke="#088395" stroke-width="1.5" stroke-linecap="round" stroke-linejoin="round"/>
<path d="M4.95833 9.2085H9.20833" stroke="#088395" stroke-width="1.5" stroke-linecap="round" stroke-linejoin="round"/>
</svg>
