<svg width="15" height="18" viewBox="0 0 15 18" fill="none" xmlns="http://www.w3.org/2000/svg">
<path d="M14.4231 10.8747L12.9298 9.28169V7.17134C12.9281 5.71295 12.4195 4.30703 11.5025 3.22546C10.5855 2.14388 9.32509 1.46347 7.96508 1.31579V0.109375H6.86181V1.31579C5.50179 1.46347 4.24141 2.14388 3.32438 3.22546C2.40734 4.30703 1.8988 5.71295 1.89709 7.17134V9.28169L0.403817 10.8747C0.300358 10.9851 0.242219 11.1347 0.242188 11.2908V13.0563C0.242188 13.2124 0.300306 13.3621 0.403758 13.4724C0.507209 13.5828 0.64752 13.6448 0.793822 13.6448H4.65527V14.1021C4.64302 14.8487 4.8896 15.5739 5.34771 16.1386C5.80583 16.7032 6.44321 17.0675 7.13762 17.1617C7.52111 17.2022 7.90831 17.1567 8.27432 17.0281C8.64033 16.8994 8.97704 16.6905 9.26281 16.4146C9.54858 16.1388 9.77707 15.8022 9.93359 15.4266C10.0901 15.0509 10.1712 14.6444 10.1716 14.2333V13.6448H14.0331C14.1794 13.6448 14.3197 13.5828 14.4231 13.4724C14.5266 13.3621 14.5847 13.2124 14.5847 13.0563V11.2908C14.5847 11.1347 14.5265 10.9851 14.4231 10.8747ZM9.06835 14.2333C9.06835 14.7015 8.89399 15.1506 8.58364 15.4817C8.27328 15.8128 7.85235 15.9988 7.41344 15.9988C6.97453 15.9988 6.5536 15.8128 6.24325 15.4817C5.93289 15.1506 5.75854 14.7015 5.75854 14.2333V13.6448H9.06835V14.2333ZM13.4814 12.4678H1.34546V11.5345L2.83873 9.94139C2.94219 9.83105 3.00033 9.68139 3.00036 9.52532V7.17134C3.00036 5.9227 3.46531 4.72521 4.29292 3.8423C5.12054 2.95938 6.24302 2.46336 7.41344 2.46336C8.58386 2.46336 9.70635 2.95938 10.534 3.8423C11.3616 4.72521 11.8265 5.9227 11.8265 7.17134V9.52532C11.8266 9.68139 11.8847 9.83105 11.9881 9.94139L13.4814 11.5345V12.4678Z" fill="#088395"/>
</svg>
