<svg width="25" height="25" viewBox="0 0 25 25" fill="none" xmlns="http://www.w3.org/2000/svg">
<path d="M12.2385 0.128906C15.4831 0.128906 18.7277 0.128906 21.9723 0.128906C22.6849 0.291406 23.3101 0.616406 23.7915 1.18516C24.1603 1.61641 24.3666 2.12266 24.4979 2.66016C24.4979 4.73516 24.4979 6.81641 24.4979 8.89766C24.4854 8.94766 24.4667 9.00391 24.4542 9.05391C24.0978 10.5727 22.7162 11.5289 21.3408 11.4477C21.2596 11.4414 21.1783 11.4539 21.072 11.4602C21.2033 11.8102 21.3346 12.1289 21.4346 12.4477C21.5534 12.8227 21.4909 12.8039 21.9285 12.8164C22.2848 12.8289 22.6537 12.8102 22.9913 12.9039C23.8102 13.1289 24.2729 13.7164 24.4979 14.5164C24.4979 15.7352 24.4979 16.9539 24.4979 18.1727C24.4729 18.2539 24.4479 18.3352 24.4166 18.4164C24.1291 19.2102 23.5727 19.6977 22.7475 19.8477C22.4661 19.8977 22.1723 19.8852 21.8847 19.8727C21.6409 19.8602 21.5346 19.9414 21.4659 20.1852C21.0845 21.5414 20.2843 22.5914 19.0965 23.3477C18.4276 23.7727 17.6899 24.0039 16.9147 24.1289C13.9827 24.1289 11.0507 24.1289 8.11865 24.1289C7.24342 23.9914 6.42446 23.7039 5.69927 23.1914C4.63649 22.4414 3.9113 21.4414 3.56746 20.1789C3.50495 19.9414 3.39242 19.8602 3.16111 19.8789C2.98606 19.8977 2.80476 19.8852 2.62347 19.8789C1.46066 19.8727 0.529172 18.9414 0.52292 17.7789C0.516668 16.8414 0.52292 15.9039 0.52292 14.9664C0.52292 14.0664 0.941779 13.4164 1.73574 13.0164C1.92328 12.9227 1.9733 12.8164 1.9733 12.6227C1.96705 11.3789 1.9608 10.1414 1.9733 8.89766C1.9733 8.62891 1.89828 8.48516 1.65447 8.36016C0.654205 7.82891 0.279107 6.57266 0.785489 5.54766C1.29812 4.52891 2.52969 4.07891 3.55496 4.56016C4.31766 4.91641 4.75527 5.52266 4.80528 6.37266C4.86155 7.29141 4.44894 7.96641 3.64873 8.40391C3.51745 8.47891 3.39867 8.53516 3.39867 8.72266C3.40492 10.0164 3.40492 11.3164 3.40492 12.6102C3.40492 12.6602 3.42368 12.7102 3.44243 12.7852C3.47994 12.7414 3.4987 12.7352 3.50495 12.7227C3.52995 12.6539 3.54871 12.5914 3.56746 12.5227C4.11136 10.7664 5.23665 9.56016 6.95585 8.89766C7.7373 8.59766 8.55001 8.57266 9.37522 8.59141C9.68781 8.59766 9.68781 8.58516 9.68781 8.27891C9.68781 6.56641 9.68781 4.86016 9.68781 3.14766C9.68781 2.26016 10.0316 1.52891 10.6631 0.922656C11.1132 0.497656 11.6508 0.266406 12.2385 0.128906ZM12.5073 22.7039C13.7076 22.7039 14.9079 22.7102 16.1082 22.7039C16.377 22.7039 16.6584 22.6852 16.9209 22.6352C18.8652 22.2727 20.203 20.6789 20.2155 18.6852C20.2281 17.1414 20.2281 15.5914 20.2155 14.0477C20.2093 13.1852 19.9655 12.3852 19.4528 11.6789C19.3341 11.5102 19.1965 11.4414 18.984 11.4414C17.2085 11.4477 15.4268 11.4414 13.6513 11.4539C13.495 11.4539 13.3263 11.4977 13.1825 11.5664C12.3885 11.9539 11.6071 12.3539 10.8194 12.7414C10.2067 13.0414 9.68781 12.7227 9.68781 12.0414C9.68781 11.4539 9.68781 10.8727 9.68781 10.2852C9.68781 10.1414 9.6628 10.0352 9.48776 10.0414C9.03139 10.0664 8.56252 10.0352 8.1124 10.1164C6.16189 10.4602 4.82404 12.0664 4.81154 14.0539C4.79903 15.5977 4.80528 17.1477 4.81154 18.6914C4.81779 19.4539 4.99908 20.1789 5.41794 20.8289C6.21815 22.0664 7.36845 22.6789 8.83134 22.7039C10.0629 22.7164 11.282 22.7039 12.5073 22.7039ZM11.1319 10.9414C11.2632 10.8852 11.332 10.8539 11.4008 10.8227C11.8071 10.6227 12.2135 10.4289 12.6136 10.2102C12.8949 10.0539 13.1887 9.99766 13.5076 9.99766C16.1145 10.0039 18.7152 10.0039 21.3221 9.99766C22.3786 9.99766 23.0725 9.31016 23.0725 8.25391C23.0788 6.60391 23.0788 4.96016 23.0663 3.31016C23.0663 3.07266 23.0225 2.82266 22.9475 2.59766C22.7037 1.92266 22.1035 1.55391 21.3096 1.55391C18.5089 1.55391 15.7081 1.55391 12.9136 1.55391C11.8134 1.55391 11.1382 2.24141 11.1382 3.34766C11.1382 5.77891 11.1382 8.20391 11.1382 10.6352C11.1319 10.7164 11.1319 10.7977 11.1319 10.9414ZM3.37366 16.3727C3.37366 15.7477 3.37366 15.1227 3.37366 14.5039C3.37366 14.3914 3.37991 14.2664 3.22362 14.2664C2.99857 14.2602 2.76726 14.2539 2.54845 14.2852C2.19836 14.3414 1.96704 14.6039 1.96704 14.9727C1.95454 15.8914 1.95454 16.8102 1.96704 17.7352C1.9733 18.1539 2.26087 18.4227 2.68598 18.4477C2.82352 18.4539 2.96731 18.4414 3.10484 18.4539C3.30489 18.4727 3.37991 18.3977 3.37991 18.1852C3.36741 17.5727 3.37366 16.9727 3.37366 16.3727ZM21.6597 16.3477C21.6597 16.9664 21.6597 17.5789 21.6597 18.1977C21.6597 18.3227 21.6659 18.4414 21.8347 18.4414C22.0285 18.4414 22.2223 18.4539 22.4161 18.4352C22.8037 18.3914 23.06 18.1289 23.0663 17.7352C23.0788 16.8164 23.0788 15.8977 23.0663 14.9727C23.06 14.5539 22.7662 14.2852 22.3474 14.2664C22.2098 14.2602 22.066 14.2727 21.9285 14.2602C21.7284 14.2414 21.6534 14.3227 21.6597 14.5289C21.6659 15.1289 21.6597 15.7414 21.6597 16.3477ZM2.68598 5.82266C2.33589 5.82266 2.01081 6.15391 2.01081 6.50391C2.01081 6.85391 2.34214 7.18516 2.69224 7.17891C3.04233 7.17891 3.36741 6.84766 3.36741 6.49766C3.36741 6.15391 3.03607 5.82266 2.68598 5.82266Z" fill="white"/>
<path d="M12.5138 19.8787C12.0575 19.8787 11.5948 19.885 11.1385 19.8787C10.6946 19.8725 10.3945 19.5725 10.3945 19.1537C10.4008 18.7475 10.7009 18.4475 11.1322 18.4412C12.0575 18.435 12.9827 18.435 13.9079 18.4412C14.3331 18.4412 14.6394 18.7475 14.6394 19.1537C14.6394 19.5662 14.3393 19.8725 13.9142 19.8787C13.4516 19.885 12.9827 19.8787 12.5138 19.8787Z" fill="white"/>
<path d="M8.28742 15.6415C8.28742 15.3978 8.28116 15.1603 8.28742 14.9165C8.29992 14.5103 8.6125 14.2165 9.0126 14.2228C9.4002 14.229 9.71278 14.5165 9.71904 14.9103C9.73154 15.3978 9.73154 15.8915 9.71904 16.3853C9.71278 16.779 9.39395 17.0665 9.00635 17.0665C8.6125 17.0665 8.30617 16.779 8.28742 16.3853C8.28116 16.1415 8.28742 15.8915 8.28742 15.6415Z" fill="white"/>
<path d="M16.7463 15.6603C16.7463 15.8915 16.7526 16.129 16.7463 16.3603C16.7338 16.7728 16.4338 17.0665 16.0337 17.0665C15.6335 17.0665 15.321 16.7728 15.3147 16.3665C15.3085 15.8853 15.3085 15.3978 15.3147 14.9165C15.321 14.5103 15.6398 14.2165 16.0399 14.2228C16.4275 14.229 16.7338 14.5165 16.7463 14.9103C16.7526 15.1603 16.7463 15.4103 16.7463 15.6603Z" fill="white"/>
<path d="M17.1026 5.1166C15.8273 5.1166 14.5457 5.1166 13.2704 5.1166C12.8953 5.1166 12.6015 4.8541 12.5577 4.5041C12.5077 4.1416 12.714 3.81035 13.0641 3.7041C13.1516 3.6791 13.2454 3.67285 13.3391 3.67285C15.8585 3.67285 18.3717 3.67285 20.8911 3.67285C21.36 3.67285 21.6663 3.96035 21.6663 4.3916C21.6663 4.82285 21.36 5.11035 20.8911 5.1166C19.622 5.1166 18.3655 5.1166 17.1026 5.1166Z" fill="white"/>
<path d="M17.1022 7.92871C15.8269 7.92871 14.5453 7.92871 13.2699 7.92871C12.8949 7.92871 12.601 7.67246 12.551 7.32246C12.501 6.95996 12.7073 6.62246 13.0511 6.52246C13.1387 6.49746 13.2324 6.49121 13.3262 6.49121C15.8456 6.49121 18.3588 6.49121 20.8782 6.49121C21.3471 6.49121 21.6596 6.77871 21.6596 7.20371C21.6596 7.64121 21.3533 7.92871 20.8657 7.92871C19.6154 7.92871 18.3588 7.92871 17.1022 7.92871Z" fill="white"/>
</svg>
