<svg width="343" height="343" viewBox="0 0 343 343" fill="none" xmlns="http://www.w3.org/2000/svg">
<path fill-rule="evenodd" clip-rule="evenodd" d="M170.458 79.0765C232.242 131.181 297.097 111.212 304.369 171.181C312.094 234.923 291.431 196.56 241.665 236.331C169.036 294.379 59.9754 274.126 55.9362 170.575C53.2481 101.589 121.371 37.6827 170.458 79.0765Z" fill="#F5F2FD"/>
<path d="M39.3833 218.822C39.9279 217.615 40.2539 216.383 40.8961 215.367C41.6206 214.376 42.8387 213.611 44.0989 214.059C49.74 215.887 55.4129 215.845 58.4658 211.185C58.4451 211.255 58.4367 211.329 58.4412 211.403C58.4421 211.472 58.5242 211.497 58.5924 211.497C58.6623 211.632 58.9226 211.738 59.0598 211.805C59.7729 212.123 60.5776 212.154 61.3542 212.063C62.3342 211.901 63.1309 211.251 63.9843 210.777C64.5352 210.447 65.1164 210.17 65.72 209.951C65.7337 210.268 65.7008 210.586 65.6223 210.894C65.6064 210.889 65.5895 210.888 65.573 210.89C65.5565 210.893 65.5408 210.899 65.5271 210.908C64.8429 211.844 63.4144 212.134 62.2225 212.817C61.2056 213.306 60.3695 214.08 59.6573 214.962C58.9832 215.749 58.4329 216.634 58.0253 217.587C57.0685 219.658 56.81 221.952 56.7009 224.203C56.6923 224.654 56.4629 227.07 57.2219 226.679C57.9489 225.893 58.3324 224.907 59.1308 224.392C61.4431 222.754 64.3313 222.502 66.3798 220.486C68.4406 218.36 69.932 214.264 67.3812 211.977C67.0036 211.653 66.5708 211.399 66.1035 211.229C66.0213 211.202 65.9663 211.162 65.8841 211.136C66.0004 210.709 66.0502 210.267 66.0319 209.825C66.5168 209.675 67.0218 209.599 67.5294 209.602C68.2794 209.593 69.0581 209.706 69.7924 209.533C71.0575 209.259 72.0538 208.197 72.407 206.951C72.5112 206.554 72.6689 206.062 72.6631 205.584C73.2965 206.082 73.9841 206.55 74.7645 206.8C75.8866 207.114 77.2896 206.974 77.7241 205.686C77.9869 204.865 77.7855 204.008 77.7074 203.191C77.6326 202.647 77.8001 201.84 77.9011 201.17C77.9561 201.475 78.0709 201.766 78.2388 202.026C78.4475 202.364 78.6833 202.688 78.9191 203.013C78.8042 204.787 78.7872 206.751 79.7607 208.308C77.3426 207.942 76.8029 211.821 73.425 209.926C72.9863 209.74 71.8025 208.841 71.649 209.675C71.6112 209.934 71.7229 210.151 71.8076 210.382C72.0326 210.953 72.3426 211.488 72.727 211.966C73.8894 213.357 75.893 214.383 77.7011 213.897C78.3401 213.739 78.934 213.228 79.3258 212.923C79.7926 212.591 80.3098 212.336 80.8577 212.168C81.9716 211.8 83.17 211.663 84.1582 211.051C84.3858 210.901 84.5943 210.725 84.7791 210.525C84.9403 211.437 85.5647 212.316 86.911 213.131C88.7365 214.077 90.5428 214.587 92.0068 216.097C92.2549 216.312 92.7544 217.015 93.0863 217.393C93.5013 217.865 93.7986 217.644 93.8872 217.083C94.5154 214.907 94.6228 212.519 93.6155 210.431C93.1524 209.332 92.4004 208.073 92.1021 207.095C91.9139 206.197 91.9327 205.501 91.9893 204.546C92.1091 203.17 92.5207 201.835 93.1965 200.631C93.4366 200.164 93.7994 199.737 94.0942 199.31C94.7631 200.475 94.8905 201.987 94.6458 203.177C94.2574 204.886 93.2973 206.685 94.0277 208.435C94.3244 209.277 94.8928 210.047 95.7957 210.268C96.2886 210.426 96.834 210.419 97.3135 210.618C97.5882 210.716 97.8506 210.846 98.0956 211.004L98.2188 211.044C98.2425 211.037 98.2646 211.025 98.2837 211.01C98.3028 210.994 98.3184 210.975 98.3297 210.953C98.3409 210.931 98.3476 210.907 98.3492 210.883C98.3507 210.858 98.3472 210.833 98.3389 210.81C98.554 210.562 98.7085 209.796 98.8019 209.645C99.8975 206.645 101.566 204.825 100.433 201.293C100.294 200.843 100.124 200.403 99.9256 199.976C100.239 199.918 100.537 199.832 100.85 199.774C102.55 199.344 104.351 199.445 105.808 200.341C106.288 200.608 106.934 200.995 107.224 201.292C107.403 201.44 107.502 201.698 107.734 201.75C108.184 201.69 107.808 201.094 107.778 200.835C107.379 199.463 107.172 198.129 107.238 196.791C107.25 194.418 108.547 192.275 109.2 189.948C109.667 187.924 109.258 185.734 108.309 183.89C106.983 181.383 104.032 179.851 101.262 180.866L100.828 181.09C99.8169 179.793 98.3062 178.925 96.7585 178.384C95.7724 178.001 94.7336 177.85 93.7338 177.507C91.9529 176.847 89.868 175.863 88.1906 177.002C88.2169 176.92 88.2572 176.865 88.2704 176.823C89.3397 175.038 89.3953 172.882 89.589 170.861C89.6276 169.878 89.7946 168.904 90.0858 167.964C90.0875 167.968 90.09 167.971 90.0931 167.973C90.0961 167.976 90.0997 167.978 90.1035 167.979C90.1073 167.98 90.1114 167.981 90.1154 167.981C90.1194 167.98 90.1233 167.979 90.1268 167.977C90.7667 167.887 91.3713 168.262 92.109 168.362C92.7755 168.427 93.4461 168.437 94.1142 168.392C94.2686 168.759 94.4229 169.125 94.6589 169.45C95.2135 170.193 95.97 170.729 96.8203 171.114C98.7262 171.95 99.5926 170.303 100.422 168.916C100.73 168.448 101.258 168.142 101.784 167.699C102.312 167.262 102.746 166.723 103.061 166.115C103.568 165.168 103.744 163.979 103.323 162.962C103.014 162.297 102.302 162.047 101.645 161.836C100.632 161.535 99.6079 161.411 98.6212 161.028C97.9091 160.777 97.2634 160.389 96.5108 160.194C95.9363 160.01 95.3091 160.059 94.7234 160.12C94.0968 160.258 93.4582 160.334 92.8168 160.348C93.1797 158.789 93.4729 157.094 94.401 156.033C95.2207 155.027 96.443 154.603 97.6834 154.547C97.8678 154.525 98.0548 154.547 98.2297 154.609C98.7596 155.571 99.4259 156.531 100.521 156.859C101.302 157.176 102.282 157.014 102.875 156.434C102.973 156.313 103.054 156.179 103.116 156.036C103.585 157.612 104.577 158.473 106.294 158.343C106.772 158.337 107.234 158.236 107.71 158.162C107.901 158.133 108.119 158.089 108.268 157.978C108.592 157.743 108.627 157.21 108.283 157.01C107.79 156.784 107.192 157.023 106.689 157.111C106.131 157.227 105.779 157.408 105.354 157.25C104.696 156.972 104.114 156.242 103.535 155.717C104.419 155.502 105.204 155.029 105.713 154.286C106.278 153.652 106.916 153.358 107.772 153.156C108.575 152.983 109.445 152.741 109.996 152.079C110.774 150.992 110.78 149.274 109.746 148.332C108.202 146.932 106.371 147.773 106.423 149.873C106.418 150.527 106.51 151.372 106.365 151.824C106.154 152.412 105.642 152.882 104.978 153.259C104.422 153.511 103.853 153.804 103.476 154.273C103.471 152.731 102.398 151.981 101.104 150.933C100.065 150.097 98.8707 149.477 97.5902 149.107C97.0702 148.963 96.4812 148.752 95.9382 148.963C95.3551 149.229 95.4865 149.951 95.8053 150.37C96.4732 151.466 97.7908 152.159 97.8592 153.291C97.9298 153.494 97.8249 153.823 97.8552 154.082C96.5318 154.043 95.1468 154.551 94.259 155.557C93.0334 156.841 92.8233 158.63 92.4341 160.271C91.3708 160.338 90.2803 160.352 89.2181 160.487C89.1771 160.474 89.15 160.488 89.1097 160.543C89.0758 160.526 89.0372 160.522 89.0004 160.531C88.9676 160.543 88.9385 160.564 88.916 160.59C88.8934 160.617 88.8782 160.649 88.8717 160.684C88.8653 160.718 88.8679 160.753 88.8792 160.787C88.8905 160.82 88.9102 160.849 88.9364 160.873C89.962 161.392 90.8534 162.142 91.5406 163.064C90.8401 164.9 89.9752 166.683 89.5211 168.598C89.0687 170.649 89.2467 172.925 88.6962 174.786C88.4622 175.73 88.0334 176.363 87.6351 177.254C87.6753 177.199 87.6219 177.295 87.5686 177.391C87.4517 177.509 87.3605 177.649 87.3008 177.804L87.2597 177.791C85.1649 177.12 83.0704 178.714 81.2915 179.322C80.7075 179.52 80.0675 179.61 79.5912 179.684C79.0737 179.745 77.6147 179.776 78.6466 180.514C79.6915 181.21 80.8441 181.783 81.8627 182.561C82.4418 183.086 82.9833 183.871 83.3744 184.63C84.4228 186.73 85.2288 189.094 86.724 190.931C86.7109 190.975 86.7114 191.023 86.7257 191.067C87.3542 192.287 86.7835 193.576 85.5505 194.245C84.9812 194.539 84.0957 194.618 83.4049 195.008C81.4309 194.173 79.2796 195.59 78.2085 197.239C77.7953 198.035 77.6566 198.964 77.6262 199.838C77.6248 200.106 77.6371 200.374 77.6633 200.642C77.6175 200.581 77.5569 200.533 77.4872 200.503C77.4175 200.473 77.3412 200.461 77.2656 200.469C76.5576 200.56 76.0927 201.588 75.8102 201.905C75.434 202.374 74.8089 202.558 74.2372 202.647C74.9394 200.948 75.2148 198.885 75.2537 197.63C75.2487 197.221 75.3522 196.756 75.293 196.375C75.3188 196.363 75.3418 196.346 75.3603 196.324C75.3789 196.303 75.3926 196.278 75.4006 196.25C75.4384 195.991 76.0338 195.615 76.2877 195.176C76.5949 194.64 76.6827 194.012 76.6752 193.398C76.7416 192.129 76.2224 190.922 75.4329 189.922C74.6836 188.867 73.3273 188.366 72.3802 187.859C71.0756 187.124 70.015 186.265 69.5212 184.907C69.3033 184.287 69.2209 183.627 69.2796 182.973C69.4191 182.112 69.3615 180.735 68.1367 180.955C66.4167 181.944 66.4803 186.062 66.924 187.789C67.556 190.413 68.643 193.455 68.2227 195.901C68.0683 196.667 67.7339 197.216 67.1886 197.223C67.1476 197.21 67.12 197.224 67.0793 197.211C66.5182 195.922 65.7943 194.717 65.0434 193.526C64.9876 193.417 64.9186 193.35 64.8627 193.242C65.1406 192.838 65.3645 192.4 65.5288 191.938C65.7484 191.35 65.9055 190.74 65.9977 190.119C66.1463 190.008 66.0609 189.709 66.0452 189.545C65.9671 188.728 65.5489 187.983 65.2261 187.223C64.6937 186.057 64.664 184.734 64.1578 183.485C63.4866 182.116 62.15 180.987 60.6072 180.856C60.4844 180.841 60.3601 180.847 60.2393 180.874C60.0845 179.864 60.0174 178.842 60.0386 177.821C60.7721 177.58 61.4341 177.068 61.6977 176.314C61.8494 175.98 61.9197 175.614 61.9029 175.247C62.7457 175.019 63.6551 174.653 64.0131 173.817C64.092 173.57 64.1708 173.324 64.2225 173.092C64.4292 173.495 64.6907 173.868 64.9997 174.2C66.1162 175.169 67.2292 173.601 67.7367 172.722C68.4586 171.526 70.0292 170.58 70.5013 169.033C71.0285 167.526 70.8559 165.66 69.723 164.46C68.9631 163.651 67.9198 163.091 66.8256 162.831C65.9962 162.705 65.1482 162.81 64.3744 163.134L64.3473 163.148C63.7126 162.745 62.9882 162.506 62.2386 162.451C61.146 162.327 60.1291 162.817 59.0829 163.116C58.788 163.183 58.4841 163.2 58.1834 163.168L58.1424 163.155C58.1085 163.138 58.0698 163.134 58.0331 163.142C57.5853 162.207 57.1375 161.271 56.744 160.308C56.4071 159.521 56.0562 158.707 55.7326 157.879C56.2075 157.943 56.6908 157.905 57.1495 157.766C57.897 157.552 58.4745 156.809 58.4101 156.019C58.3632 155.528 58.1118 155.04 58.1348 154.685C58.1177 154.385 58.3738 154.151 58.6004 153.725C58.9463 152.998 58.5814 152.157 58.178 151.507C57.4969 150.452 56.1267 149.923 54.8749 150.156C54.4255 150.216 54.1109 150.138 53.7141 150.034C54.4961 149.288 54.726 148.003 55.3165 147.219C55.4502 147.049 55.5989 146.892 55.7608 146.749C55.7503 146.787 55.7514 146.826 55.764 146.862C55.7767 146.899 55.8003 146.931 55.8316 146.953C55.8358 147.016 55.8553 147.076 55.8882 147.13C56.2097 148.342 56.7809 149.473 57.5651 150.451C58.1616 151.276 59.0151 151.933 60.0657 151.975C60.6259 152.064 61.141 151.798 61.5879 151.534C62.0889 151.241 62.6039 150.976 63.1189 150.711C63.7714 150.382 64.5069 150.255 65.2318 150.346C65.9566 150.437 66.6381 150.741 67.1893 151.221C67.5607 151.475 67.8532 151.976 68.2532 152.353C68.2772 152.393 68.3142 152.424 68.3582 152.441C68.4021 152.457 68.4503 152.458 68.4948 152.443C68.5392 152.428 68.5772 152.398 68.6024 152.359C68.6277 152.319 68.6387 152.272 68.6335 152.226C68.6048 152.104 68.4807 151.996 68.4249 151.888C67.7167 150.846 67.1958 149.502 66.4045 148.366C65.3777 146.906 64.2546 145.392 62.729 144.428C61.7129 143.854 60.5103 143.651 59.3512 143.665C58.7748 143.674 58.2083 143.816 57.6958 144.08C57.1833 144.344 56.7387 144.723 56.3966 145.187C56.1751 145.513 56.0004 145.869 55.8774 146.244C55.8284 146.264 55.7862 146.297 55.7558 146.341C54.7686 147.021 54.5633 148.087 54.0565 149.034C53.7896 149.515 53.5884 149.79 53.1958 150.027L53.0873 150.082C52.4308 147.676 51.8826 145.215 52.0583 142.826C52.0663 142.702 52.083 142.579 52.1084 142.457C52.2989 142.428 52.5034 142.425 52.6801 142.368C53.3735 142.183 53.775 141.564 53.9713 140.88C54.2875 139.962 54.3153 138.884 53.7189 138.06C53.6219 137.938 53.4691 137.708 53.3179 137.615C53.3356 137.566 53.3443 137.516 53.3436 137.464C53.8242 137.731 54.299 137.521 54.6908 137.216L54.7047 137.243C54.8839 137.391 55.1558 137.32 55.3611 137.385C55.5525 137.424 56.0856 137.526 56.2508 137.647C56.7724 137.927 56.9951 138.293 57.3418 138.766C57.6473 139.155 58.0511 139.457 58.5116 139.638C59.527 140.144 60.7542 140.129 61.2965 140.982C61.727 141.618 62.0121 142.637 62.5798 143.339C62.8851 143.722 63.2274 144.075 63.6018 144.391C63.7948 144.566 64.0289 144.754 64.2886 144.791C64.9574 144.824 64.5809 144.161 64.4675 143.807C64.2993 143.311 64.2057 142.793 64.1898 142.27C64.1519 141.397 64.6472 140.627 64.6215 139.646C64.6667 138.868 64.4259 138.134 64.0497 137.471C63.5909 136.566 62.9276 135.78 62.1125 135.176C61.5249 134.748 60.8513 134.453 60.1385 134.311C59.4256 134.169 58.6905 134.183 57.9837 134.353C57.3045 134.566 56.7368 134.995 56.1824 135.384C55.3577 135.98 54.5388 137.054 53.8308 137.145C53.572 137.175 53.5712 137.107 53.3379 136.987C53.516 135.934 53.64 134.91 53.8181 133.858C53.9453 133.106 54.3297 132.188 54.8385 131.377C54.8796 131.39 54.9071 131.376 54.9609 131.348C55.4754 131.015 56.1881 131.333 56.9816 131.542C58.4028 131.77 59.8896 131.793 59.8673 129.952C59.8607 129.407 59.8113 128.712 59.9156 128.315C60.0848 127.645 60.3073 126.878 59.9585 126.201C60.526 125.771 61.1076 125.368 61.7031 124.993C62.7144 124.379 63.787 123.872 64.9034 123.481C65.315 123.681 65.7274 123.948 66.1783 124.025C67.053 124.191 68.1975 124.082 68.9352 124.182C69.824 124.376 70.4163 124.86 71.2666 125.245C72.157 125.575 73.1502 125.372 74.0775 125.375C74.3777 125.357 75.033 125.431 74.7544 124.957C73.108 123.027 71.2842 121.085 68.8994 120.118C67.1867 119.457 64.3527 119.683 63.8329 121.803C63.8404 122.417 64.0909 122.836 64.1788 123.34C63.8831 123.451 63.5933 123.578 63.3106 123.719C62.0521 124.31 60.8623 125.038 59.7626 125.89C59.4151 125.348 58.8778 124.905 58.3553 124.556C57.7778 124.168 57.2142 123.807 56.5431 123.569C55.2279 123.08 53.7648 123.903 52.7341 124.366C52.3234 124.566 51.872 124.67 51.4148 124.668C51.0468 124.686 50.6369 124.623 50.3396 124.845C49.8262 125.247 49.9446 126.009 50.21 126.524C50.3915 126.876 50.7759 127.09 51.1325 127.249C51.6944 127.474 52.6481 127.394 53.058 127.458C53.5772 127.533 53.9205 127.733 54.1703 128.085C54.2744 128.247 54.3245 128.437 54.3133 128.629C54.2903 128.984 54.1853 129.312 54.1893 129.653C54.1401 130.09 54.3225 130.511 54.5722 130.862C54.5945 130.91 54.6277 130.952 54.6692 130.984C54.0934 131.864 53.6549 132.81 53.4767 133.862C53.273 135.065 53.1509 136.226 52.9193 137.374C52.8653 137.337 52.8049 137.31 52.7411 137.294C51.3561 136.67 49.4937 134.92 47.7465 135.923C46.9054 136.288 46.2894 137.223 45.6947 137.666C44.5316 138.471 43.2665 138.746 41.9768 138.107C40.9352 137.683 40.6576 138.409 41.1998 139.262C41.6303 139.898 42.2366 140.409 42.8963 140.823C43.4187 141.172 43.9814 141.465 44.6361 141.471C45.6308 141.404 46.7027 140.954 47.4956 141.095C48.2472 141.222 48.9471 141.582 49.6595 141.832C50.2895 142.057 51.0008 142.239 51.6966 142.258C51.6713 142.379 51.6546 142.502 51.6466 142.626C51.5523 143.841 51.6624 145.054 51.8408 146.265C52.0454 147.395 52.2911 148.538 52.5911 149.653C52.221 149.495 51.8142 149.443 51.4163 149.503C50.654 149.622 50.0322 150.079 49.3266 150.374C48.6749 150.641 47.6672 150.749 47.2245 150.222C46.7406 149.683 46.3906 148.937 45.6512 148.7C45.0767 148.585 45.1543 149.334 45.1724 149.702C45.1939 150.342 45.5011 150.939 45.8215 151.494C46.3386 152.404 47.0573 153.184 47.9224 153.773C48.9813 154.497 49.981 154.839 51.0523 155.454C51.905 156.044 52.7454 156.743 53.732 157.126C54.2208 157.339 54.73 157.502 55.2517 157.612C55.5049 158.237 55.7718 158.888 56.0248 159.512C56.9369 161.615 57.9565 163.594 58.6911 165.685C57.3791 165.469 56.0681 165.322 54.8323 164.655C54.1463 164.322 53.2545 163.856 52.5248 163.305C51.6712 162.647 49.9616 161.127 49.4097 162.852C49.2028 163.782 49.5693 164.759 50.0968 165.517C50.8312 166.476 51.7834 167.392 52.232 168.396C53.1087 170.963 53.6906 173.956 55.8561 175.962C56.7113 176.756 57.6495 177.645 58.8644 177.739C59.1164 177.747 59.3685 177.721 59.6136 177.662C59.6013 177.771 59.6161 177.866 59.6038 177.976C59.6149 178.866 59.694 179.754 59.8406 180.632C57.8247 180.848 55.9304 182.098 54.6534 183.614C53.1955 185.539 52.0268 187.666 51.1842 189.929C50.9214 190.751 50.3998 191.603 50.6697 192.459C50.9104 193.192 51.7212 193.701 52.4991 193.746C53.0857 193.753 53.6278 193.473 54.1847 193.289C54.3975 193.209 54.6154 193.142 54.837 193.09C54.7463 193.736 54.4957 194.348 54.1081 194.872C53.5316 195.684 52.6418 196.554 52.15 197.596C51.6532 197.3 51.0975 197.115 50.5219 197.056C49.9463 196.997 49.3648 197.065 48.8182 197.255C47.3921 197.749 46.4257 199.002 45.3461 199.97C44.6859 200.619 44.2135 201.034 43.2881 201.168C42.4577 201.287 41.0784 201.14 40.114 201.465C39.1217 201.737 38.4359 202.536 38.0376 203.427C36.9321 205.609 37.0449 208.158 37.0738 210.545C37.1694 212.794 37.1424 215.072 37.4967 217.29C37.6701 218.093 37.7499 219.047 38.0859 219.765C38.737 220.63 39.2092 219.083 39.3833 218.822ZM91.9284 163.55C92.3186 164.24 92.6136 164.946 92.9497 165.665C93.2709 166.288 93.6053 166.871 93.8723 167.522C93.9628 167.705 94.0381 167.896 94.0974 168.092C93.3614 168.128 92.5433 168.138 91.955 167.995C91.4491 167.879 90.9414 167.626 90.4099 167.659C90.3878 167.667 90.3636 167.668 90.3413 167.66C90.7749 166.305 91.3724 164.934 91.9284 163.55ZM87.8487 178.001C87.9378 177.948 88.0047 177.865 88.0368 177.767C89.4517 176.318 91.3553 177.017 93.4108 177.811C94.6989 178.313 96.0781 178.46 97.3259 179.018C98.3536 179.415 99.5358 180.178 100.24 180.878C100.392 181.023 100.531 181.181 100.655 181.351C99.5313 182.032 98.6567 183.066 98.2908 184.352C97.4991 186.544 97.5297 189.067 97.0231 191.146C96.5911 192.638 95.9119 193.982 94.8753 195.1C94.0825 193.827 92.829 193.924 91.4975 194.336C90.8313 194.508 90.3278 194.596 89.9958 194.218C89.7472 193.935 89.5928 193.568 89.3969 193.189C89.4931 193.242 89.6162 193.282 89.7123 193.335C90.3967 193.531 91.1458 193.454 91.826 193.309C93.3341 192.841 93.9812 191.101 94.1824 189.693C94.2147 189.294 94.1489 188.892 93.9908 188.523C94.2569 188.482 94.5141 188.395 94.7515 188.268C95.2526 187.976 95.6287 187.508 95.9777 187.053C96.8089 185.87 96.9953 184.368 96.651 182.967C95.9196 180.017 93.4806 179.078 90.6704 179.017C89.7151 178.96 88.6874 178.563 87.6868 178.153C87.8084 178.056 87.8216 178.015 87.8487 178.001ZM84.4569 195.185C85.1502 195 85.8574 194.841 86.3971 194.357C86.9872 193.839 87.3626 193.12 87.45 192.339C87.4631 192.12 87.442 191.899 87.3875 191.686C87.4561 191.753 87.5254 191.82 87.6085 191.915C87.3202 192.887 87.2373 193.924 87.1816 194.948C87.1611 195.507 87.1949 196.039 87.4331 196.567C87.4471 196.595 87.42 196.609 87.434 196.636C87.9376 197.68 89.013 198.635 89.5412 199.461C90.1419 200.627 89.6548 202.078 88.9024 203.014C88.0827 204.02 87.056 204.824 86.0711 205.708L86.0293 205.627C85.861 205.313 85.6356 205.034 85.3646 204.803C84.3442 203.888 82.9379 203.755 81.9604 202.99C81.52 202.668 81.322 202.084 81.5766 201.712C81.6037 201.698 81.6168 201.657 81.6439 201.643C81.7926 201.533 81.9553 201.449 82.104 201.338C83.2819 200.628 84.5525 199.699 84.7808 198.278C84.8608 197.569 84.8384 196.853 84.7141 196.151C84.646 195.825 84.5601 195.502 84.4569 195.185ZM59.1798 203.716C59.2994 203.676 59.4223 203.647 59.547 203.63C59.9422 203.598 60.1473 203.664 60.5443 203.768C61.5441 204.11 62.6161 204.793 63.7256 205.216C63.6985 205.23 63.6985 205.23 63.6854 205.271C63.3963 206.174 62.7351 206.755 61.7289 206.999C60.9123 207.145 60.3054 207.698 59.8634 208.372C59.7454 208.534 59.6381 208.704 59.5423 208.881C59.6343 208.593 59.7533 208.292 59.8454 208.004C60.0581 207.203 60.0945 206.365 59.9519 205.548C59.8355 204.922 59.5414 204.284 59.1798 203.716ZM54.5913 195.344C55.0339 194.738 55.2303 194.054 55.3304 193.316C55.5752 193.259 55.834 193.228 56.0516 193.185C57.3183 193.046 58.3723 193.361 59.3367 194.168C60.067 194.786 60.9189 195.308 61.8874 195.323C63.0727 195.227 64.0601 194.547 64.7582 193.638C65.6899 195.113 66.5805 196.576 67.2148 198.273C67.5664 199.155 67.7949 199.998 68.0373 200.867C67.8168 200.986 67.5643 201.032 67.3161 200.999C66.852 200.964 66.1661 200.631 65.6049 200.474C63.8396 199.977 61.9741 200.218 60.2627 200.757C59.4207 201.054 58.5279 201.651 57.8608 201.755C57.7834 201.754 57.706 201.76 57.6293 201.771C56.25 201.624 54.8527 201.109 54.0607 199.905C53.6861 199.378 53.406 198.767 52.9097 198.337C52.7996 198.256 52.6895 198.176 52.5655 198.068C53.0717 197.121 53.8808 196.361 54.5913 195.343V195.344Z" fill="url(#paint0_linear_336_4630)"/>
<path fill-rule="evenodd" clip-rule="evenodd" d="M64.7448 231.535C65.0489 233.687 66.0606 235.899 67.4471 238.038C69.2297 240.786 71.5717 243.439 73.3896 245.699C74.9883 247.728 76.6789 249.658 78.4333 251.519C80.1948 253.386 82.0411 255.161 83.9653 256.868C86.5229 259.149 89.2287 261.258 92.065 263.181C98.75 267.692 106.446 271.287 115.53 273.641C115.756 273.692 115.99 273.699 116.219 273.66C116.448 273.621 116.667 273.537 116.864 273.413C117.06 273.29 117.23 273.129 117.365 272.939C117.499 272.75 117.595 272.536 117.646 272.309C117.698 272.083 117.704 271.849 117.665 271.62C117.626 271.391 117.542 271.172 117.419 270.976C117.295 270.779 117.134 270.609 116.945 270.474C116.755 270.34 116.541 270.245 116.315 270.193C107.465 268.425 99.811 265.485 93.211 261.412C90.3725 259.671 87.6886 257.689 85.189 255.489C83.3178 253.829 81.5528 252.054 79.9047 250.173C78.2635 248.289 76.7193 246.323 75.2783 244.283C73.6725 241.978 71.5573 239.275 70.0364 236.492C69.0674 234.716 68.367 232.913 68.2679 231.191C68.2202 230.726 67.9901 230.298 67.6279 230.002C67.2657 229.705 66.801 229.565 66.3353 229.61C65.8695 229.656 65.4408 229.884 65.1428 230.244C64.8448 230.605 64.7018 231.069 64.7451 231.535L64.7448 231.535ZM116.992 62.4292C118.457 61.2754 120.105 60.3797 121.845 59.6647C124.568 58.5441 127.504 57.8424 130.313 57.2645C136.821 55.9409 143.576 55.6381 150.113 56.6299C156.656 57.6231 162.959 59.9024 168.569 63.648C173.252 66.8208 177.404 70.7114 181.599 74.5158C184.45 77.1099 187.322 79.6658 190.421 81.9139C193.753 84.3406 197.339 86.4187 201.407 87.8285C204.767 89.0028 208.155 89.5496 211.558 89.8106C219.297 90.4042 227.114 89.4307 234.831 91.0925C238.022 91.7843 240.936 92.9939 243.674 94.5198C247.89 96.8683 251.689 99.9735 255.445 103.154C255.624 103.303 255.831 103.415 256.054 103.484C256.276 103.553 256.51 103.577 256.742 103.555C256.974 103.533 257.199 103.466 257.405 103.356C257.611 103.247 257.793 103.099 257.941 102.919C258.089 102.739 258.201 102.532 258.268 102.309C258.336 102.086 258.359 101.852 258.336 101.62C258.313 101.388 258.245 101.163 258.135 100.958C258.025 100.753 257.875 100.571 257.695 100.424C253.684 97.2136 249.623 94.101 245.159 91.7687C242.118 90.1823 238.906 88.9475 235.397 88.2826C227.517 86.7773 219.594 87.9339 211.713 87.5002C208.495 87.3234 205.283 86.87 202.085 85.8244C198.195 84.5405 194.75 82.6185 191.545 80.3456C188.482 78.1738 185.638 75.6958 182.837 73.1512C178.578 69.2852 174.419 65.2728 169.686 62.011C163.893 57.9661 157.328 55.4732 150.502 54.2607C143.689 53.0504 136.608 53.126 129.761 54.3088C126.74 54.8224 123.585 55.4767 120.635 56.5711C118.57 57.3365 116.61 58.3261 114.849 59.6157C114.476 59.9 114.231 60.3208 114.168 60.7857C114.105 61.2505 114.229 61.7212 114.514 62.0943C114.798 62.4674 115.219 62.7122 115.684 62.775C116.149 62.8378 116.619 62.7134 116.992 62.4291L116.992 62.4292Z" fill="#F5F2FD"/>
<path fill-rule="evenodd" clip-rule="evenodd" d="M183.019 119.365C183.018 116.325 181.81 113.409 179.66 111.258C177.511 109.108 174.595 107.899 171.554 107.897H86.9677C83.9269 107.899 81.0114 109.108 78.8617 111.258C76.712 113.409 75.5039 116.325 75.5029 119.365V238.854C75.5039 241.895 76.7119 244.811 78.8616 246.961C81.0114 249.112 83.9269 250.321 86.9677 250.323H171.555C174.596 250.321 177.511 249.112 179.661 246.961C181.811 244.811 183.019 241.895 183.02 238.854L183.019 119.365Z" fill="white"/>
<mask id="mask0_336_4630" style="mask-type:luminance" maskUnits="userSpaceOnUse" x="75" y="107" width="109" height="144">
<path d="M183.019 119.365C183.018 116.325 181.81 113.409 179.66 111.258C177.511 109.108 174.595 107.899 171.554 107.897H86.9677C83.9269 107.899 81.0114 109.108 78.8617 111.258C76.712 113.409 75.5039 116.325 75.5029 119.365V238.854C75.5039 241.895 76.7119 244.811 78.8616 246.961C81.0114 249.112 83.9269 250.321 86.9677 250.323H171.555C174.596 250.321 177.511 249.112 179.661 246.961C181.811 244.811 183.019 241.895 183.02 238.854L183.019 119.365Z" fill="white"/>
</mask>
<g mask="url(#mask0_336_4630)">
<path fill-rule="evenodd" clip-rule="evenodd" d="M195.769 126.576V110.127C195.769 108.896 194.534 107.897 193.015 107.897H65.509C63.9905 107.897 62.7547 108.896 62.7547 110.127V126.576C62.7547 127.807 63.9905 128.806 65.509 128.806H193.015C194.534 128.806 195.769 127.806 195.769 126.576Z" fill="#088395"/>
<path d="M87.4418 121.184C89.0064 121.184 90.2748 119.916 90.2748 118.351C90.2748 116.786 89.0064 115.518 87.4418 115.518C85.8771 115.518 84.6088 116.786 84.6088 118.351C84.6088 119.916 85.8771 121.184 87.4418 121.184Z" fill="white"/>
<path d="M96.4176 121.184C97.9822 121.184 99.2506 119.916 99.2506 118.351C99.2506 116.786 97.9822 115.518 96.4176 115.518C94.8529 115.518 93.5845 116.786 93.5845 118.351C93.5845 119.916 94.8529 121.184 96.4176 121.184Z" fill="white"/>
<path d="M105.665 121.184C107.23 121.184 108.498 119.916 108.498 118.351C108.498 116.786 107.23 115.518 105.665 115.518C104.1 115.518 102.832 116.786 102.832 118.351C102.832 119.916 104.1 121.184 105.665 121.184Z" fill="white"/>
</g>
<path d="M106.695 179.109C117.461 179.109 126.188 170.381 126.188 159.616C126.188 148.85 117.461 140.122 106.695 140.122C95.9294 140.122 87.202 148.85 87.202 159.616C87.202 170.381 95.9294 179.109 106.695 179.109Z" fill="#E3E3FE"/>
<mask id="mask1_336_4630" style="mask-type:luminance" maskUnits="userSpaceOnUse" x="87" y="140" width="40" height="40">
<path d="M106.695 179.109C117.461 179.109 126.188 170.381 126.188 159.616C126.188 148.85 117.461 140.122 106.695 140.122C95.9294 140.122 87.202 148.85 87.202 159.616C87.202 170.381 95.9294 179.109 106.695 179.109Z" fill="white"/>
</mask>
<g mask="url(#mask1_336_4630)">
<path fill-rule="evenodd" clip-rule="evenodd" d="M87.359 169.285C96.916 154.098 101.33 153.275 106.692 159.313C112.062 165.351 113.703 167.126 119.836 164.34C125.962 161.554 128.82 164.574 130.709 168.736C132.598 172.898 107.351 184.29 102.682 184.198C98.0125 184.106 77.7949 184.472 87.359 169.285Z" fill="url(#paint1_linear_336_4630)"/>
</g>
<path d="M117.672 155.808C121.455 155.808 124.521 152.741 124.521 148.959C124.521 145.176 121.455 142.109 117.672 142.109C113.889 142.109 110.822 145.176 110.822 148.959C110.822 152.741 113.889 155.808 117.672 155.808Z" fill="url(#paint2_linear_336_4630)"/>
<path fill-rule="evenodd" clip-rule="evenodd" d="M125.413 194.554C125.413 194.328 125.369 194.104 125.283 193.895C125.197 193.686 125.07 193.496 124.91 193.336C124.75 193.176 124.56 193.05 124.351 192.964C124.142 192.878 123.918 192.835 123.692 192.836H92.7957C92.5703 192.836 92.347 192.88 92.1387 192.966C91.9304 193.052 91.7412 193.179 91.582 193.339C91.4228 193.498 91.2966 193.688 91.2108 193.896C91.125 194.105 91.0812 194.328 91.0819 194.554V194.555C91.0812 194.78 91.1249 195.004 91.2107 195.212C91.2965 195.421 91.4227 195.61 91.5819 195.77C91.7412 195.929 91.9304 196.056 92.1387 196.142C92.347 196.229 92.5703 196.273 92.7957 196.272H123.692C123.918 196.274 124.142 196.23 124.351 196.144C124.56 196.058 124.75 195.932 124.91 195.772C125.07 195.613 125.197 195.423 125.283 195.214C125.369 195.005 125.413 194.781 125.413 194.555V194.554Z" fill="#E3E3FE"/>
<path fill-rule="evenodd" clip-rule="evenodd" d="M177.918 162.844C177.918 161.471 177.371 160.154 176.4 159.184C175.429 158.213 174.112 157.668 172.739 157.669H136.991C136.312 157.669 135.639 157.803 135.012 158.063C134.384 158.323 133.814 158.704 133.334 159.185C132.853 159.666 132.473 160.236 132.213 160.864C131.953 161.492 131.82 162.165 131.821 162.844V162.845C131.82 163.525 131.953 164.198 132.213 164.825C132.473 165.453 132.853 166.024 133.334 166.504C133.814 166.985 134.384 167.366 135.012 167.626C135.639 167.886 136.312 168.02 136.991 168.02H172.739C174.112 168.02 175.429 167.475 176.4 166.505C177.371 165.535 177.918 164.218 177.918 162.845V162.844Z" fill="#EFEFFE"/>
<path fill-rule="evenodd" clip-rule="evenodd" d="M123.265 218.524C123.265 218.069 123.084 217.632 122.763 217.31C122.441 216.988 122.005 216.807 121.55 216.806H91.8388C91.3836 216.807 90.9475 216.988 90.6259 217.31C90.3044 217.632 90.1238 218.069 90.1238 218.524V218.525C90.1238 218.98 90.3044 219.417 90.6259 219.739C90.9475 220.061 91.3837 220.242 91.8388 220.243H121.55C122.005 220.242 122.441 220.061 122.763 219.739C123.084 219.417 123.265 218.98 123.265 218.525L123.265 218.524ZM163.852 218.33C163.852 217.875 163.671 217.438 163.349 217.116C163.028 216.794 162.592 216.613 162.137 216.612H132.426C131.971 216.613 131.534 216.794 131.213 217.116C130.891 217.439 130.711 217.875 130.711 218.33V218.331C130.711 218.786 130.891 219.223 131.213 219.545C131.534 219.867 131.971 220.048 132.426 220.049H162.137C162.592 220.048 163.028 219.867 163.35 219.545C163.671 219.223 163.852 218.786 163.852 218.331L163.852 218.33ZM163.85 200.929C163.851 200.703 163.807 200.48 163.722 200.271C163.636 200.063 163.51 199.874 163.35 199.714C163.026 199.392 162.587 199.211 162.13 199.211H92.8035C92.3462 199.211 91.9075 199.392 91.583 199.714C91.4235 199.874 91.2973 200.063 91.2114 200.271C91.1256 200.48 91.0818 200.703 91.0828 200.929V200.93C91.0819 201.155 91.1256 201.379 91.2115 201.587C91.2973 201.796 91.4236 201.985 91.583 202.145C91.9075 202.467 92.3463 202.648 92.8035 202.648H162.13C162.587 202.647 163.026 202.467 163.35 202.145C163.51 201.985 163.636 201.796 163.722 201.587C163.807 201.379 163.851 201.155 163.85 200.93V200.929ZM123.265 224.899C123.265 224.444 123.084 224.007 122.763 223.685C122.441 223.363 122.005 223.182 121.55 223.181H91.8388C91.3837 223.182 90.9475 223.363 90.626 223.685C90.3044 224.007 90.1238 224.444 90.1238 224.899V224.9C90.1238 225.355 90.3044 225.792 90.6259 226.114C90.9475 226.436 91.3837 226.617 91.8388 226.618H121.55C122.005 226.617 122.441 226.436 122.763 226.114C123.084 225.792 123.265 225.355 123.265 224.9L123.265 224.899ZM163.852 224.705C163.852 224.25 163.671 223.814 163.349 223.492C163.028 223.169 162.592 222.988 162.137 222.987H132.426C131.971 222.988 131.534 223.169 131.213 223.492C130.891 223.814 130.711 224.25 130.711 224.705V224.707C130.711 225.162 130.891 225.598 131.213 225.92C131.534 226.242 131.971 226.423 132.426 226.424H162.137C162.592 226.423 163.028 226.242 163.35 225.92C163.671 225.598 163.852 225.162 163.852 224.707L163.852 224.705ZM163.85 207.691C163.851 207.465 163.807 207.242 163.722 207.033C163.636 206.825 163.51 206.636 163.35 206.476C163.026 206.154 162.587 205.973 162.13 205.973H92.8035C92.3462 205.973 91.9075 206.154 91.583 206.476C91.4235 206.636 91.2972 206.825 91.2114 207.033C91.1255 207.242 91.0818 207.465 91.0828 207.691V207.692C91.0819 207.917 91.1256 208.141 91.2115 208.349C91.2973 208.558 91.4236 208.747 91.583 208.907C91.9075 209.229 92.3463 209.41 92.8035 209.41H162.13C162.587 209.41 163.026 209.229 163.35 208.907C163.51 208.747 163.636 208.558 163.722 208.349C163.807 208.141 163.851 207.917 163.85 207.692V207.691ZM123.265 231.661C123.265 231.206 123.084 230.77 122.763 230.447C122.441 230.125 122.005 229.944 121.55 229.943H91.8388C91.3836 229.944 90.9475 230.125 90.6259 230.447C90.3044 230.77 90.1238 231.206 90.1238 231.661V231.662C90.1238 232.117 90.3044 232.554 90.6259 232.876C90.9475 233.198 91.3837 233.379 91.8388 233.38H121.55C122.005 233.379 122.441 233.198 122.763 232.876C123.084 232.554 123.265 232.117 123.265 231.662L123.265 231.661ZM163.852 231.467C163.852 231.012 163.671 230.576 163.349 230.254C163.028 229.931 162.592 229.75 162.137 229.749H132.426C131.971 229.75 131.534 229.932 131.213 230.254C130.891 230.576 130.711 231.012 130.711 231.467V231.469C130.711 231.924 130.891 232.36 131.213 232.682C131.534 233.004 131.971 233.185 132.426 233.186H162.137C162.592 233.185 163.028 233.004 163.35 232.682C163.671 232.36 163.852 231.924 163.852 231.469L163.852 231.467Z" fill="#E3E3FE"/>
<path fill-rule="evenodd" clip-rule="evenodd" d="M250.093 128.068C256.884 128.068 261.834 134.32 260.868 142.808C260.182 148.822 252.842 155.083 245.578 158.084C239.304 160.677 239.27 151.191 239.27 142.649C239.27 134.108 243.308 128.068 250.093 128.068Z" fill="url(#paint3_linear_336_4630)"/>
<path fill-rule="evenodd" clip-rule="evenodd" d="M244.914 173.206C251.443 188.333 207.698 236.796 193.115 235.552C178.529 234.302 157.403 165.719 157.403 165.719L151.257 157.669L167.47 159.721L166.341 161.922C166.341 161.922 189.206 201.727 195.421 204.708C198.51 206.191 206.565 181.826 223.663 172.138C242.307 161.583 241.18 164.554 244.914 173.206Z" fill="url(#paint4_linear_336_4630)"/>
<mask id="mask2_336_4630" style="mask-type:luminance" maskUnits="userSpaceOnUse" x="151" y="157" width="95" height="79">
<path d="M244.914 173.206C251.443 188.333 207.698 236.796 193.115 235.552C178.529 234.302 157.403 165.719 157.403 165.719L151.257 157.669L167.47 159.721L166.341 161.922C166.341 161.922 189.206 201.727 195.421 204.708C198.51 206.191 206.565 181.826 223.663 172.138C242.307 161.583 241.18 164.554 244.914 173.206Z" fill="white"/>
</mask>
<g mask="url(#mask2_336_4630)">
<path fill-rule="evenodd" clip-rule="evenodd" d="M204.114 183.31C208.929 182.616 216.902 183.915 219.634 188.373C221.2 190.928 220.686 193.97 221.434 196.766C223.1 202.998 228.908 208.987 235.755 208.739C244.136 208.443 246.856 197.231 248.444 190.86C250.573 182.283 252.681 171.281 245.499 164.458C244.216 163.238 242.743 162.272 241.16 161.495C239.059 160.471 236.817 159.768 234.508 159.41C231.627 158.948 228.625 158.928 225.747 159.445C221.017 160.302 216.618 162.709 212.959 165.777C208.217 169.768 204.761 174.688 202.017 180.206L204.114 183.31Z" fill="url(#paint5_linear_336_4630)"/>
</g>
<path fill-rule="evenodd" clip-rule="evenodd" d="M254.423 162.397C277.327 164.412 285.069 164.919 283.844 207.266C282.608 250.451 225.869 248.934 225.869 248.934C225.869 248.934 234.2 221.923 227.51 198.891C219.421 171.087 238.245 160.973 254.423 162.397Z" fill="url(#paint6_linear_336_4630)"/>
<path fill-rule="evenodd" clip-rule="evenodd" d="M198.43 152.169C198.43 150.167 197.634 148.248 196.219 146.832C194.804 145.417 192.884 144.621 190.882 144.62H147.95C145.948 144.62 144.028 145.416 142.612 146.831C141.196 148.247 140.401 150.167 140.401 152.17C140.401 154.172 141.196 156.092 142.612 157.508C144.028 158.924 145.948 159.719 147.95 159.719H190.882C192.884 159.718 194.804 158.922 196.219 157.506C197.635 156.091 198.43 154.171 198.43 152.169Z" fill="#ABDBFF"/>
<path d="M151.612 148.876V149.989C151.344 149.937 151.072 149.909 150.799 149.906C150.077 149.906 149.547 150.06 149.207 150.368C148.868 150.677 148.67 151.196 148.627 151.928H148.684C148.974 151.425 149.462 151.173 150.148 151.173C150.735 151.173 151.202 151.358 151.549 151.727C151.895 152.096 152.065 152.602 152.065 153.243C152.065 153.946 151.867 154.502 151.471 154.909C151.075 155.317 150.53 155.521 149.844 155.521C149.393 155.532 148.95 155.407 148.571 155.163C148.198 154.911 147.911 154.551 147.75 154.131C147.566 153.681 147.474 153.138 147.474 152.503C147.474 151.291 147.743 150.374 148.295 149.752C148.846 149.13 149.66 148.818 150.742 148.818C151.033 148.815 151.324 148.834 151.612 148.876ZM150.848 153.277C150.848 152.935 150.763 152.673 150.594 152.489C150.417 152.305 150.169 152.213 149.844 152.213C149.551 152.203 149.266 152.305 149.044 152.496C148.945 152.573 148.864 152.671 148.807 152.784C148.751 152.897 148.721 153.021 148.719 153.147C148.707 153.479 148.815 153.804 149.023 154.063C149.118 154.172 149.234 154.26 149.365 154.324C149.495 154.387 149.636 154.424 149.78 154.431C149.925 154.439 150.069 154.418 150.206 154.368C150.342 154.319 150.466 154.243 150.572 154.145C150.756 153.953 150.848 153.664 150.848 153.277ZM158.192 151.996V152.029C159.231 152.159 159.755 152.679 159.755 153.591C159.755 154.191 159.536 154.663 159.083 155.006C158.637 155.349 157.994 155.521 157.159 155.521C156.444 155.521 155.822 155.403 155.291 155.168V154.007C155.849 154.28 156.46 154.425 157.081 154.433C157.555 154.433 157.909 154.359 158.142 154.21C158.257 154.138 158.351 154.036 158.413 153.915C158.475 153.795 158.504 153.659 158.496 153.524C158.496 153.179 158.361 152.935 158.1 152.794C157.838 152.653 157.421 152.581 156.841 152.581H156.288V151.561H156.811C157.321 151.561 157.703 151.495 157.965 151.363C158.226 151.23 158.361 150.997 158.361 150.661C158.365 150.557 158.346 150.452 158.304 150.356C158.263 150.26 158.2 150.174 158.12 150.105C157.965 149.973 157.717 149.907 157.384 149.907C157.139 149.908 156.896 149.946 156.663 150.021C156.399 150.11 156.147 150.233 155.913 150.386L155.298 149.453C155.942 149.041 156.69 148.822 157.455 148.819C158.12 148.819 158.644 148.958 159.026 149.238C159.208 149.365 159.357 149.535 159.457 149.734C159.557 149.933 159.606 150.154 159.599 150.376C159.606 150.754 159.476 151.121 159.231 151.409C158.991 151.69 158.637 151.886 158.192 151.996ZM166.22 151.986C166.701 152.237 167.048 152.506 167.267 152.791C167.523 153.128 167.635 153.554 167.578 153.973C167.521 154.393 167.3 154.773 166.963 155.03C166.539 155.357 165.987 155.521 165.315 155.521C164.593 155.521 164.027 155.366 163.624 155.057C163.228 154.747 163.023 154.318 163.023 153.77C163.017 153.412 163.126 153.061 163.334 152.769C163.532 152.482 163.85 152.236 164.275 152.029C163.574 151.594 163.221 151.049 163.221 150.395C163.216 150.17 163.267 149.947 163.369 149.746C163.472 149.546 163.622 149.374 163.808 149.246C164.197 148.961 164.699 148.818 165.315 148.818C165.93 148.818 166.432 148.959 166.814 149.242C167 149.372 167.15 149.547 167.251 149.75C167.352 149.953 167.401 150.178 167.394 150.405C167.394 151.082 166.998 151.609 166.22 151.986ZM165.315 151.454C165.647 151.316 165.874 151.171 166.001 151.021C166.126 150.877 166.194 150.692 166.192 150.501C166.196 150.405 166.176 150.309 166.134 150.222C166.092 150.135 166.029 150.06 165.951 150.003C165.76 149.873 165.532 149.808 165.3 149.819C165.077 149.81 164.856 149.873 164.671 149.998C164.592 150.056 164.529 150.132 164.487 150.219C164.445 150.307 164.425 150.404 164.43 150.501C164.428 150.693 164.499 150.878 164.628 151.019C164.826 151.208 165.06 151.356 165.315 151.454V151.454ZM165.237 152.552C164.558 152.838 164.218 153.219 164.218 153.693C164.213 153.81 164.236 153.926 164.285 154.032C164.334 154.138 164.409 154.231 164.501 154.302C164.685 154.45 164.954 154.525 165.294 154.525C165.647 154.525 165.916 154.453 166.107 154.31C166.2 154.239 166.275 154.147 166.324 154.042C166.374 153.936 166.396 153.819 166.39 153.703C166.385 153.495 166.302 153.296 166.157 153.147C165.994 152.972 165.732 152.796 165.371 152.619L165.237 152.552ZM175.409 155.424H170.861V154.462L172.551 152.789C173.181 152.163 173.577 151.73 173.733 151.488C173.884 151.266 173.968 151.006 173.973 150.738C173.979 150.63 173.961 150.521 173.921 150.421C173.881 150.32 173.819 150.23 173.74 150.156C173.572 150.008 173.354 149.933 173.132 149.945C172.874 149.945 172.619 149.997 172.382 150.097C172.079 150.234 171.796 150.41 171.54 150.622L170.84 149.747C171.098 149.545 171.37 149.362 171.653 149.198C171.87 149.079 172.1 148.987 172.339 148.925C172.609 148.852 172.887 148.816 173.167 148.818C173.782 148.818 174.277 148.986 174.652 149.321C174.835 149.48 174.981 149.677 175.078 149.899C175.176 150.12 175.224 150.361 175.218 150.603C175.219 150.914 175.156 151.223 175.034 151.51C174.895 151.826 174.707 152.118 174.475 152.375C174.115 152.782 173.732 153.168 173.329 153.532L172.565 154.243V154.296H175.409L175.409 155.424ZM179.017 155.463V154.346C179.284 154.407 179.557 154.436 179.831 154.433C180.559 154.433 181.097 154.274 181.443 153.957C181.79 153.639 181.974 153.111 182.002 152.373H181.946C181.776 152.666 181.578 152.87 181.337 152.985C181.062 153.107 180.762 153.166 180.46 153.156C179.866 153.156 179.399 152.97 179.067 152.598C178.727 152.225 178.557 151.705 178.557 151.038C178.557 150.351 178.755 149.81 179.159 149.413C179.555 149.017 180.099 148.818 180.772 148.818C181.507 148.818 182.087 149.08 182.512 149.602C182.943 150.124 183.155 150.868 183.155 151.832C183.155 153.034 182.88 153.95 182.335 154.579C181.79 155.207 180.977 155.522 179.894 155.522C179.601 155.525 179.308 155.506 179.017 155.463ZM179.774 151.019C179.774 151.75 180.107 152.116 180.764 152.116C181.062 152.126 181.352 152.024 181.578 151.831C181.677 151.755 181.758 151.656 181.815 151.544C181.871 151.432 181.901 151.309 181.904 151.183C181.911 150.859 181.803 150.542 181.6 150.288C181.506 150.177 181.39 150.086 181.259 150.02C181.129 149.955 180.987 149.917 180.841 149.908C180.695 149.9 180.55 149.921 180.412 149.971C180.275 150.02 180.15 150.097 180.043 150.197C179.866 150.39 179.774 150.664 179.774 151.019ZM188.666 155.521C187.916 155.521 187.35 155.239 186.968 154.675C186.586 154.111 186.395 153.281 186.395 152.184C186.395 151.049 186.586 150.205 186.961 149.65C187.336 149.095 187.909 148.818 188.666 148.818C190.18 148.818 190.944 149.937 190.944 152.175C190.944 153.339 190.753 154.187 190.385 154.721C190.01 155.254 189.437 155.521 188.666 155.521ZM188.666 154.433C189.034 154.433 189.296 154.256 189.451 153.903C189.614 153.55 189.692 152.974 189.692 152.175C189.692 151.362 189.614 150.781 189.451 150.431C189.296 150.082 189.034 149.907 188.666 149.906C188.551 149.9 188.437 149.92 188.33 149.963C188.224 150.007 188.128 150.073 188.051 150.158C187.902 150.326 187.796 150.574 187.732 150.903C187.666 151.327 187.635 151.755 187.64 152.184C187.64 152.977 187.725 153.55 187.88 153.903C188.044 154.256 188.305 154.432 188.666 154.433Z" fill="#20238C"/>
<path fill-rule="evenodd" clip-rule="evenodd" d="M164.027 159.719C163.957 158.877 165.775 155.969 166.531 155.521C167.26 155.091 168.491 156.188 168.569 157.03C168.639 157.872 167.72 160.122 166.963 160.57C166.206 161.017 164.098 160.56 164.027 159.719Z" fill="#FB9C9A"/>
<path fill-rule="evenodd" clip-rule="evenodd" d="M250.812 128.068C250.812 128.068 252.297 131.352 251.222 133.939C250.939 134.622 250.274 135.12 249.736 135.615C248.357 136.868 246.624 137.536 245.132 138.601C244.686 138.914 243.738 139.52 243.795 140.171C243.872 140.93 245.365 140.573 245.775 140.451C247.388 139.968 248.662 139.397 249.532 140.711C250.416 142.052 249.709 145.351 248.796 147.586C248.633 147.982 247.898 149.661 248.739 149.829C249.284 149.936 249.765 149.304 250.062 148.949C250.918 147.906 251.145 144.348 251.994 143.294C252.39 142.806 252.998 142.249 253.564 143.13C255.304 145.848 253.55 148.646 251.612 149.578C249.277 150.705 248.98 156.389 248.98 156.389C248.98 156.389 254.045 157.975 255.615 153.9C258.396 154.868 263.666 154.204 263.63 148.846C268.625 146.775 270.917 138.937 266.234 136.225C266.913 135.895 267.33 134.93 267.514 134.261C269.431 127.504 261.529 119.925 254.087 124.163C252.446 125.097 251.25 126.301 250.812 128.068Z" fill="url(#paint7_linear_336_4630)"/>
<path d="M180.825 289.613C194.821 289.613 206.167 278.267 206.167 264.271C206.167 250.275 194.821 238.929 180.825 238.929C166.829 238.929 155.483 250.275 155.483 264.271C155.483 278.267 166.829 289.613 180.825 289.613Z" fill="url(#paint8_linear_336_4630)"/>
<path fill-rule="evenodd" clip-rule="evenodd" d="M165.978 266.484L174.367 276.947C174.712 277.377 175.152 277.72 175.652 277.949C176.152 278.179 176.699 278.289 177.25 278.27C177.8 278.251 178.338 278.104 178.821 277.84C179.305 277.577 179.72 277.204 180.034 276.752L195.703 254.173C196.238 253.402 196.444 252.45 196.277 251.527C196.11 250.603 195.583 249.784 194.812 249.249C194.041 248.714 193.089 248.508 192.165 248.675C191.242 248.842 190.423 249.369 189.888 250.14L176.921 268.825L171.495 262.059C170.907 261.332 170.055 260.869 169.125 260.769C168.196 260.669 167.265 260.942 166.536 261.526C165.806 262.111 165.338 262.961 165.234 263.89C165.129 264.819 165.397 265.751 165.978 266.483V266.484Z" fill="white"/>
<path fill-rule="evenodd" clip-rule="evenodd" d="M272.695 167.231C289.106 168.672 313.045 226.469 302.95 242.43C292.849 258.39 229.133 260.038 212.113 262.993C199.182 274.289 193.897 260.237 195.75 260.219C203.985 260.136 203.765 253.532 203.765 253.532C203.765 253.532 203.9 252.84 201.572 250.031C204.14 248.224 209.877 253.44 209.877 253.44C209.877 253.44 271.329 229.801 276.904 225.748C279.677 223.734 262.367 205.063 261.659 185.424C261.419 178.692 263.307 166.407 272.695 167.231Z" fill="url(#paint9_linear_336_4630)"/>
<mask id="mask3_336_4630" style="mask-type:luminance" maskUnits="userSpaceOnUse" x="195" y="167" width="111" height="101">
<path d="M272.695 167.231C289.106 168.672 313.045 226.469 302.95 242.43C292.849 258.39 229.133 260.038 212.113 262.993C199.182 274.289 193.897 260.237 195.75 260.219C203.985 260.136 203.765 253.532 203.765 253.532C203.765 253.532 203.9 252.84 201.572 250.031C204.14 248.224 209.877 253.44 209.877 253.44C209.877 253.44 271.329 229.801 276.904 225.748C279.677 223.734 262.367 205.063 261.659 185.424C261.419 178.692 263.307 166.407 272.695 167.231Z" fill="white"/>
</mask>
<g mask="url(#mask3_336_4630)">
<path fill-rule="evenodd" clip-rule="evenodd" d="M262.204 207.934C263.88 203.367 268.811 196.968 274.032 196.682C277.024 196.517 279.457 198.415 282.273 199.085C288.548 200.58 296.577 198.313 299.612 192.17C303.332 184.655 294.759 176.935 289.906 172.511C283.37 166.563 274.69 159.482 265.274 162.561C263.591 163.111 262.041 163.948 260.605 164.972C258.707 166.334 257.023 167.973 255.611 169.835C253.836 172.151 252.392 174.783 251.48 177.561C249.987 182.131 250.016 187.145 250.978 191.822C252.237 197.89 254.925 203.268 258.476 208.305L262.204 207.934Z" fill="url(#paint10_linear_336_4630)"/>
</g>
<defs>
<linearGradient id="paint0_linear_336_4630" x1="37.0564" y1="173.256" x2="110.554" y2="173.256" gradientUnits="userSpaceOnUse">
<stop stop-color="#088395"/>
<stop offset="1" stop-color="white"/>
</linearGradient>
<linearGradient id="paint1_linear_336_4630" x1="113.628" y1="162.019" x2="100.104" y2="186.44" gradientUnits="userSpaceOnUse">
<stop stop-color="#AADBFF"/>
<stop offset="1" stop-color="#37B7C3"/>
</linearGradient>
<linearGradient id="paint2_linear_336_4630" x1="120.498" y1="142.838" x2="106.216" y2="171.027" gradientUnits="userSpaceOnUse">
<stop stop-color="#AADBFF"/>
<stop offset="1" stop-color="#37B7C3"/>
</linearGradient>
<linearGradient id="paint3_linear_336_4630" x1="241.198" y1="131.444" x2="259.749" y2="159.549" gradientUnits="userSpaceOnUse">
<stop stop-color="#FB9C9A"/>
<stop offset="0.64" stop-color="#FC8886"/>
<stop offset="0.84" stop-color="#FD5450"/>
<stop offset="1" stop-color="#FF1712"/>
</linearGradient>
<linearGradient id="paint4_linear_336_4630" x1="198.134" y1="173.154" x2="234.261" y2="234.884" gradientUnits="userSpaceOnUse">
<stop stop-color="#FB9C9A"/>
<stop offset="0.63" stop-color="#FC8784"/>
<stop offset="0.83" stop-color="#FD524E"/>
<stop offset="1" stop-color="#FF1712"/>
</linearGradient>
<linearGradient id="paint5_linear_336_4630" x1="223.852" y1="172.554" x2="241.909" y2="205.491" gradientUnits="userSpaceOnUse">
<stop stop-color="#119FB4"/>
<stop offset="0.54" stop-color="#37B7C3"/>
<stop offset="1" stop-color="#088395"/>
</linearGradient>
<linearGradient id="paint6_linear_336_4630" x1="229.724" y1="176.783" x2="272.959" y2="238.546" gradientUnits="userSpaceOnUse">
<stop stop-color="#119FB4"/>
<stop offset="0.51" stop-color="#37B7C3"/>
<stop offset="1" stop-color="#088395"/>
</linearGradient>
<linearGradient id="paint7_linear_336_4630" x1="249.23" y1="154.519" x2="266.163" y2="122.405" gradientUnits="userSpaceOnUse">
<stop/>
<stop offset="1" stop-color="#4D4D4D"/>
</linearGradient>
<linearGradient id="paint8_linear_336_4630" x1="191.017" y1="240.059" x2="166.321" y2="298.871" gradientUnits="userSpaceOnUse">
<stop stop-color="#AADBFF"/>
<stop offset="0.6" stop-color="#92D1FF"/>
<stop offset="0.81" stop-color="#5BB9FF"/>
<stop offset="1" stop-color="#22A1FF"/>
</linearGradient>
<linearGradient id="paint9_linear_336_4630" x1="248.921" y1="233.886" x2="256.078" y2="281.463" gradientUnits="userSpaceOnUse">
<stop stop-color="#FB9C9A"/>
<stop offset="0.47" stop-color="#FC7875"/>
<stop offset="1" stop-color="#FF1712"/>
</linearGradient>
<linearGradient id="paint10_linear_336_4630" x1="281.254" y1="166.723" x2="266.897" y2="213.201" gradientUnits="userSpaceOnUse">
<stop stop-color="#119FB4"/>
<stop offset="0.49" stop-color="#37B7C3"/>
<stop offset="1" stop-color="#088395"/>
</linearGradient>
</defs>
</svg>
