<svg width="343" height="343" viewBox="0 0 343 343" fill="none" xmlns="http://www.w3.org/2000/svg">
<path fill-rule="evenodd" clip-rule="evenodd" d="M164.435 72.8216C303.999 69.1713 317.323 171.782 288.023 172.616C231.4 174.227 227.674 205.333 190.36 239.782C130.092 295.426 59.1708 298.603 63.402 153.543C65.1806 92.6619 107.806 74.3024 164.435 72.8216Z" fill="#D5F4F7"/>
<path fill-rule="evenodd" clip-rule="evenodd" d="M261.291 186.19C301.619 177.185 309.378 195.312 300.914 197.215C284.558 200.893 286.786 206.576 275.389 215.668C258.755 228.938 239.564 223.742 235.062 207.108C232.064 196.026 244.928 189.844 261.291 186.19Z" fill="#E4F7F9"/>
<path d="M247.369 226.878C244.705 226.107 242.318 225.357 239.839 224.323C236.614 223.055 233.778 220.94 230.629 219.522C227.63 218.081 224.356 217.503 221.232 216.422C219.52 215.905 217.672 214.963 215.762 214.403C216.443 214.21 217.153 214.002 217.855 213.817C218.292 213.716 218.737 213.592 219.152 213.484C219.774 213.796 220.411 214.075 221.061 214.321C222.494 214.893 223.963 215.426 225.466 215.795C228.926 216.589 232.448 217.203 236.033 217.36C239.813 217.433 243.4 216.356 247.002 216.191C248.197 216.151 249.423 216.298 250.545 216.334C250.737 216.325 250.984 216.158 250.962 215.949C250.8 215.666 250.404 215.579 250.14 215.387C247.585 213.823 244.783 212.702 241.774 212.517C238.001 212.22 234.273 213.021 230.716 212.168C229.775 211.993 228.846 211.756 227.936 211.458C229.263 210.834 230.598 210.187 231.885 209.473C234.054 208.258 236.056 206.708 238.111 205.277C241.098 203.135 244.262 201.231 246.983 198.695C247.384 198.355 248.359 197.382 247.282 197.488C245.891 197.889 244.524 198.424 243.114 198.742C234.766 199.937 227.061 203.9 221.234 209.996C220.411 210.871 219.623 211.782 218.967 212.79C218.92 212.847 218.883 212.91 218.855 212.978C217.5 213.341 216.18 213.741 214.831 214.156C214.781 214.164 214.752 214.179 214.702 214.187C214.2 214.341 213.698 214.495 213.217 214.656C213.575 214.099 213.956 213.475 214.257 213.151C215.195 212.014 216.092 211.468 217.181 210.509C219.826 208.123 222.148 205.171 223.423 201.757C224.604 198.687 225.899 196.036 227.766 193.305C228.656 190.664 218.42 200.781 217.929 201.242C215.612 203.363 214.109 206.27 212.884 209.198C212.304 210.736 211.839 212.491 211.139 213.761C210.834 214.436 210.355 215.001 209.995 215.633C209.993 215.668 209.997 215.703 210.006 215.737C208.936 216.098 207.871 216.511 206.814 216.901C206.786 216.916 206.764 216.909 206.736 216.924C206.247 217.108 205.758 217.292 205.282 217.505C205.305 217.437 205.308 217.363 205.331 217.295C205.427 216.916 205.569 216.551 205.755 216.207C207.916 212.695 210.668 209.591 213.003 206.19C214.237 204.399 215.466 202.556 216.267 200.515C216.852 199.029 217.137 197.112 217.758 195.865C218.525 194.467 219.446 193.172 220.38 191.908C220.507 191.675 221.424 190.732 221.661 190.184C221.781 189.293 220.545 190.202 220.193 190.331C216.994 192.198 214.165 194.773 211.891 197.792C210.378 199.637 208.913 201.549 207.894 203.742C206.025 207.505 205.287 212.164 203.566 215.702C203.053 216.73 202.425 217.696 201.695 218.583C201.541 218.756 201.586 218.898 201.713 218.942C200.351 219.529 199.024 220.153 197.69 220.8C198.029 218.725 199.288 216.59 200.458 214.576C201.837 212.231 203.041 209.774 204.225 207.311C205.009 205.591 205.738 203.827 206.121 201.969C206.62 199.092 206.685 196.241 207.348 193.573C207.568 192.71 207.853 191.865 208.199 191.045C208.332 190.662 208.606 190.278 208.512 189.868C208.419 189.659 208.132 189.736 207.972 189.857C207.576 190.25 207.318 190.79 206.957 191.22C205.818 192.665 204.299 194.735 203.138 196.45C200.754 200.061 198.582 203.947 197.571 208.234C196.821 211.427 196.828 214.957 196.197 217.94C195.99 219.153 195.796 220.397 195.222 221.509C195.207 221.554 195.155 221.636 195.162 221.614C195.116 221.749 194.969 221.9 195.014 222.042C195.019 222.053 195.027 222.063 195.037 222.07C195.046 222.078 195.058 222.083 195.07 222.086C193.286 223.006 191.542 224.015 189.812 225.055C189.834 224.785 189.793 224.494 189.866 224.217C189.91 223.678 190.156 222.83 190.385 222.103C190.992 220.347 191.914 218.776 192.603 216.923C194.092 213.507 194.192 209.736 194.529 206.097C194.856 202.078 194.528 198.108 194.493 194.114C194.508 193.441 194.56 192.769 194.646 192.1L194.669 192.033C194.821 191.358 194.939 190.675 195.022 189.988C195.074 189.703 194.736 189.586 194.539 189.745C194.25 189.897 194.289 190.263 194.217 190.541C194.109 191.058 194.051 191.567 193.993 192.076C193.555 194.092 192.878 196.252 192.222 198.217C190.981 201.391 189.277 204.405 188.472 207.756C187.761 210.56 187.971 213.505 188.399 216.299C188.675 217.755 189.012 218.83 188.909 220.357C188.908 221.793 188.806 223.043 188.47 224.288C188.312 224.813 188.12 225.3 187.919 225.811C187.909 225.842 187.906 225.875 187.911 225.908C187.917 225.94 187.93 225.971 187.949 225.997C187.972 226.018 187.999 226.034 188.028 226.044C188.057 226.054 188.088 226.058 188.118 226.056C186.898 226.79 185.685 227.539 184.482 228.301C184.746 227.879 184.972 227.434 185.155 226.971C185.957 225.131 186.202 223.125 186.461 221.148C186.799 218.669 186.868 216.147 186.387 213.713C186.029 211.674 185.326 209.742 184.861 207.741C184.35 205.394 184.093 202.999 184.095 200.597C184.101 200.466 184.114 200.336 184.136 200.207C184.21 199.855 184.277 199.525 184.323 199.188C183.791 198.677 183.56 199.277 183.465 200.303C182.987 202.708 182.092 205.498 181.852 208.036C181.583 211.748 182.01 215.5 182.805 219.076C183.234 221.115 184.223 222.97 184.257 224.922C184.278 226.088 183.967 226.989 183.596 228.196C183.563 228.361 183.401 228.557 183.531 228.728L183.573 228.742C183.554 228.787 183.545 228.836 183.547 228.885C178.058 232.454 172.803 236.507 168.152 241.274C167.578 241.907 166.976 242.555 166.437 243.225C166.322 243.488 166.639 243.598 166.841 243.491C167.528 242.872 168.072 242.052 168.745 241.403C173.997 236.063 179.953 231.622 186.349 227.687C188.388 229.375 189.919 231.644 191.885 233.408C195.702 236.72 200.814 237.657 205.288 239.684C205.739 239.815 206.457 240.265 206.781 239.672C206.794 239.632 206.795 239.59 206.783 239.55C206.772 239.51 206.749 239.474 206.717 239.448C206.431 239.248 206.122 239.116 205.821 238.961C204.042 238.094 202.725 236.983 201.29 235.528C200.787 235.002 200.276 234.497 199.757 234.015C200.489 234.495 201.258 234.938 202.027 235.38C204.399 236.856 207.348 237.827 209.772 238.54C212.189 239.463 214.42 240.815 216.356 242.531C216.802 242.812 217.213 243.332 217.737 243.388C218.569 243.171 217.855 242.571 217.545 242.237C214.954 239.753 212.716 236.862 209.874 234.694C208.225 233.518 206.664 232.701 205.188 231.434C203.589 230.251 202.228 228.721 200.539 227.658C198.368 226.352 195.809 226.096 193.692 225.112C193.082 224.825 192.63 224.492 192.178 224.159C193.77 223.249 195.346 222.383 196.977 221.561L198.12 222.562C200.198 224.616 202.608 226.257 205.101 227.725C207.043 228.875 209.198 229.545 211.035 230.862C215.055 233.588 218.344 238.154 222.619 240.893C223.699 241.595 224.728 242.379 225.824 243.036C226.273 243.242 226.905 243.737 227.34 243.233C227.514 242.865 227.044 242.652 226.859 242.436C226.237 241.843 225.594 241.242 225.045 240.574C222.228 237.104 219.684 233.325 216.206 230.534C212.525 227.446 208.652 224.568 204.327 222.517C202.73 221.738 201.116 220.801 199.291 220.749C199.082 220.75 198.873 220.737 198.666 220.709C200.203 219.956 201.788 219.269 203.407 218.62C203.904 218.414 204.393 218.23 204.89 218.024C205.808 218.922 206.381 220.204 207.467 220.957C211.075 223.643 215.073 225.681 219.266 227.157C225.854 229.563 232.33 232.636 239.415 233.198C239.997 233.223 240.602 233.457 241.183 233.28C242.002 232.757 240.552 232.507 240.23 232.345C239.035 231.906 238.188 231.689 236.953 231.161C235.595 230.439 234.298 229.612 232.972 228.8C229.503 226.668 226.044 224.437 222.265 222.928C218.315 221.435 214.474 220.584 210.727 218.708C209.605 218.194 208.52 217.642 207.458 217.022C209.364 216.296 211.254 215.614 213.192 215C213.256 215.224 213.628 215.378 213.779 215.556C215.131 216.704 216.796 217.356 218.32 218.211C220.708 219.642 222.961 221.329 225.477 222.527C229.401 224.163 233.206 225.53 237.437 226.414C240.093 227.005 242.798 227.589 245.55 227.558C246.006 227.742 248.094 227.583 247.369 226.878ZM190.827 225.129C190.84 225.158 190.861 225.166 190.874 225.196C190.888 225.225 191.256 225.731 191.126 225.56C191.786 226.796 192.692 227.866 193.614 228.891C193.778 229.099 193.95 229.284 194.122 229.47C192.52 228.447 190.761 227.693 188.915 227.239C188.506 227.123 188.181 227.036 187.865 226.926C188.836 226.305 189.821 225.713 190.827 225.129Z" fill="url(#paint0_linear_336_5384)"/>
<path d="M220.396 167.966C217.793 169.866 215.415 171.542 212.755 173.172C209.353 175.327 205.608 176.789 202.151 178.815C198.789 180.705 195.868 183.2 192.682 185.351C190.993 186.562 188.881 187.704 187.01 189.063C187.383 188.408 187.766 187.722 188.16 187.053C188.415 186.643 188.66 186.216 188.895 185.821C189.606 185.435 190.295 185.017 190.973 184.583C192.491 183.629 194.009 182.628 195.428 181.528C198.652 178.971 201.789 176.283 204.63 173.344C207.556 170.206 209.471 166.73 212.083 163.637C212.961 162.617 214.002 161.653 214.881 160.728C215.021 160.563 215.083 160.283 214.909 160.211C214.573 160.224 214.207 160.519 213.862 160.657C210.746 162.121 207.774 163.985 205.351 166.429C202.261 169.464 200.032 172.938 196.689 175.552C195.937 176.202 194.937 176.948 194.044 177.575C194.582 176.191 195.11 174.791 195.551 173.402C196.285 171.056 196.64 168.704 197.125 166.36C197.784 162.926 198.756 159.447 198.916 156.065C198.965 155.581 198.974 154.341 198.236 155.29C197.481 156.631 196.845 158.009 196.013 159.33C190.703 166.64 187.678 174.923 187.854 182.562C187.886 183.631 187.973 184.688 188.233 185.675C188.239 185.736 188.258 185.796 188.289 185.85C187.533 187.144 186.831 188.424 186.118 189.736C186.086 189.781 186.075 189.812 186.043 189.857C185.778 190.345 185.512 190.833 185.267 191.307C185.121 190.765 184.941 190.175 184.926 189.781C184.783 188.502 185.055 187.512 185.16 186.183C185.376 182.929 184.92 179.702 183.323 177.151C181.912 174.83 180.903 172.593 180.268 169.843C178.959 167.951 178.789 180.924 178.763 181.535C178.597 184.399 179.642 186.92 180.911 189.218C181.628 190.372 182.593 191.523 183.016 192.661C183.293 193.209 183.354 193.856 183.555 194.432C183.598 194.45 183.609 194.467 183.642 194.468C183.1 195.522 182.602 196.594 182.092 197.65C182.082 197.68 182.06 197.695 182.05 197.726C181.816 198.215 181.583 198.705 181.382 199.197C181.349 199.148 181.294 199.113 181.261 199.065C181.049 198.82 180.881 198.54 180.765 198.237C179.767 194.902 179.523 191.247 178.74 187.813C178.332 186.002 177.879 184.172 176.953 182.615C176.28 181.479 175.056 180.408 174.59 179.347C174.122 178.097 173.848 176.763 173.607 175.432C173.529 175.223 173.517 174.045 173.285 173.609C172.705 173.122 172.449 174.553 172.279 174.905C171.253 178.397 171.04 181.886 171.582 185.102C171.82 187.172 172.145 189.23 173.019 191.036C174.429 194.237 177.371 196.876 178.723 199.854C179.111 200.751 179.362 201.701 179.467 202.673C179.48 202.878 179.622 202.901 179.75 202.814C179.158 204.21 178.619 205.594 178.092 206.994C176.79 205.809 176.141 203.827 175.516 201.972C174.8 199.798 173.868 197.723 172.915 195.662C172.218 194.258 171.445 192.882 170.339 191.755C168.556 190.088 166.462 188.797 164.96 187.084C164.479 186.526 164.059 185.919 163.706 185.273C163.519 184.996 163.439 184.599 163.059 184.5C162.831 184.488 162.672 184.762 162.641 184.949C162.635 185.451 162.846 185.902 162.894 186.391C163.116 187.973 163.518 190.145 163.926 191.863C164.829 195.428 166.1 198.935 168.556 201.643C170.386 203.657 173.045 205.182 174.809 207.005C175.563 207.705 176.351 208.407 176.751 209.37C176.773 209.403 176.796 209.483 176.785 209.466C176.851 209.564 176.853 209.753 176.994 209.776C177.021 209.776 177.048 209.767 177.069 209.749C176.406 211.644 175.84 213.544 175.307 215.446C175.122 215.311 174.872 215.219 174.718 215.038C174.347 214.766 173.897 214.192 173.523 213.686C172.665 212.415 172.184 210.96 171.314 209.578C169.877 206.847 167.118 205.128 164.639 203.267C161.866 201.249 158.633 199.802 155.603 198.1C155.114 197.798 154.647 197.464 154.205 197.098L154.172 197.049C153.777 196.625 153.353 196.23 152.903 195.865C152.728 195.699 152.383 195.932 152.353 196.166C152.248 196.474 152.553 196.6 152.706 196.781C153.016 197.086 153.345 197.372 153.69 197.635C154.874 198.877 155.983 200.381 156.962 201.784C158.406 204.201 159.377 206.938 161.285 209.067C162.853 210.879 165.226 211.98 167.652 212.834C168.956 213.234 170.02 213.417 171.089 214.166C172.169 214.79 173.031 215.417 173.711 216.239C173.975 216.599 174.218 216.973 174.438 217.361C174.457 217.385 174.483 217.403 174.512 217.412C174.54 217.422 174.571 217.424 174.601 217.417C174.668 217.396 174.728 217.355 174.773 217.301C174.399 218.638 174.041 219.979 173.698 221.325C173.585 220.925 173.42 220.541 173.21 220.183C172.436 218.713 171.114 217.637 169.824 216.562C168.217 215.204 166.374 214.052 164.179 213.399C162.374 212.815 160.388 212.566 158.53 212.089C156.449 211.529 154.448 210.703 152.578 209.632C152.485 209.571 152.397 209.504 152.316 209.429C152.118 209.219 151.91 209.019 151.692 208.83C150.903 209.054 151.179 209.509 151.878 210.033C153.323 211.477 154.741 213.437 156.466 214.74C159.053 216.576 162.198 217.845 165.49 218.729C167.349 219.254 169.494 219.229 170.987 220.047C171.88 220.535 172.32 221.187 172.947 222.022C173.045 222.121 173.069 222.342 173.296 222.307L173.339 222.278C173.359 222.315 173.39 222.344 173.427 222.362C171.941 228.514 170.996 234.679 171.047 240.648C171.087 241.403 171.117 242.19 171.211 242.933C171.321 243.143 171.644 242.925 171.718 242.709C171.774 241.864 171.571 241.053 171.595 240.206C171.569 233.486 172.755 226.564 174.654 219.492C177.472 218.515 180.341 218.215 183.16 217.332C188.549 215.567 193.136 211.686 198.058 208.813C198.499 208.492 199.384 208.084 199.183 207.555C199.156 207.526 199.121 207.506 199.082 207.498C199.043 207.49 199.002 207.495 198.966 207.512C198.599 207.665 198.265 207.867 197.921 208.053C195.917 209.169 194.081 209.791 191.898 210.364C191.12 210.557 190.353 210.767 189.596 210.993C190.513 210.587 191.43 210.135 192.346 209.682C195.258 208.332 198.227 206.28 200.604 204.556C203.094 202.948 205.784 201.674 208.606 200.766C209.156 200.513 209.859 200.394 210.299 199.978C210.768 199.187 209.774 199.526 209.288 199.641C205.452 200.736 201.579 201.359 197.791 202.802C195.654 203.675 193.855 204.63 191.781 205.318C189.677 206.146 187.493 206.624 185.411 207.579C182.78 208.834 180.645 210.869 178.296 212.218C177.697 212.55 177.073 212.836 176.43 213.074C176.954 211.344 177.5 209.647 178.122 207.922L179.742 207.398C182.865 206.546 185.929 205.237 188.926 203.782C191.266 202.653 193.406 201.136 195.791 200.166C200.894 197.978 206.824 197.2 212.131 194.803C213.479 194.201 214.85 193.678 216.176 193.044C216.672 192.756 217.525 192.442 217.475 191.858C217.331 191.552 216.814 191.854 216.511 191.916C215.593 192.18 214.653 192.459 213.734 192.629C208.986 193.486 204.212 193.981 199.473 195.687C194.354 197.435 189.25 199.435 184.424 202.172C182.624 203.174 180.694 204.121 179.269 205.63C179.109 205.807 178.941 205.976 178.765 206.136C179.366 204.52 180.053 202.893 180.795 201.254C181.017 200.748 181.251 200.258 181.473 199.752C182.845 199.371 184.244 199.447 185.636 198.863C190.395 197.001 194.964 194.532 199.258 191.657C206.071 187.175 213.3 183.076 219.104 177.378C219.565 176.9 220.2 176.495 220.508 175.931C220.737 175.017 219.449 176.125 219.082 176.325C217.844 177.137 217.038 177.753 215.703 178.559C214.129 179.385 212.522 180.114 210.904 180.874C206.666 182.858 202.363 184.792 198.358 187.306C194.235 189.972 190.677 192.825 186.421 195.153C185.182 195.871 183.943 196.542 182.671 197.164C183.572 195.25 184.496 193.369 185.506 191.477C185.723 191.52 186.121 191.275 186.37 191.226C188.26 190.59 190.014 189.477 191.815 188.569C194.705 187.187 197.684 186.03 200.495 184.439C204.706 181.857 208.623 179.259 212.503 176.094C214.964 174.124 217.457 172.108 219.525 169.787C220.01 169.483 221.476 167.663 220.396 167.966ZM176.134 214.628C176.166 214.63 176.188 214.615 176.22 214.617C176.253 214.619 176.913 214.529 176.686 214.564C178.116 214.547 179.608 214.251 181.078 213.923C181.36 213.875 181.63 213.811 181.9 213.747C179.897 214.658 178.007 215.799 176.268 217.147C175.87 217.44 175.558 217.674 175.235 217.892C175.506 216.808 175.809 215.725 176.134 214.628Z" fill="url(#paint1_linear_336_5384)"/>
<path d="M61.6046 228.34C61.1907 226.479 61.9256 224.343 63.2864 223.061L63.6907 222.721C63.3606 222.492 62.9808 222.259 62.7088 221.936C62.2059 221.392 61.9953 220.65 61.9831 219.923C62.0006 219.388 62.2041 218.875 62.5586 218.473C62.8637 218.125 63.2864 217.861 63.6596 217.594C64.2569 217.045 65.0356 216.713 65.7941 216.903C66.1722 215.711 67.1838 214.999 68.8624 215.244C70.1709 215.432 71.4606 216.419 71.4394 217.817C71.4969 218.597 71.1222 219.464 71.368 220.085C71.651 220.86 72.7353 221.329 73.1416 220.389C73.4811 219.643 73.1759 218.842 72.6089 218.168C71.4714 216.87 69.8744 215.681 70.4432 213.731C71.3815 210.687 76.461 210.052 77.8494 213.072C77.912 213.195 77.9595 213.325 77.9909 213.459C78.0179 213.437 78.0179 213.437 78.0675 213.441C78.0603 213.182 78.0911 212.924 78.1589 212.674C78.3366 212.064 78.632 211.54 78.6792 210.994C78.7491 210.475 78.5807 210.111 78.2634 209.734C77.6656 209.132 76.5941 208.514 76.4092 207.473C76.3217 207.041 76.4186 206.499 76.7875 206.281C77.1293 206.086 77.7248 206.138 77.8079 206.62C77.8361 206.872 77.6431 207.08 77.436 207.163C77.3324 207.204 77.1383 207.137 77.1511 206.988C77.1824 206.916 77.2859 206.875 77.3129 206.852L77.3668 206.807C77.5188 206.495 77.2835 206.324 76.9913 206.524C76.5514 206.986 76.7941 207.932 77.3696 208.507C77.6869 208.884 78.2837 209.211 78.6419 209.692C78.9096 210.065 79.1191 210.533 79.0535 211.002C78.9978 211.647 78.559 212.384 78.4891 212.903C78.4817 213.045 78.4612 213.185 78.4277 213.323C78.6833 213.224 78.9493 213.155 79.2206 213.116C80.4513 213.048 81.7439 213.71 82.3484 214.812C82.6818 215.371 82.9163 215.983 83.0417 216.622C83.6727 216.551 84.3889 216.363 85.0523 216.496C85.102 216.5 85.1743 216.531 85.2238 216.536C85.1375 216.378 85.0738 216.248 84.9874 216.09C83.2113 212.062 82.2635 207.705 80.4109 203.695C80.224 203.254 80.0102 202.836 79.8008 202.368C79.7469 202.413 79.666 202.481 79.6617 202.531C79.2218 202.993 78.7957 203.581 78.1747 203.827C77.8564 203.939 77.5146 203.966 77.1825 203.907C76.8504 203.847 76.5393 203.703 76.2796 203.488C75.9537 203.21 75.7583 202.868 75.4863 202.544C75.1237 202.113 74.6036 201.768 74.1019 201.5C73.3564 201.16 72.4804 200.885 72.0439 200.147C71.7125 199.643 71.5386 199.053 71.437 198.494C69.8968 198.961 68.2108 199.09 66.8901 198.176C66.7866 198.217 66.656 198.281 66.6518 198.33C66.0325 198.729 65.3753 199.065 64.6898 199.334C62.2501 200.373 59.5258 199.212 58.8787 196.582C58.8462 196.379 58.791 196.149 58.7586 195.947C57.5861 195.92 57.0679 194.975 56.7385 193.872C56.5915 193.259 56.6204 192.637 56.5004 192.002C56.4539 191.673 56.362 191.29 56.2745 190.857C55.4927 191.514 54.6011 192.862 53.466 192.114C51.7104 190.737 51.5538 187.924 52.8542 186.187C52.5893 186.104 52.3194 186.039 52.0461 185.992C51.8023 185.92 50.9189 186.019 50.4538 185.904C49.3935 185.737 49.5192 184.573 49.9536 183.886C50.6941 182.576 51.8245 181.529 53.1875 180.891C53.2641 180.873 53.3181 180.827 53.3946 180.809C53.3309 180.678 53.2715 180.498 53.2304 180.395C53.1385 180.014 53.1732 179.613 53.3293 179.253C54.2411 177.383 56.9308 177.79 58.8173 178.229C58.7308 177.719 58.7576 177.197 58.8957 176.699C59.0339 176.201 59.28 175.74 59.6166 175.348C60.7164 174.193 62.5293 173.175 64.0571 174.008C64.6917 173.613 65.4892 173.632 66.194 173.868C66.7444 174.042 67.262 174.307 67.7261 174.65C67.8211 174.708 67.889 174.789 67.9841 174.847C67.6007 173.789 67.2669 172.736 66.8566 171.7C66.7533 171.687 66.6592 171.634 66.5944 171.553C66.2079 170.819 65.7473 170.654 65.0783 170.297C63.8764 169.743 62.9195 169.535 61.5558 169.117C60.2148 168.726 58.905 168.262 57.5996 167.75C57.0744 168.329 56.4899 168.728 55.9734 169.209C55.5335 169.67 55.3784 170.307 55.1245 170.935C54.7224 171.825 54.1446 172.725 53.2354 173.121C52.5859 173.413 51.8648 173.507 51.1621 173.392C51.1126 173.387 51.0898 173.36 51.0629 173.383C51.0571 173.436 51.0353 173.487 51.0004 173.528C50.607 174.318 50.0647 175.097 49.259 175.452C48.5526 175.816 47.4027 175.816 46.817 175.94C45.848 176.157 45.2197 176.777 44.2156 177.115C43.3376 177.439 42.2913 177.398 41.4864 176.879C40.7494 176.44 40.3575 175.481 40.6289 174.655C40.7371 174.344 40.8975 174.054 41.1031 173.796C40.8177 173.583 40.5538 173.343 40.3154 173.078C39.6042 172.342 39.4463 171.278 40.1191 170.436C40.3972 170.11 40.9181 169.581 41.0431 169.291C41.5628 168.487 41.2246 167.482 41.4099 166.499C41.7329 165.077 42.8284 163.972 44.1292 163.384C43.584 162.462 44.0263 161.401 44.4732 160.564C44.7232 159.986 44.6982 159.409 44.425 158.81C44.1022 158.208 43.8432 157.735 44.2605 157.246C44.0705 157.13 43.9076 156.991 43.695 156.847C43.0347 156.39 42.5888 155.477 42.9056 154.704C43.0974 154.221 43.5018 153.881 43.8566 153.537C44.2692 153.061 44.5662 152.497 44.7243 151.887C44.8794 151.251 44.9665 150.533 45.4689 149.927C46.7391 148.537 49.4109 147.993 50.7211 149.606C51.3287 150.384 51.2937 151.656 52.2463 151.913C52.3474 151.93 52.451 151.922 52.5483 151.889C51.7863 150.873 51.3705 149.613 50.3261 148.972C49.5438 148.48 48.4637 147.961 47.8421 147.057C47.515 146.504 47.3583 145.716 47.6849 145.119C47.9759 144.644 48.5206 144.416 49.0199 144.135L49.1008 144.067C48.8105 143.774 48.5191 143.482 48.2267 143.191L48.1997 143.214C47.9562 143.384 47.6567 143.454 47.3629 143.41C47.0691 143.366 46.8034 143.211 46.6204 142.977C46.3937 142.707 46.2804 142.573 46.0452 142.403C45.9904 142.358 45.9216 142.334 45.851 142.336C45.5037 142.306 45.22 142.406 44.7963 142.394C43.5245 142.359 43.2392 141.035 43.749 140.054C43.9279 139.72 44.1975 139.493 44.4897 139.293C44.2858 139.051 44.0548 138.831 43.8509 138.588C43.797 138.633 43.6934 138.674 43.6395 138.72C43.001 139.164 42.7976 140.072 42.621 140.956C42.4487 141.791 41.9702 142.7 41.0965 142.974C39.9122 143.372 38.6154 142.76 37.8717 141.82C37.3774 141.177 37.0902 140.452 36.3716 140.09C36.1364 139.92 35.3553 139.702 34.9754 139.47C34.5413 139.227 34.2109 138.834 34.0463 138.364C33.9615 138.129 33.9237 137.879 33.9348 137.63L33.8808 137.675C33.5342 138.069 33.3023 138.55 33.2105 139.067C33.1363 139.635 33.3868 140.207 33.6275 140.603C34.0409 141.313 34.9064 142.288 34.2877 143.085C33.9513 143.505 33.4054 143.458 32.9276 143.492C32.9006 143.515 32.9276 143.492 32.9772 143.496C32.4044 143.472 31.9234 143.83 31.8625 144.25C31.8054 144.62 32.279 144.635 32.6252 144.391L32.733 144.3C32.8053 144.331 32.5841 144.287 32.5615 144.26C32.4212 144.148 32.5829 144.012 32.7318 144.025C32.9573 144.019 33.2691 144.171 33.1214 144.434C32.9468 144.718 32.5865 144.837 32.2845 144.861C31.3288 144.928 31.253 144.072 31.9226 143.555C32.4348 143.124 33.2968 143.274 33.6528 143.205C34.3463 142.99 34.1485 142.098 33.7945 141.567C33.1954 140.69 32.5143 139.606 32.9831 138.522C33.1707 138.088 33.3894 137.582 33.8349 137.346C33.8244 137.33 33.8104 137.316 33.794 137.306C33.7776 137.296 33.7591 137.29 33.74 137.288C33.4097 137.059 33.2695 136.947 32.9307 136.818C32.1851 136.478 30.8845 137.065 29.7021 136.863C28.4885 136.733 27.3697 135.511 27.7021 134.265C27.9467 133.461 28.6477 132.872 29.381 132.485C28.4628 131.831 27.2363 131.85 26.2629 130.966C25.5744 130.256 26.8083 129.863 27.3034 129.631C27.6948 129.44 28.5177 128.886 29.1671 128.892C29.2437 128.874 29.3159 128.905 29.3925 128.887L29.3699 128.86C29.319 128.58 29.2995 128.229 29.4968 127.971C30.3172 126.867 33.2052 127.292 34.4989 128.229L34.4763 128.202C34.1109 127.52 34.0019 126.73 34.1691 125.975C34.435 125.255 34.927 124.641 35.5714 124.223C36.2158 123.806 36.9781 123.608 37.7441 123.66L37.7937 123.665C37.5424 123.465 37.3021 123.253 37.0739 123.027C36.6842 122.679 36.2581 122.374 35.8028 122.117C34.2524 121.258 32.4065 120.924 31.0038 119.802C30.6779 119.524 30.2288 118.935 30.6376 118.546C30.9837 118.301 31.4487 118.416 31.8457 118.45C32.6581 118.595 33.6322 118.605 34.3796 118.345C35.2759 118.097 36.144 117.597 37.1096 117.706C37.2111 117.621 37.2962 117.518 37.3608 117.403C38.3384 116.213 39.9751 116.079 41.4313 116.005C42.4366 115.942 43.2564 115.713 44.0437 115.281C45.7488 114.354 47.3382 112.742 49.3899 112.719C49.8471 112.719 50.2975 112.83 50.7017 113.044C51.1059 113.257 51.4516 113.567 51.7086 113.945C52.3303 114.849 52.1374 116.207 51.0301 116.586C49.6969 116.97 49.0447 115.264 47.9431 114.994C47.8212 114.958 47.4512 114.901 47.2711 114.961C47.0328 115.045 46.8107 115.17 46.6143 115.329C46.3447 115.555 46.1204 115.836 45.8324 115.986C45.9004 116.067 45.9415 116.17 45.8251 116.36C45.4347 116.827 44.7584 116.843 44.259 117.125C43.6335 117.421 42.897 118.132 42.359 118.86C41.8793 119.493 41.4828 120.609 41.0397 121.396C40.6773 122.061 40.1752 122.64 39.5679 123.093C39.4543 123.181 39.3304 123.254 39.1991 123.311C39.2015 123.862 39.2309 124.389 39.2376 124.889C39.2645 124.867 39.3141 124.871 39.3411 124.848C39.5709 124.769 39.79 124.662 39.9935 124.53C40.6281 124.135 41.1798 123.533 41.9186 123.372C42.3511 123.284 42.8205 123.35 43.1733 123.605C43.5035 123.834 43.7938 124.234 43.8091 124.635C43.8978 125.343 43.4676 125.98 43.0914 126.573C42.9125 126.907 42.7832 127.246 42.8383 127.476C42.9104 127.657 43.05 127.804 43.2279 127.885C43.5213 127.96 43.8546 127.864 44.3367 127.781C44.4358 127.758 44.5375 127.75 44.6388 127.757L44.6559 127.558C44.6965 126.512 45.4642 125.728 46.5106 125.769C48.6929 125.683 50.2907 129.171 47.5014 129.629C47.0958 129.694 46.6406 129.755 46.2436 129.721C46.2848 129.988 46.3115 130.257 46.3238 130.527C46.4743 130.605 46.6093 130.71 46.7219 130.837C47.0888 131.218 47.1182 131.746 47.0752 132.242C47.0146 132.955 46.6795 133.616 46.1405 134.086C45.5205 134.607 44.7942 134.619 44.3459 135.18C44.153 135.389 44.0917 135.808 44.1425 136.088C44.2343 136.471 44.3984 136.885 44.4137 137.286C44.433 137.545 44.402 137.806 44.3223 138.053L45.0023 138.862L45.0831 138.794C45.6011 138.446 46.1006 138.072 46.5799 137.673C47.5317 136.781 48.1369 135.858 48.6636 134.679C48.7887 134.39 48.9137 134.101 49.0118 133.834C47.9797 131.895 49.9341 131.264 49.8264 129.33C49.8074 128.923 49.7589 128.518 49.6813 128.118C49.3898 127.735 49.2127 127.278 49.1706 126.799C49.1456 126.222 49.292 125.684 49.1095 125.194C48.954 124.68 48.6453 124.204 48.6925 123.658C48.7117 122.86 49.6444 122.765 50.2499 122.993C51.4194 123.344 52.3701 124.201 53.0102 125.181C53.4279 125.843 53.7152 126.567 53.7726 127.347C53.7683 127.397 53.791 127.424 53.764 127.446C54.05 127.391 54.3272 127.297 54.5881 127.168C54.6377 127.172 55.0917 126.836 55.317 126.831C55.6606 126.797 56.0055 126.88 56.2966 127.066C57.0207 127.653 57.2367 128.622 57.6146 129.455C58.2473 130.809 58.8714 132.263 58.6617 133.82C58.6488 133.969 58.6132 134.091 58.6003 134.239C58.9926 134.219 59.3855 134.261 59.7643 134.365C60.2973 134.561 60.826 134.807 61.1886 135.238C61.3393 135.486 61.4236 135.769 61.4335 136.058C61.4435 136.348 61.3786 136.636 61.2453 136.893C60.8563 137.635 60.2307 137.93 59.7325 138.487C59.0769 139.13 59.1044 140.258 58.5308 141.108C58.1278 141.723 57.6295 142.28 56.9954 142.675C56.9414 142.72 56.8378 142.761 56.784 142.806C56.8293 142.86 56.8476 142.937 56.893 142.991C57.0161 143.302 57.1575 143.689 57.2794 143.724C57.6948 143.835 58.3872 143.345 59.0776 143.455C60.1607 143.649 60.9993 144.646 61.0536 145.751C61.0443 146.725 60.3942 147.593 59.9868 148.258C59.8584 148.452 59.7562 148.661 59.6828 148.882C61.1319 149.182 62.4782 149.799 63.5918 150.795C64.2845 151.455 65.0638 152.272 65.0998 153.3C65.0322 154.369 63.8846 154.92 63.3608 155.774C63.1279 156.154 63.0451 156.822 63.1779 157.308C63.3634 158.25 63.68 159.161 64.1186 160.014C64.6055 161.032 65.2413 162.061 65.1652 163.23C65.1347 163.614 65.0258 163.988 64.8453 164.328C64.814 164.4 64.7557 164.495 64.7245 164.567C65.2935 165.791 65.8398 166.989 66.3548 168.258C67.2209 170.383 67.9606 172.521 68.723 174.687C68.7818 174.695 68.8414 174.691 68.8989 174.677C70.4767 174.639 72.5746 175.821 72.1179 177.631C72.035 178.112 71.8593 178.572 71.6006 178.986C71.5737 179.008 71.5424 179.081 71.5155 179.103C71.916 179.381 72.2743 179.715 72.5795 180.095C73.2876 181.156 73.4068 182.667 72.7848 183.788C72.6478 184.001 72.4965 184.205 72.332 184.398L72.2242 184.489C72.5297 185.29 72.8354 186.092 73.1675 186.87C74.56 186.666 74.952 187.625 75.7581 188.419C76.1477 188.828 76.5857 188.966 76.9007 188.793C77.3461 188.557 77.3933 188.011 77.2206 187.696C76.8127 187.211 75.9011 187.057 75.2279 186.748C74.6722 186.525 74.1337 186.104 73.8832 185.532C73.6412 184.863 73.6083 184.137 73.7889 183.449C73.9655 182.564 75.052 180.409 76.162 180.58C76.2619 180.171 76.476 179.799 76.7794 179.508C77.7585 178.593 79.3624 178.257 80.5515 178.96C80.8859 179.138 81.2161 179.367 81.4158 179.659C81.6356 180.037 81.7698 180.458 81.8089 180.893C81.8355 180.966 81.8374 181.045 81.8144 181.119C81.9725 181.112 82.1308 181.118 82.288 181.135C83.0011 181.271 83.9549 181.804 84.4652 181.973C85.0747 182.151 85.7429 182.234 86.2583 182.628C87.5208 183.637 87.6046 185.269 86.8618 186.63C86.7411 186.87 86.5977 187.082 86.4813 187.272C87.3216 187.67 88.1353 188.09 88.9757 188.488C90.5986 189.378 91.4196 190.574 90.7452 192.016C92.1113 192.984 93.071 194.892 92.1849 196.465C91.3203 197.79 89.5363 198.185 88.5982 199.204C88.1852 199.643 87.7949 200.109 87.2729 200.364C86.8407 200.54 86.3706 200.603 85.9073 200.546C85.8534 200.591 85.7952 200.686 85.7412 200.731C85.2291 201.162 84.5074 201.125 83.8976 200.947C82.9677 200.716 82.3276 199.736 81.5864 199.347C81.3695 199.253 81.0405 199.3 80.8291 199.431C80.4107 199.645 80.0106 199.936 79.5515 200.046C80.1247 201.221 80.6937 202.444 81.213 203.664C83.043 207.647 83.9412 211.999 85.7713 215.983C86.3544 217.333 87.2027 218.506 88.1416 219.787C88.1987 219.417 88.3053 219.052 88.5566 218.748C89.059 218.142 89.6931 217.747 90.024 217.101C90.4983 216.242 90.417 215.16 91.0359 214.364C92.1032 213.006 94.2515 213.317 95.3789 214.439C96.0079 214.969 96.2002 215.635 96.2394 216.339C97.4353 215.517 98.6766 214.75 100.114 214.599C101.327 214.454 102.862 214.912 103.359 216.105C103.548 217.096 102.848 217.961 102.45 218.801C102.155 219.325 102.009 219.863 101.885 220.427L101.934 220.431C102.976 220.521 104.045 220.589 105.1 220.53C106.151 220.521 107.349 220.25 108.326 220.809C108.995 221.167 109.35 221.973 109.015 222.669C108.277 224.255 106.156 224.796 104.528 224.83C102.779 224.828 101.407 224.785 100.028 225.99C99.5925 226.403 98.9197 227.244 98.3493 227.77C97.6668 228.436 96.9119 229.07 96.0255 229.493C95.9317 229.52 95.8433 229.563 95.7645 229.621C97.0294 231.18 98.29 232.789 99.447 234.439C99.6014 234.677 99.8054 234.92 99.9328 235.181C99.9695 235.334 99.7851 235.443 99.6319 235.48C99.1767 235.54 99.0169 235.077 98.8173 234.784C98.2636 233.961 97.6333 233.157 97.0257 232.38C95.0031 229.755 92.8684 227.27 90.8728 224.623C89.1534 222.249 87.2269 219.958 85.746 217.43C85.3998 217.675 85.0125 217.816 84.6891 218.088C84.2081 218.447 83.585 219.292 83.5743 219.992C83.4345 221.029 83.7144 222.129 84.1461 222.916C84.5822 223.653 85.0979 224.048 85.8509 224.014C85.9999 224.026 86.346 223.781 86.2368 223.597C86.1235 223.462 86.0512 223.431 85.8257 223.436C85.6996 223.451 85.5905 223.266 85.721 223.202C85.8515 223.139 85.9735 223.174 86.0996 223.16C86.6638 223.284 86.8917 223.829 86.3158 224.129C85.8164 224.411 85.1573 224.229 84.6779 223.987C83.6647 223.275 83.2263 221.987 83.1536 220.806C83.0887 220.251 83.1728 219.688 83.3972 219.176C83.6216 218.664 83.9783 218.221 84.4306 217.892C84.7499 217.67 85.0648 217.497 85.4066 217.302C84.7432 217.169 84.0227 217.407 83.1932 217.46C83.0174 217.47 82.8458 217.43 82.6701 217.44L82.7154 217.494C82.806 217.601 83.0921 218.051 83.1429 218.331C83.5642 219.817 81.8708 220.32 80.7166 220.37C79.5085 220.466 78.3972 220.019 77.4114 220.434C77.0352 220.562 76.687 220.761 76.3857 221.02C76.7429 221.226 77.1271 221.409 77.4842 221.615C78.6321 222.215 79.7716 222.913 80.4214 224.069C81.2073 225.387 81.6199 226.973 81.216 228.463C81.0039 229.469 80.4133 230.518 79.3778 230.928C78.5581 231.157 78.0068 230.885 77.63 230.327C77.8498 232.121 77.5162 234.242 76.2323 235.505C75.3028 236.425 73.8587 237.225 72.5622 236.613C71.9646 236.343 71.4627 235.899 71.1227 235.338C70.7318 234.654 70.6119 234.019 70.0281 233.544C69.6029 233.257 69.1747 233.295 68.6646 233.126C68.3526 233.001 68.0731 232.807 67.8477 232.558C67.6223 232.308 67.4569 232.011 67.3643 231.688C67.2908 231.382 67.24 231.102 67.1934 230.773C66.8105 230.865 66.4007 230.98 65.9185 231.063C64.9495 231.279 64.2207 230.466 63.4338 230.023C62.9632 229.682 61.852 229.236 61.6046 228.34ZM52.9867 166.75L53.0407 166.705C53.1668 166.691 53.252 166.573 53.3145 166.429C53.5228 166.067 53.6748 165.675 53.7652 165.268C53.9062 164.505 53.8303 163.649 53.3857 163.01C52.9411 162.372 52.2548 162.213 51.5712 162.603C51.0988 162.862 50.2293 163.087 50.3677 163.799C50.7456 164.631 51.654 165.11 52.1399 165.852C52.2861 166.023 52.4124 166.21 52.5165 166.409C52.6481 166.621 52.7259 166.878 52.9869 166.75H52.9867ZM51.6499 144.362C51.9409 143.887 52.7013 143.478 52.9935 143.278C53.3213 142.957 53.5498 142.627 53.6565 142.261C52.5667 141.566 51.0867 141.339 50.0727 141.501C49.5139 141.602 49.1959 142.1 48.8822 142.548C49.6883 143.342 50.4902 144.187 51.2693 145.004C51.3618 144.771 51.4903 144.555 51.65 144.362H51.6499ZM48.5896 144.772C47.7398 145.348 47.998 146.696 48.8126 147.391C49.4784 148.074 50.7429 148.483 51.4951 149.323C51.9753 149.84 52.2215 150.461 52.6208 151.045C52.7073 151.203 52.9112 151.445 53.0202 151.63C53.1214 151.553 53.2053 151.457 53.2666 151.346C53.3279 151.235 53.3653 151.112 53.3762 150.986C53.3871 150.859 53.3714 150.732 53.3301 150.612C53.2887 150.493 53.2227 150.383 53.1362 150.29C53.0238 150.147 52.8798 150.032 52.7154 149.954C52.8042 150.111 52.8573 150.287 52.871 150.467C52.8975 150.54 52.8994 150.619 52.8764 150.692C52.7912 150.81 52.4935 150.784 52.5063 150.636C52.4684 150.207 52.2137 149.685 51.7971 149.299C51.3028 148.657 49.6191 148.186 49.848 146.981C49.9406 146.489 50.2231 146.113 50.5735 145.819L50.7892 145.637C50.3543 145.175 49.9194 144.712 49.5072 144.277C49.2197 144.427 48.8595 144.545 48.5898 144.772L48.5896 144.772ZM35.2904 128.898C35.6144 129.775 35.5113 130.966 36.2482 131.405C36.4651 131.499 36.505 131.327 36.4401 130.922C36.4064 130.444 36.129 129.895 35.7663 129.464C35.6347 129.252 35.449 129.086 35.2904 128.898ZM53.8305 134.477C53.6094 134.433 53.2308 134.475 53.205 134.773C53.1663 135.219 53.1773 135.67 53.3684 136.062C53.4547 136.219 53.5098 136.449 53.7126 136.416L53.7396 136.394C53.758 136.47 53.8799 136.506 53.9564 136.488C54.1323 136.478 54.1721 136.306 54.2076 136.184C54.3412 135.796 54.4835 135.308 54.2923 134.917C54.2726 134.804 54.2171 134.7 54.1339 134.621C54.0508 134.542 53.9444 134.491 53.8305 134.477ZM61.2916 181.993C61.4881 182.609 62.1411 183.441 62.7366 183.492C63.4216 183.377 63.0241 182.192 62.5751 181.604C62.2891 181.154 61.6287 180.697 61.154 180.406C61.1563 180.956 61.1587 181.506 61.2916 181.993ZM71.6215 184.811C71.0682 185.139 70.3833 185.254 69.7607 185.225C69.801 186.204 69.7917 187.178 69.34 188.064C68.7493 189.112 67.481 189.903 66.5604 188.698C66.4244 188.536 66.3154 188.352 66.2021 188.217C65.693 188.323 65.1698 188.303 64.7826 188.444C63.8917 188.917 64.0864 190.134 65.0304 190.491C65.7078 190.749 66.4437 190.913 66.9693 191.483C67.2866 191.861 67.523 192.306 67.8673 192.661L67.9805 192.796L67.9849 192.746C67.9555 192.219 67.5421 191.508 67.5979 190.863C67.7678 189.478 69.0943 188.593 70.2191 188.015C70.8451 187.719 71.2663 187.181 71.9371 186.939C72.0904 186.902 72.2704 186.843 72.4236 186.806C72.1365 186.081 71.8677 185.433 71.6215 184.811ZM93.0582 226.237C93.2443 226.449 93.4169 226.673 93.5752 226.907L93.6745 226.915C93.9452 226.964 94.1934 226.985 94.3465 226.949C94.6755 226.902 95.2018 226.598 95.2276 226.3C95.2876 225.605 94.416 225.28 93.7666 225.274C93.6177 225.261 93.127 225.443 92.9691 225.53C92.8655 225.571 92.7847 225.639 92.6542 225.702C92.7753 225.891 92.9104 226.069 93.0582 226.237V226.237Z" fill="url(#paint2_linear_336_5384)"/>
<path fill-rule="evenodd" clip-rule="evenodd" d="M123.571 75.2928C123.708 75.0803 123.995 74.8274 124.32 74.5611C125.281 73.7788 126.654 72.9481 126.785 72.8594C128.869 71.4847 131.06 70.2236 133.163 68.8645C134.074 68.2722 134.973 67.6621 135.84 67.0153C136.121 66.8017 137.994 65.526 138.399 64.6152C138.5 64.4015 138.529 64.1606 138.48 63.9292C138.446 63.8053 138.387 63.69 138.305 63.5909C138.223 63.4917 138.121 63.411 138.006 63.3541C137.569 63.1162 136.964 63.0468 136.302 63.0974C135.06 63.1917 133.588 63.6914 132.832 63.8942C130.326 64.5786 127.857 65.3958 125.437 66.3423C123.003 67.2816 120.619 68.3168 118.273 69.3789C111.595 72.4047 105.017 75.6689 98.6512 79.215C92.1982 82.8128 85.9636 86.7022 80.0785 90.9348C77.3887 92.8653 74.4243 94.927 71.8718 97.2491C70.0744 98.8869 68.483 100.656 67.3284 102.595C67.2867 102.665 67.2593 102.743 67.2477 102.824C67.2361 102.906 67.2406 102.988 67.261 103.067C67.2813 103.147 67.3171 103.221 67.3662 103.287C67.4154 103.352 67.477 103.408 67.5474 103.449C67.6179 103.491 67.6959 103.518 67.777 103.53C67.8581 103.542 67.9407 103.537 68.02 103.517C68.0993 103.496 68.1739 103.461 68.2394 103.412C68.3049 103.362 68.3601 103.301 68.4019 103.23C69.4877 101.385 70.9915 99.7035 72.6894 98.14C75.192 95.8346 78.1064 93.7863 80.7463 91.8661C86.5815 87.6271 92.7599 83.7264 99.1569 80.1173C105.479 76.5529 112.019 73.2736 118.66 70.2279C120.981 69.1646 123.346 68.127 125.762 67.1853C128.15 66.2418 130.588 65.4261 133.063 64.7414C133.694 64.571 134.836 64.1781 135.909 64.0162C136.558 63.9177 137.176 63.8876 137.588 64.1124C137.707 64.176 137.613 64.2782 137.538 64.3954C137.365 64.6505 137.159 64.8819 136.926 65.0841C136.29 65.6715 135.497 66.2037 135.329 66.3323C134.48 66.9693 133.594 67.5708 132.701 68.1545C130.598 69.5195 128.414 70.7844 126.329 72.1639C126.155 72.2791 124.02 73.5838 123.147 74.5038C122.969 74.6792 122.827 74.8878 122.729 75.1177C122.597 75.4814 122.691 75.7654 123.022 75.9521C123.658 76.3024 124.782 76.3062 126.074 76.0888C128.42 75.6923 131.36 74.6302 132.452 74.3481C137.569 73.0337 142.687 71.7117 147.867 70.5922C151.293 69.8502 154.75 69.1982 158.245 68.693C170.546 66.9234 183.776 66.4865 196.839 67.5545C209.951 68.6274 222.894 71.2173 234.54 75.4796C234.617 75.5075 234.698 75.5199 234.78 75.5162C234.862 75.5124 234.942 75.4926 235.017 75.4578C235.091 75.423 235.157 75.374 235.213 75.3134C235.268 75.2529 235.311 75.1821 235.339 75.105C235.366 75.028 235.379 74.9462 235.375 74.8644C235.371 74.7825 235.351 74.7022 235.317 74.628C235.282 74.5538 235.233 74.4872 235.172 74.432C235.112 74.3768 235.041 74.334 234.964 74.3061C223.206 70.0725 210.144 67.534 196.92 66.5145C183.783 65.5026 170.477 65.9883 158.114 67.8179C154.607 68.336 151.131 69.0037 147.679 69.7575C142.5 70.8911 137.37 72.2211 132.246 73.5462C131.166 73.8259 128.258 74.8816 125.936 75.2732C124.963 75.4364 124.108 75.5037 123.571 75.2928ZM260.657 229.667C264.377 229.076 268.184 227.842 271.71 226.073C275.236 224.3 278.481 221.991 281.04 219.193C283.461 216.601 285.215 213.339 287.474 210.563C288.416 209.403 289.452 208.332 290.669 207.436C291.886 206.537 293.24 205.938 294.663 205.53C296.099 205.116 297.609 204.902 299.113 204.777C299.277 204.76 299.428 204.68 299.533 204.552C299.638 204.425 299.688 204.261 299.672 204.097C299.657 203.932 299.577 203.781 299.45 203.676C299.323 203.57 299.159 203.519 298.995 203.534C297.416 203.705 295.837 203.973 294.333 204.443C292.804 204.922 291.35 205.608 290.045 206.614C288.785 207.584 287.717 208.736 286.738 209.976C284.535 212.77 282.819 216.027 280.434 218.631C277.913 221.319 274.736 223.541 271.279 225.2C267.867 226.83 264.223 227.92 260.476 228.431C260.393 228.441 260.314 228.468 260.241 228.509C260.169 228.551 260.106 228.606 260.056 228.672C260.005 228.738 259.968 228.814 259.948 228.894C259.927 228.975 259.922 229.059 259.934 229.141C259.946 229.224 259.975 229.303 260.018 229.374C260.061 229.445 260.118 229.507 260.185 229.556C260.253 229.605 260.329 229.64 260.41 229.659C260.491 229.677 260.575 229.68 260.657 229.666L260.657 229.667Z" fill="#E1FBFE"/>
<path fill-rule="evenodd" clip-rule="evenodd" d="M158.28 174.923C164.543 190.564 186.04 215.413 205.353 215.41C233.251 215.411 263.115 142.353 263.115 142.353C274.391 134.675 267.488 124.013 262.393 115.074L254.631 134.234C254.631 134.234 221.049 181.202 206.575 179.087C192.1 176.975 175.83 122.251 167.781 121.557C159.732 120.862 152.018 159.279 158.28 174.923Z" fill="#FB9C9A"/>
<mask id="mask0_336_5384" style="mask-type:luminance" maskUnits="userSpaceOnUse" x="155" y="115" width="115" height="101">
<path d="M158.28 174.923C164.543 190.564 186.04 215.413 205.353 215.41C233.251 215.411 263.115 142.353 263.115 142.353C274.391 134.675 267.488 124.013 262.393 115.074L254.631 134.234C254.631 134.234 221.049 181.202 206.575 179.087C192.1 176.975 175.83 122.251 167.781 121.557C159.732 120.862 152.018 159.279 158.28 174.923Z" fill="white"/>
</mask>
<g mask="url(#mask0_336_5384)">
<path fill-rule="evenodd" clip-rule="evenodd" d="M239.84 136.11C225.081 117.066 216.256 89.9163 191.449 81.4433C174.043 75.4976 158.397 84.4932 148.537 98.8802C133.184 121.284 128.222 153.431 137.128 179.177C149.916 216.142 193.215 228.63 227.271 214.263C237.825 209.81 248.315 203.141 254.163 192.979C258.532 185.389 262.657 170.379 254.975 163.12C252.441 160.725 248.172 161.734 246 158.972C244.346 156.875 245.158 154.083 244.197 151.741C242.63 147.899 236.695 147.043 233.069 147.504L239.84 136.11Z" fill="url(#paint3_linear_336_5384)"/>
</g>
<path fill-rule="evenodd" clip-rule="evenodd" d="M155.782 194.84C164.715 183.977 178.334 137.278 171.37 124.172C164.406 111.067 127.479 97.0948 113.996 116.208C102.147 133.004 110.805 176.247 117.769 189.352C123.774 200.658 147.65 204.729 155.782 194.84Z" fill="url(#paint4_linear_336_5384)"/>
<path fill-rule="evenodd" clip-rule="evenodd" d="M152.937 136.451C152.467 135.207 151.523 134.201 150.311 133.654C149.1 133.106 147.72 133.062 146.476 133.531L76.0625 160.107C75.4468 160.339 74.883 160.691 74.4033 161.141C73.9235 161.592 73.5372 162.133 73.2664 162.732C72.9956 163.332 72.8455 163.979 72.8249 164.637C72.8042 165.295 72.9133 165.951 73.146 166.566L114.703 276.673C115.172 277.916 116.116 278.923 117.326 279.471C118.537 280.019 119.916 280.063 121.16 279.594L191.573 253.019C192.817 252.549 193.823 251.604 194.371 250.393C194.919 249.181 194.963 247.802 194.494 246.558L152.937 136.451Z" fill="white"/>
<path fill-rule="evenodd" clip-rule="evenodd" d="M99.7945 170.992C99.6715 170.667 99.4242 170.403 99.107 170.26C98.7898 170.116 98.4286 170.105 98.1028 170.228L85.9878 174.8C85.6622 174.923 85.3988 175.17 85.2555 175.488C85.1121 175.805 85.1006 176.166 85.2233 176.492L85.2238 176.493C85.3468 176.818 85.5941 177.082 85.9112 177.225C86.2284 177.369 86.5896 177.38 86.9153 177.257L99.0304 172.685C99.356 172.562 99.6194 172.315 99.7627 171.997C99.906 171.68 99.9176 171.319 99.7948 170.993L99.7945 170.992ZM97.8908 165.948C97.7677 165.623 97.5204 165.359 97.2033 165.216C96.8861 165.072 96.5249 165.061 96.1992 165.184L84.0841 169.756C83.7585 169.879 83.495 170.127 83.3517 170.444C83.2084 170.761 83.1969 171.122 83.3197 171.448V171.449C83.4427 171.774 83.69 172.038 84.0072 172.181C84.3244 172.325 84.6855 172.336 85.0112 172.213L97.1266 167.641C97.4522 167.518 97.7157 167.271 97.859 166.954C98.0023 166.636 98.0139 166.275 97.8911 165.95L97.8908 165.948Z" fill="#C3E8EE"/>
<path fill-rule="evenodd" clip-rule="evenodd" d="M152.727 135.895C152.523 135.352 152.213 134.855 151.816 134.432C151.419 134.009 150.943 133.668 150.414 133.429C149.885 133.191 149.315 133.058 148.735 133.04C148.155 133.021 147.577 133.117 147.035 133.322L75.5095 160.317C74.9667 160.522 74.4696 160.832 74.0465 161.229C73.6234 161.626 73.2826 162.102 73.0437 162.631C72.8047 163.159 72.6722 163.73 72.6537 164.31C72.6353 164.889 72.7312 165.467 72.9361 166.01V166.011C73.1409 166.554 73.4506 167.051 73.8476 167.474C74.2445 167.897 74.721 168.237 75.2496 168.476C75.7783 168.715 76.3488 168.848 76.9286 168.866C77.5084 168.884 78.0862 168.788 78.6289 168.583L150.154 141.588C150.697 141.383 151.194 141.074 151.617 140.677C152.04 140.28 152.381 139.804 152.62 139.275C152.859 138.746 152.991 138.176 153.01 137.596C153.028 137.016 152.932 136.438 152.727 135.896V135.895Z" fill="white"/>
<path fill-rule="evenodd" clip-rule="evenodd" d="M133.874 199.598C133.828 199.603 133.782 199.592 133.743 199.568C133.704 199.544 133.674 199.508 133.658 199.465L124.967 176.438C124.586 175.429 123.819 174.613 122.836 174.168C121.853 173.724 120.734 173.688 119.724 174.069L119.721 174.07C119.221 174.259 118.764 174.544 118.374 174.909C117.985 175.275 117.671 175.713 117.451 176.2C117.232 176.687 117.11 177.212 117.093 177.746C117.077 178.28 117.165 178.812 117.355 179.311L126.116 202.525V202.526L126.113 202.527L125.731 202.671C125.626 202.712 125.509 202.711 125.404 202.671C125.298 202.63 125.212 202.552 125.161 202.451C124.078 200.347 118.583 189.653 115.788 184.217C115.574 183.8 115.279 183.428 114.921 183.124C114.563 182.821 114.149 182.59 113.702 182.447C113.255 182.303 112.784 182.249 112.316 182.287C111.848 182.325 111.392 182.456 110.974 182.67C110.971 182.671 110.971 182.671 110.971 182.672C110.553 182.886 110.182 183.181 109.878 183.539C109.574 183.897 109.343 184.312 109.2 184.759C109.056 185.207 109.002 185.678 109.04 186.146C109.079 186.614 109.209 187.07 109.423 187.488C111.272 191.083 114.331 197.036 116.709 201.663C118.993 206.11 121.023 210.684 122.788 215.362C122.788 215.362 119.475 211.987 116.882 209.344C116.074 208.522 114.973 208.054 113.82 208.044C112.668 208.033 111.558 208.481 110.736 209.288V209.289C110.329 209.688 110.006 210.164 109.784 210.689C109.562 211.214 109.447 211.777 109.444 212.347C109.441 212.917 109.552 213.481 109.768 214.008C109.985 214.535 110.304 215.014 110.706 215.417C113.612 218.329 118.105 222.824 122.038 226.764C124.459 229.189 127.529 230.863 130.879 231.586C134.229 232.308 137.716 232.049 140.922 230.839C150.212 227.333 154.901 216.96 151.395 207.67L149.888 203.678C149.888 203.678 148.381 188.114 147.685 180.927C147.594 179.983 147.13 179.114 146.398 178.511C145.665 177.908 144.723 177.621 143.779 177.712V177.712C142.834 177.803 141.965 178.266 141.361 178.998C140.758 179.731 140.47 180.673 140.561 181.617C141.083 186.984 142.007 196.529 142.007 196.529L141.936 196.556C141.863 196.564 141.789 196.546 141.728 196.504C141.667 196.463 141.623 196.401 141.603 196.33C141.065 194.267 138.055 182.739 136.429 176.512C136.152 175.453 135.466 174.548 134.523 173.995C133.579 173.442 132.454 173.286 131.395 173.562L131.392 173.563C130.868 173.7 130.376 173.938 129.944 174.265C129.512 174.593 129.149 175.001 128.875 175.469C128.602 175.936 128.423 176.453 128.349 176.99C128.275 177.527 128.308 178.072 128.445 178.597C130.287 185.65 133.923 199.58 133.923 199.58L133.874 199.598Z" fill="url(#paint5_linear_336_5384)"/>
<path fill-rule="evenodd" clip-rule="evenodd" d="M179.546 228.095L182.673 236.38C183.14 237.617 183.096 238.988 182.551 240.193C182.007 241.398 181.006 242.337 179.77 242.804L171.024 246.105L170.21 243.945L178.955 240.645C179.284 240.521 179.586 240.333 179.843 240.093C180.1 239.852 180.306 239.563 180.452 239.243C180.597 238.922 180.678 238.576 180.689 238.224C180.7 237.873 180.643 237.522 180.519 237.193L177.392 228.908L179.546 228.095ZM115.617 252.224L118.743 260.509C118.867 260.838 119.055 261.139 119.295 261.396C119.535 261.652 119.824 261.859 120.144 262.004C120.465 262.148 120.811 262.229 121.162 262.24C121.513 262.251 121.864 262.193 122.192 262.068L130.938 258.768L131.753 260.927L123.007 264.228C121.77 264.694 120.398 264.65 119.194 264.106C117.989 263.561 117.05 262.561 116.583 261.324L113.456 253.039L115.617 252.224ZM100.581 178.336L101.396 180.495L92.6507 183.796C92.3216 183.92 92.0203 184.107 91.7639 184.348C91.5074 184.588 91.3009 184.877 91.1562 185.197C91.0115 185.518 90.9313 185.864 90.9203 186.215C90.9094 186.566 90.9678 186.917 91.0923 187.245L94.2191 195.53L92.0593 196.345L88.9324 188.06C88.4658 186.824 88.5095 185.452 89.0539 184.247C89.5984 183.043 90.5989 182.103 91.8357 181.636L100.581 178.336ZM139.852 163.514L148.598 160.213C149.835 159.746 151.206 159.79 152.411 160.335C153.616 160.879 154.555 161.88 155.022 163.117L158.149 171.402L155.994 172.215L152.867 163.93C152.743 163.601 152.555 163.3 152.314 163.043C152.073 162.787 151.783 162.58 151.463 162.436C151.142 162.291 150.796 162.211 150.444 162.2C150.092 162.189 149.742 162.248 149.413 162.372L140.667 165.673L139.852 163.514Z" fill="#D6F1F4"/>
<path d="M121.595 243.566C122.015 243.407 122.4 243.434 122.752 243.644C123.169 243.893 123.533 244.429 123.844 245.253C124.154 246.075 124.231 246.721 124.083 247.188C123.962 247.572 123.69 247.844 123.27 248.002C123.075 248.082 122.864 248.115 122.654 248.097C122.445 248.079 122.242 248.012 122.064 247.9C121.678 247.674 121.333 247.143 121.018 246.309C120.71 245.491 120.629 244.849 120.777 244.382C120.902 243.996 121.175 243.724 121.595 243.566ZM121.856 244.256C121.756 244.293 121.672 244.364 121.619 244.456C121.562 244.586 121.544 244.73 121.567 244.87C121.593 245.106 121.699 245.48 121.892 245.99C122.084 246.5 122.242 246.84 122.364 247.012C122.492 247.182 122.6 247.286 122.705 247.318C122.804 247.353 122.912 247.35 123.009 247.312C123.107 247.275 123.189 247.206 123.24 247.115C123.302 246.986 123.32 246.84 123.292 246.7C123.272 246.464 123.161 246.093 122.969 245.584C122.776 245.074 122.619 244.733 122.496 244.562C122.374 244.39 122.26 244.287 122.16 244.252C122.061 244.217 121.953 244.219 121.856 244.256ZM124.969 242.292C125.389 242.134 125.774 242.16 126.125 242.371C126.543 242.62 126.907 243.156 127.218 243.98C127.528 244.802 127.61 245.446 127.462 245.913C127.336 246.299 127.063 246.571 126.643 246.729C126.449 246.809 126.238 246.841 126.028 246.823C125.819 246.806 125.616 246.738 125.438 246.627C125.057 246.4 124.707 245.87 124.392 245.036C124.083 244.218 124.003 243.576 124.155 243.107C124.276 242.723 124.549 242.451 124.969 242.292ZM125.229 242.983C125.131 243.019 125.049 243.089 124.998 243.181C124.936 243.31 124.917 243.455 124.941 243.596C124.967 243.833 125.078 244.205 125.271 244.715C125.463 245.224 125.621 245.565 125.743 245.737C125.866 245.908 125.979 246.01 126.079 246.045C126.178 246.078 126.286 246.076 126.383 246.038C126.481 246.001 126.562 245.932 126.615 245.841C126.676 245.712 126.696 245.566 126.671 245.425C126.646 245.191 126.54 244.818 126.348 244.308C126.156 243.798 125.998 243.458 125.876 243.286C125.748 243.117 125.639 243.012 125.534 242.978C125.435 242.943 125.327 242.944 125.229 242.983H125.229ZM130.713 245.109L129.883 245.422L128.698 242.283C128.498 242.687 128.212 243.041 127.859 243.321L127.574 242.565C127.796 242.375 127.984 242.148 128.13 241.893C128.302 241.627 128.394 241.317 128.393 241L129.066 240.746L130.713 245.109ZM133.757 243.96L132.923 244.274L131.738 241.136C131.538 241.539 131.252 241.894 130.899 242.174L130.614 241.418C130.836 241.228 131.024 241 131.169 240.746C131.342 240.48 131.434 240.17 131.433 239.852L132.111 239.597L133.757 243.96ZM136.797 242.812L135.963 243.127L134.778 239.989C134.578 240.392 134.292 240.746 133.939 241.026L133.654 240.271C133.877 240.079 134.067 239.851 134.214 239.597C134.384 239.33 134.473 239.021 134.473 238.705L135.15 238.449L136.797 242.812ZM137.801 237.449C138.221 237.291 138.607 237.317 138.958 237.528C139.375 237.776 139.739 238.313 140.05 239.137C140.361 239.959 140.442 240.603 140.294 241.069C140.169 241.455 139.896 241.728 139.476 241.886C139.281 241.966 139.07 241.998 138.861 241.98C138.651 241.962 138.449 241.895 138.27 241.784C137.889 241.556 137.539 241.027 137.225 240.193C136.916 239.375 136.835 238.733 136.988 238.264C137.109 237.88 137.382 237.608 137.801 237.449ZM138.062 238.14C137.964 238.176 137.882 238.246 137.83 238.337C137.768 238.466 137.75 238.611 137.778 238.751C137.799 238.99 137.911 239.362 138.103 239.872C138.295 240.381 138.453 240.722 138.575 240.894C138.698 241.065 138.812 241.167 138.911 241.202C139.01 241.236 139.118 241.233 139.215 241.196C139.315 241.159 139.399 241.088 139.452 240.997C139.509 240.866 139.527 240.722 139.503 240.582C139.479 240.348 139.373 239.975 139.18 239.465C138.988 238.956 138.83 238.615 138.708 238.443C138.585 238.272 138.471 238.169 138.366 238.136C138.268 238.1 138.159 238.101 138.062 238.14ZM141.18 236.174C141.6 236.016 141.985 236.042 142.337 236.252C142.754 236.501 143.113 237.039 143.424 237.863C143.734 238.685 143.816 239.329 143.668 239.796C143.547 240.18 143.275 240.453 142.855 240.611C142.66 240.691 142.449 240.723 142.24 240.705C142.03 240.688 141.827 240.62 141.649 240.509C141.263 240.283 140.918 239.751 140.603 238.917C140.295 238.099 140.214 237.457 140.362 236.99C140.487 236.605 140.755 236.334 141.18 236.174ZM141.441 236.864C141.341 236.901 141.257 236.972 141.204 237.064C141.147 237.194 141.129 237.338 141.152 237.478C141.178 237.714 141.284 238.088 141.477 238.598C141.669 239.108 141.827 239.449 141.949 239.62C142.072 239.792 142.185 239.894 142.29 239.927C142.389 239.961 142.497 239.958 142.594 239.92C142.692 239.884 142.774 239.814 142.826 239.723C142.887 239.594 142.905 239.449 142.877 239.309C142.857 239.072 142.746 238.702 142.554 238.192C142.361 237.682 142.204 237.341 142.081 237.17C141.959 236.998 141.845 236.895 141.745 236.86C141.646 236.826 141.538 236.827 141.441 236.864ZM144.554 234.901C144.974 234.742 145.359 234.768 145.71 234.979C146.128 235.228 146.492 235.764 146.803 236.588C147.113 237.41 147.195 238.054 147.047 238.521C146.921 238.907 146.648 239.179 146.229 239.338C146.034 239.418 145.823 239.45 145.613 239.432C145.404 239.415 145.201 239.347 145.023 239.236C144.642 239.008 144.292 238.478 143.977 237.644C143.668 236.826 143.588 236.184 143.74 235.716C143.861 235.331 144.134 235.059 144.554 234.901ZM144.814 235.591C144.716 235.627 144.634 235.697 144.583 235.789C144.521 235.918 144.502 236.063 144.526 236.204C144.552 236.441 144.658 236.815 144.851 237.325C145.043 237.835 145.2 238.175 145.328 238.345C145.451 238.517 145.564 238.619 145.664 238.654C145.763 238.687 145.871 238.684 145.968 238.647C146.066 238.61 146.147 238.541 146.2 238.45C146.261 238.321 146.281 238.175 146.256 238.034C146.232 237.8 146.126 237.427 145.933 236.917C145.741 236.407 145.583 236.067 145.456 235.897C145.333 235.726 145.224 235.621 145.119 235.587C145.02 235.552 144.912 235.553 144.815 235.591H144.814ZM150.298 237.717L149.468 238.03L148.283 234.892C148.083 235.295 147.797 235.649 147.444 235.929L147.159 235.173C147.382 234.983 147.569 234.756 147.715 234.501C147.885 234.235 147.977 233.925 147.978 233.608L148.651 233.354L150.298 237.717ZM153.338 236.57L152.508 236.883L151.323 233.744C151.123 234.148 150.837 234.502 150.484 234.782L150.199 234.026C150.421 233.836 150.609 233.608 150.754 233.354C150.927 233.088 151.019 232.778 151.018 232.461L151.691 232.207L153.338 236.57ZM156.382 235.42L155.548 235.735L154.363 232.597C154.163 233 153.877 233.355 153.524 233.634L153.239 232.879C153.461 232.688 153.649 232.461 153.794 232.207C153.967 231.941 154.058 231.63 154.058 231.313L154.735 231.057L156.382 235.42ZM159.422 234.273L158.588 234.588L157.403 231.45C157.203 231.853 156.917 232.207 156.564 232.487L156.279 231.731C156.503 231.541 156.693 231.313 156.839 231.058C157.009 230.791 157.098 230.482 157.098 230.166L157.775 229.91L159.422 234.273ZM160.426 228.91C160.851 228.75 161.232 228.778 161.583 228.989C162 229.237 162.364 229.773 162.675 230.597C162.986 231.419 163.067 232.064 162.919 232.53C162.794 232.916 162.526 233.187 162.101 233.347C161.906 233.426 161.695 233.459 161.486 233.441C161.276 233.423 161.074 233.356 160.895 233.245C160.514 233.017 160.164 232.488 159.85 231.654C159.541 230.836 159.46 230.193 159.613 229.725C159.734 229.341 160.006 229.069 160.426 228.91ZM160.687 229.601C160.589 229.637 160.507 229.707 160.455 229.798C160.394 229.927 160.375 230.072 160.403 230.212C160.424 230.45 160.536 230.823 160.728 231.332C160.92 231.842 161.078 232.183 161.2 232.354C161.323 232.526 161.437 232.628 161.536 232.663C161.635 232.696 161.743 232.694 161.84 232.656C161.94 232.619 162.024 232.549 162.077 232.457C162.134 232.327 162.152 232.183 162.129 232.043C162.104 231.808 161.998 231.436 161.805 230.926C161.613 230.416 161.455 230.075 161.333 229.904C161.21 229.732 161.096 229.629 160.991 229.596C160.893 229.561 160.784 229.562 160.687 229.601ZM163.805 227.635C164.225 227.476 164.61 227.503 164.962 227.713C165.379 227.962 165.743 228.498 166.054 229.322C166.364 230.144 166.441 230.79 166.293 231.257C166.172 231.641 165.9 231.913 165.48 232.071C165.285 232.152 165.074 232.184 164.864 232.166C164.655 232.148 164.452 232.081 164.274 231.969C163.888 231.743 163.543 231.212 163.228 230.378C162.92 229.56 162.839 228.918 162.987 228.451C163.112 228.066 163.385 227.793 163.805 227.635ZM164.066 228.325C163.966 228.362 163.882 228.433 163.829 228.525C163.772 228.655 163.754 228.799 163.777 228.939C163.803 229.175 163.909 229.549 164.102 230.059C164.294 230.569 164.452 230.909 164.574 231.081C164.697 231.253 164.81 231.355 164.915 231.387C165.014 231.422 165.122 231.419 165.219 231.381C165.317 231.345 165.399 231.275 165.45 231.184C165.512 231.055 165.53 230.909 165.502 230.769C165.482 230.533 165.371 230.162 165.179 229.653C164.986 229.143 164.829 228.802 164.706 228.631C164.584 228.459 164.47 228.356 164.37 228.321C164.271 228.286 164.163 228.288 164.065 228.325H164.066ZM167.179 226.361C167.599 226.203 167.984 226.229 168.335 226.44C168.753 226.689 169.117 227.225 169.428 228.049C169.738 228.871 169.82 229.515 169.672 229.982C169.546 230.368 169.273 230.64 168.854 230.798C168.659 230.878 168.448 230.911 168.238 230.893C168.029 230.876 167.826 230.808 167.648 230.696C167.267 230.469 166.917 229.939 166.602 229.105C166.293 228.287 166.213 227.645 166.365 227.176C166.486 226.792 166.759 226.52 167.179 226.361ZM167.439 227.052C167.341 227.088 167.259 227.158 167.208 227.25C167.146 227.379 167.127 227.524 167.151 227.665C167.177 227.902 167.283 228.276 167.476 228.786C167.668 229.296 167.831 229.634 167.953 229.806C168.076 229.977 168.189 230.08 168.289 230.115C168.388 230.149 168.496 230.146 168.593 230.108C168.691 230.072 168.774 230.002 168.824 229.911C168.886 229.781 168.905 229.636 168.881 229.495C168.856 229.26 168.75 228.887 168.558 228.378C168.365 227.868 168.208 227.527 168.08 227.358C167.958 227.186 167.844 227.083 167.744 227.048C167.645 227.012 167.537 227.014 167.439 227.052Z" fill="#088395"/>
<path d="M126.622 254.697L125.788 255.012L124.603 251.873C124.403 252.277 124.117 252.631 123.764 252.911L123.479 252.155C123.701 251.965 123.889 251.737 124.034 251.483C124.207 251.217 124.299 250.907 124.298 250.59L124.976 250.334L126.622 254.697ZM129.663 253.549L128.828 253.864L127.643 250.726C127.444 251.128 127.159 251.481 126.809 251.762L126.524 251.006C126.746 250.815 126.933 250.588 127.08 250.334C127.251 250.069 127.341 249.759 127.338 249.442L128.016 249.187L129.663 253.549ZM132.702 252.402L131.868 252.717L130.683 249.579C130.484 249.98 130.199 250.334 129.849 250.615L129.564 249.859C129.785 249.668 129.973 249.44 130.119 249.187C130.29 248.92 130.381 248.61 130.383 248.293L131.056 248.04L132.702 252.402ZM133.711 247.037C134.131 246.879 134.517 246.905 134.868 247.116C135.28 247.366 135.644 247.902 135.955 248.726C136.266 249.548 136.347 250.193 136.199 250.659C136.079 251.043 135.806 251.316 135.386 251.474C135.19 251.554 134.979 251.586 134.769 251.569C134.558 251.551 134.355 251.484 134.175 251.374C133.794 251.146 133.449 250.614 133.135 249.78C132.826 248.962 132.745 248.32 132.893 247.854C133.014 247.47 133.286 247.198 133.711 247.037ZM133.972 247.728C133.872 247.765 133.789 247.835 133.735 247.927C133.674 248.056 133.655 248.201 133.683 248.341C133.709 248.577 133.816 248.952 134.008 249.461C134.2 249.971 134.358 250.312 134.48 250.483C134.603 250.655 134.717 250.757 134.816 250.792C134.917 250.825 135.026 250.822 135.125 250.784C135.223 250.746 135.304 250.677 135.357 250.586C135.414 250.456 135.432 250.312 135.408 250.172C135.383 249.938 135.277 249.565 135.085 249.055C134.892 248.545 134.735 248.205 134.612 248.033C134.49 247.862 134.376 247.759 134.276 247.723C134.177 247.69 134.07 247.691 133.972 247.728ZM137.085 245.764C137.505 245.605 137.89 245.632 138.242 245.842C138.659 246.091 139.023 246.627 139.334 247.451C139.644 248.273 139.726 248.917 139.573 249.386C139.452 249.77 139.18 250.042 138.76 250.2C138.565 250.281 138.354 250.313 138.145 250.295C137.935 250.277 137.732 250.21 137.554 250.098C137.173 249.871 136.823 249.341 136.508 248.507C136.2 247.689 136.119 247.047 136.267 246.58C136.392 246.194 136.665 245.922 137.085 245.764ZM137.346 246.454C137.247 246.49 137.165 246.56 137.114 246.652C137.053 246.781 137.033 246.927 137.057 247.068C137.083 247.304 137.189 247.678 137.382 248.188C137.574 248.698 137.732 249.038 137.854 249.21C137.982 249.38 138.09 249.484 138.195 249.516C138.294 249.551 138.402 249.548 138.499 249.51C138.598 249.474 138.68 249.404 138.731 249.313C138.792 249.184 138.81 249.038 138.782 248.898C138.762 248.662 138.656 248.289 138.464 247.78C138.271 247.27 138.109 246.931 137.986 246.759C137.864 246.587 137.75 246.485 137.65 246.449C137.551 246.415 137.443 246.417 137.346 246.454L137.346 246.454ZM140.459 244.49C140.878 244.332 141.264 244.358 141.615 244.569C142.032 244.818 142.397 245.354 142.708 246.178C143.018 247 143.099 247.644 142.952 248.11C142.826 248.497 142.553 248.769 142.133 248.927C141.938 249.007 141.728 249.039 141.518 249.021C141.308 249.004 141.106 248.936 140.927 248.825C140.547 248.597 140.197 248.068 139.882 247.234C139.573 246.416 139.493 245.774 139.645 245.305C139.766 244.921 140.039 244.649 140.459 244.49ZM140.719 245.181C140.621 245.217 140.539 245.287 140.488 245.379C140.426 245.507 140.407 245.652 140.436 245.792C140.456 246.031 140.568 246.403 140.76 246.913C140.953 247.423 141.11 247.763 141.233 247.935C141.355 248.106 141.469 248.208 141.569 248.243C141.668 248.277 141.775 248.274 141.872 248.237C141.972 248.2 142.056 248.13 142.109 248.038C142.166 247.908 142.184 247.764 142.161 247.624C142.136 247.389 142.03 247.016 141.837 246.507C141.645 245.997 141.488 245.656 141.365 245.485C141.242 245.313 141.129 245.21 141.023 245.177C140.925 245.141 140.817 245.143 140.719 245.181L140.719 245.181ZM146.208 247.305L145.373 247.62L144.188 244.481C143.988 244.885 143.702 245.239 143.349 245.519L143.064 244.763C143.287 244.573 143.474 244.346 143.62 244.091C143.792 243.825 143.884 243.515 143.883 243.198L144.561 242.942L146.208 247.305ZM149.248 246.158L148.413 246.472L147.229 243.334C147.029 243.737 146.742 244.092 146.39 244.372L146.104 243.616C146.327 243.426 146.515 243.198 146.66 242.944C146.832 242.678 146.924 242.368 146.924 242.05L147.601 241.795L149.248 246.158ZM152.287 245.01L151.453 245.325L150.268 242.187C150.069 242.589 149.784 242.942 149.434 243.223L149.149 242.467C149.37 242.276 149.558 242.049 149.704 241.795C149.876 241.529 149.966 241.219 149.963 240.903L150.641 240.648L152.287 245.01ZM155.328 243.863L154.493 244.178L153.308 241.039C153.109 241.441 152.824 241.795 152.474 242.075L152.189 241.32C152.411 241.128 152.598 240.901 152.745 240.648C152.915 240.381 153.007 240.071 153.008 239.754L153.681 239.5L155.328 243.863ZM156.336 238.498C156.756 238.34 157.142 238.366 157.493 238.576C157.91 238.825 158.269 239.363 158.58 240.187C158.891 241.009 158.972 241.653 158.824 242.12C158.704 242.504 158.431 242.776 158.011 242.935C157.815 243.014 157.604 243.047 157.394 243.029C157.183 243.012 156.98 242.945 156.8 242.835C156.419 242.607 156.074 242.075 155.76 241.241C155.451 240.423 155.37 239.781 155.518 239.315C155.644 238.929 155.911 238.658 156.336 238.498ZM156.597 239.188C156.497 239.225 156.414 239.296 156.36 239.388C156.303 239.518 156.285 239.662 156.308 239.802C156.334 240.038 156.441 240.412 156.633 240.922C156.825 241.432 156.983 241.773 157.105 241.944C157.228 242.116 157.342 242.218 157.446 242.251C157.545 242.285 157.653 242.283 157.75 242.244C157.848 242.207 157.929 242.137 157.982 242.047C158.043 241.918 158.061 241.773 158.033 241.633C158.013 241.396 157.902 241.026 157.71 240.516C157.517 240.006 157.36 239.665 157.237 239.494C157.115 239.322 157.001 239.219 156.901 239.184C156.802 239.15 156.695 239.152 156.597 239.188H156.597ZM159.71 237.225C160.13 237.066 160.515 237.092 160.866 237.303C161.284 237.552 161.648 238.088 161.959 238.912C162.269 239.734 162.351 240.378 162.198 240.847C162.077 241.231 161.805 241.503 161.385 241.661C161.19 241.741 160.979 241.774 160.77 241.756C160.56 241.738 160.357 241.671 160.179 241.559C159.798 241.331 159.448 240.802 159.133 239.968C158.825 239.15 158.744 238.508 158.892 238.041C159.017 237.655 159.29 237.383 159.71 237.225ZM159.971 237.915C159.872 237.951 159.79 238.021 159.739 238.113C159.678 238.242 159.658 238.387 159.682 238.528C159.708 238.765 159.814 239.139 160.007 239.649C160.199 240.159 160.357 240.499 160.484 240.669C160.607 240.841 160.716 240.945 160.82 240.978C160.919 241.012 161.027 241.01 161.124 240.971C161.223 240.936 161.305 240.866 161.356 240.774C161.417 240.645 161.437 240.499 161.412 240.358C161.387 240.124 161.281 239.751 161.089 239.241C160.897 238.731 160.739 238.391 160.612 238.221C160.489 238.049 160.375 237.946 160.275 237.911C160.176 237.876 160.068 237.878 159.971 237.915ZM165.454 240.041L164.624 240.354L163.44 237.216C163.238 237.618 162.952 237.972 162.601 238.253L162.315 237.498C162.538 237.307 162.726 237.08 162.871 236.826C163.041 236.559 163.133 236.249 163.134 235.932L163.807 235.678L165.454 240.041ZM168.494 238.894L167.664 239.207L166.48 236.068C166.28 236.472 165.993 236.826 165.64 237.106L165.355 236.35C165.578 236.16 165.766 235.933 165.911 235.678C166.083 235.412 166.175 235.102 166.174 234.785L166.847 234.531L168.494 238.894ZM169.503 233.529C169.922 233.37 170.308 233.396 170.659 233.607C171.076 233.856 171.441 234.392 171.752 235.216C172.062 236.038 172.143 236.682 171.991 237.151C171.87 237.535 171.597 237.807 171.177 237.965C170.983 238.045 170.772 238.078 170.562 238.06C170.352 238.042 170.15 237.975 169.971 237.863C169.591 237.636 169.241 237.106 168.926 236.272C168.617 235.454 168.537 234.812 168.684 234.345C168.81 233.959 169.083 233.687 169.503 233.529ZM169.763 234.219C169.665 234.255 169.582 234.325 169.532 234.417C169.47 234.546 169.45 234.691 169.475 234.833C169.5 235.069 169.607 235.443 169.799 235.953C169.992 236.463 170.149 236.803 170.272 236.975C170.399 237.145 170.508 237.249 170.613 237.281C170.712 237.316 170.819 237.313 170.917 237.275C171.015 237.239 171.097 237.169 171.148 237.078C171.21 236.948 171.229 236.803 171.205 236.661C171.18 236.427 171.069 236.056 170.877 235.547C170.684 235.037 170.527 234.696 170.404 234.525C170.282 234.353 170.168 234.25 170.068 234.215C169.969 234.18 169.861 234.182 169.763 234.219Z" fill="#37B7C3"/>
<path fill-rule="evenodd" clip-rule="evenodd" d="M142.23 224.824C141.239 225.441 140.127 225.836 138.969 225.98C138.883 225.989 138.799 226.016 138.724 226.058C138.648 226.1 138.581 226.157 138.527 226.225C138.474 226.294 138.434 226.372 138.411 226.455C138.387 226.539 138.381 226.626 138.392 226.712C138.402 226.799 138.43 226.882 138.473 226.957C138.517 227.032 138.574 227.098 138.643 227.151C138.712 227.204 138.791 227.242 138.875 227.265C138.959 227.287 139.046 227.292 139.132 227.28C140.478 227.113 141.771 226.654 142.922 225.937C143.068 225.844 143.172 225.698 143.211 225.529C143.249 225.36 143.219 225.183 143.128 225.037C143.037 224.89 142.891 224.785 142.723 224.745C142.554 224.706 142.377 224.734 142.23 224.824ZM146.116 219.581C145.762 220.713 145.217 221.776 144.506 222.725C144.454 222.793 144.417 222.872 144.395 222.955C144.373 223.039 144.369 223.126 144.38 223.211C144.392 223.296 144.421 223.379 144.465 223.453C144.509 223.527 144.567 223.592 144.636 223.644C144.704 223.696 144.783 223.734 144.866 223.755C144.95 223.777 145.037 223.782 145.122 223.77C145.207 223.758 145.29 223.729 145.364 223.685C145.438 223.642 145.503 223.584 145.555 223.515C146.352 222.446 146.964 221.252 147.365 219.98C147.416 219.815 147.4 219.637 147.32 219.484C147.24 219.331 147.103 219.215 146.938 219.163C146.774 219.11 146.595 219.125 146.441 219.203C146.287 219.281 146.171 219.417 146.116 219.581ZM135.87 225.792C134.717 225.511 133.621 225.037 132.626 224.39C132.48 224.296 132.302 224.264 132.132 224.301C131.961 224.339 131.813 224.442 131.719 224.589C131.625 224.736 131.594 224.913 131.631 225.084C131.668 225.254 131.772 225.402 131.918 225.496C133.037 226.217 134.268 226.748 135.56 227.068C135.729 227.108 135.907 227.08 136.056 226.99C136.204 226.899 136.31 226.753 136.351 226.584C136.392 226.415 136.365 226.237 136.274 226.089C136.184 225.94 136.039 225.834 135.87 225.792V225.792ZM146.438 212.861C146.668 214.042 146.752 215.247 146.687 216.448C146.677 216.622 146.737 216.792 146.852 216.922C146.968 217.051 147.131 217.13 147.304 217.14C147.478 217.149 147.648 217.09 147.778 216.975C147.908 216.859 147.987 216.697 147.997 216.523C148.067 215.213 147.975 213.899 147.721 212.611C147.705 212.526 147.673 212.445 147.626 212.373C147.579 212.3 147.518 212.238 147.446 212.189C147.375 212.14 147.294 212.106 147.21 212.089C147.125 212.071 147.038 212.071 146.953 212.087C146.868 212.104 146.787 212.137 146.715 212.185C146.643 212.233 146.582 212.295 146.534 212.367C146.486 212.439 146.453 212.52 146.436 212.605C146.42 212.689 146.42 212.777 146.438 212.861ZM130.178 222.348C129.353 221.471 128.641 220.495 128.058 219.441C128.017 219.366 127.961 219.3 127.894 219.246C127.827 219.192 127.75 219.153 127.667 219.129C127.585 219.105 127.498 219.098 127.413 219.107C127.328 219.117 127.245 219.144 127.17 219.185C127.018 219.27 126.906 219.411 126.858 219.578C126.81 219.745 126.83 219.925 126.913 220.077C127.547 221.226 128.323 222.291 129.221 223.247C129.34 223.373 129.504 223.447 129.678 223.453C129.851 223.458 130.02 223.395 130.146 223.276C130.272 223.156 130.345 222.992 130.351 222.819C130.357 222.645 130.295 222.476 130.178 222.348ZM143.707 206.657C144.424 207.626 145.025 208.677 145.495 209.786C145.529 209.865 145.578 209.937 145.639 209.997C145.7 210.058 145.773 210.105 145.853 210.138C145.932 210.17 146.017 210.186 146.103 210.185C146.189 210.185 146.274 210.167 146.353 210.133C146.433 210.1 146.504 210.051 146.565 209.99C146.625 209.929 146.673 209.856 146.705 209.776C146.737 209.697 146.753 209.611 146.753 209.525C146.752 209.439 146.734 209.354 146.701 209.275C146.189 208.07 145.539 206.929 144.763 205.874C144.658 205.738 144.503 205.649 144.333 205.625C144.162 205.601 143.989 205.646 143.851 205.748C143.713 205.851 143.62 206.004 143.594 206.174C143.567 206.344 143.608 206.517 143.708 206.657H143.707ZM126.798 216.481C126.442 215.33 126.224 214.141 126.149 212.939C126.144 212.853 126.122 212.769 126.085 212.691C126.047 212.614 125.995 212.545 125.93 212.488C125.866 212.43 125.791 212.387 125.71 212.358C125.629 212.33 125.543 212.318 125.457 212.323C125.371 212.328 125.287 212.35 125.21 212.388C125.132 212.425 125.063 212.478 125.006 212.542C124.949 212.606 124.905 212.681 124.877 212.763C124.849 212.844 124.837 212.93 124.842 213.016C124.921 214.323 125.158 215.617 125.546 216.868C125.598 217.034 125.714 217.173 125.869 217.254C126.023 217.334 126.203 217.351 126.37 217.299C126.452 217.274 126.528 217.232 126.594 217.177C126.659 217.123 126.714 217.055 126.754 216.979C126.793 216.903 126.818 216.82 126.825 216.735C126.833 216.649 126.823 216.563 126.797 216.481L126.798 216.481ZM138.489 202.462C139.588 202.924 140.61 203.553 141.518 204.325C141.584 204.38 141.66 204.422 141.742 204.448C141.824 204.474 141.91 204.483 141.996 204.476C142.082 204.468 142.165 204.444 142.241 204.404C142.318 204.365 142.385 204.31 142.441 204.245C142.496 204.179 142.538 204.103 142.564 204.021C142.59 203.939 142.599 203.852 142.592 203.767C142.584 203.681 142.56 203.597 142.52 203.521C142.48 203.445 142.426 203.377 142.36 203.322C141.349 202.466 140.214 201.768 138.994 201.252C138.834 201.185 138.653 201.185 138.492 201.251C138.332 201.317 138.204 201.444 138.137 201.604C138.07 201.765 138.069 201.945 138.135 202.106C138.201 202.267 138.328 202.395 138.489 202.462ZM126.335 209.745C126.536 208.572 126.918 207.438 127.467 206.383C127.508 206.307 127.534 206.223 127.542 206.137C127.551 206.051 127.542 205.964 127.517 205.881C127.492 205.799 127.451 205.722 127.396 205.655C127.341 205.589 127.273 205.533 127.197 205.493C127.12 205.453 127.036 205.428 126.95 205.42C126.864 205.412 126.777 205.421 126.695 205.447C126.612 205.473 126.536 205.515 126.47 205.57C126.403 205.626 126.349 205.694 126.309 205.77C125.698 206.947 125.27 208.21 125.042 209.515C125.012 209.687 125.051 209.863 125.151 210.006C125.251 210.148 125.403 210.245 125.574 210.276C125.745 210.306 125.922 210.267 126.065 210.168C126.207 210.069 126.305 209.916 126.336 209.745H126.335ZM131.929 202.268L132.025 202.231C133.118 201.821 134.286 201.65 135.451 201.73C135.623 201.739 135.791 201.68 135.92 201.566C136.049 201.451 136.128 201.291 136.139 201.119C136.15 200.947 136.093 200.777 135.981 200.647C135.868 200.516 135.708 200.436 135.536 200.422C134.228 200.333 132.915 200.516 131.681 200.961L131.561 201.005C130.413 201.439 129.36 202.094 128.463 202.932C128.336 203.051 128.261 203.215 128.255 203.389C128.248 203.562 128.312 203.731 128.43 203.859C128.549 203.986 128.713 204.061 128.887 204.067C129.06 204.073 129.229 204.01 129.357 203.891C130.104 203.193 130.977 202.642 131.929 202.267L131.929 202.268ZM139.386 220.106C139.214 220.194 139.038 220.272 138.858 220.34C136.917 221.072 134.78 220.557 133.131 219.204C133.065 219.15 132.988 219.109 132.906 219.084C132.824 219.059 132.738 219.05 132.652 219.059C132.567 219.067 132.484 219.093 132.408 219.133C132.332 219.174 132.265 219.229 132.211 219.295C132.156 219.361 132.115 219.438 132.091 219.52C132.066 219.602 132.057 219.688 132.066 219.774C132.074 219.859 132.099 219.942 132.14 220.018C132.18 220.094 132.235 220.161 132.302 220.215C134.317 221.873 136.941 222.464 139.321 221.566C139.546 221.481 139.766 221.384 139.98 221.275C140.057 221.236 140.127 221.183 140.183 221.117C140.24 221.052 140.284 220.976 140.311 220.894C140.338 220.811 140.349 220.725 140.342 220.638C140.336 220.552 140.312 220.468 140.273 220.39C140.234 220.313 140.18 220.245 140.114 220.188C140.048 220.132 139.971 220.09 139.889 220.063C139.806 220.037 139.719 220.027 139.633 220.035C139.547 220.042 139.463 220.066 139.386 220.106V220.106ZM141.874 211.499C141.912 211.592 141.949 211.685 141.983 211.779C142.824 214.007 142.598 216.345 141.54 218.078C141.495 218.151 141.465 218.233 141.452 218.318C141.438 218.403 141.442 218.49 141.462 218.574C141.483 218.657 141.519 218.736 141.57 218.806C141.621 218.875 141.685 218.934 141.758 218.979C141.832 219.024 141.914 219.054 141.999 219.067C142.084 219.08 142.171 219.077 142.254 219.056C142.338 219.036 142.417 218.999 142.486 218.949C142.556 218.898 142.615 218.834 142.66 218.76C143.909 216.712 144.205 213.95 143.211 211.316C143.17 211.207 143.129 211.098 143.08 210.992C143.047 210.912 142.999 210.84 142.938 210.779C142.877 210.718 142.804 210.669 142.724 210.636C142.645 210.604 142.559 210.587 142.473 210.587C142.387 210.587 142.301 210.605 142.221 210.638C142.142 210.672 142.07 210.72 142.009 210.782C141.948 210.843 141.901 210.916 141.868 210.996C141.836 211.076 141.82 211.162 141.821 211.248C141.822 211.335 141.84 211.42 141.874 211.499ZM131.219 216.805C131.08 216.538 130.958 216.263 130.852 215.981C130.092 213.968 130.208 211.864 131.015 210.198C131.091 210.042 131.102 209.861 131.045 209.697C130.987 209.533 130.867 209.398 130.711 209.322C130.554 209.246 130.374 209.235 130.21 209.293C130.046 209.35 129.911 209.47 129.835 209.626C128.881 211.591 128.729 214.07 129.625 216.444C129.748 216.771 129.89 217.092 130.051 217.403C130.131 217.556 130.268 217.671 130.433 217.723C130.598 217.776 130.776 217.761 130.93 217.682C131.084 217.603 131.201 217.467 131.255 217.303C131.309 217.139 131.296 216.96 131.219 216.805ZM133.911 207.447L133.982 207.419C136.101 206.619 138.456 207.308 140.148 208.954C140.273 209.074 140.441 209.139 140.614 209.136C140.787 209.133 140.952 209.062 141.073 208.938C141.193 208.813 141.26 208.647 141.258 208.474C141.257 208.3 141.187 208.135 141.064 208.013C139.026 206.035 136.197 205.24 133.638 206.149L133.519 206.192C133.066 206.363 132.633 206.584 132.229 206.851C132.157 206.899 132.096 206.96 132.048 207.032C132 207.103 131.966 207.183 131.949 207.268C131.932 207.352 131.932 207.439 131.949 207.524C131.965 207.608 131.998 207.689 132.046 207.76C132.094 207.832 132.155 207.894 132.226 207.942C132.298 207.99 132.378 208.023 132.463 208.04C132.547 208.057 132.634 208.058 132.719 208.041C132.803 208.024 132.884 207.991 132.955 207.944C133.256 207.745 133.576 207.578 133.911 207.446L133.911 207.447ZM137.695 213.832C137.34 214.027 136.971 214.197 136.591 214.339C136.12 214.52 135.634 214.655 135.137 214.744C135.053 214.759 134.971 214.79 134.898 214.836C134.826 214.881 134.762 214.941 134.713 215.011C134.663 215.081 134.627 215.161 134.608 215.245C134.589 215.329 134.587 215.416 134.601 215.5C134.616 215.585 134.647 215.666 134.692 215.739C134.738 215.812 134.798 215.875 134.868 215.925C134.938 215.975 135.018 216.01 135.102 216.03C135.186 216.049 135.273 216.051 135.357 216.037C135.936 215.933 136.504 215.775 137.054 215.565C137.493 215.4 137.92 215.204 138.331 214.977C138.483 214.893 138.596 214.752 138.643 214.584C138.691 214.417 138.671 214.238 138.586 214.086C138.502 213.934 138.361 213.822 138.194 213.774C138.027 213.726 137.847 213.747 137.695 213.831L137.695 213.832ZM136.093 213.479L136.244 213.421C137.184 213.066 138.073 212.898 138.669 212.954C138.755 212.963 138.842 212.955 138.925 212.93C139.008 212.905 139.085 212.864 139.152 212.809C139.219 212.754 139.274 212.686 139.315 212.61C139.355 212.533 139.38 212.449 139.388 212.363C139.396 212.277 139.387 212.19 139.362 212.107C139.336 212.025 139.294 211.948 139.238 211.882C139.183 211.815 139.115 211.76 139.038 211.72C138.961 211.681 138.877 211.656 138.791 211.649C138.074 211.583 137.013 211.745 135.891 212.154L135.782 212.194C134.805 212.563 133.981 213.042 133.444 213.504C133.378 213.56 133.324 213.629 133.284 213.706C133.245 213.783 133.221 213.867 133.214 213.953C133.208 214.04 133.218 214.126 133.245 214.209C133.272 214.291 133.315 214.367 133.372 214.433C133.428 214.498 133.497 214.552 133.575 214.591C133.652 214.629 133.736 214.652 133.823 214.658C133.909 214.664 133.996 214.653 134.078 214.625C134.16 214.598 134.236 214.554 134.301 214.497C134.716 214.139 135.35 213.775 136.093 213.479Z" fill="#64D8E3"/>
<path fill-rule="evenodd" clip-rule="evenodd" d="M93.2511 121.683C80.3793 129.632 51.8586 154.594 55.9687 173.463C61.9098 200.723 90.0683 229.477 90.0683 229.477C91.1488 238.905 99.2024 241.072 100.892 241.678C102.352 242.2 96.6369 228.951 97.2533 227.89C99.2377 224.479 103.144 229.64 104.05 226.305C104.623 224.2 99.6306 220.342 95.1908 220.834C95.1908 220.834 75.1327 183.287 80.8383 166.429C86.5482 149.57 126.685 150.832 129.437 119.685C130.173 111.361 126.878 100.917 93.2511 121.683Z" fill="#FB9C9A"/>
<mask id="mask1_336_5384" style="mask-type:luminance" maskUnits="userSpaceOnUse" x="55" y="109" width="75" height="133">
<path d="M93.2511 121.683C80.3793 129.632 51.8586 154.594 55.9687 173.463C61.9098 200.723 90.0683 229.477 90.0683 229.477C91.1488 238.905 99.2024 241.072 100.892 241.678C102.352 242.2 96.6369 228.951 97.2533 227.89C99.2377 224.479 103.144 229.64 104.05 226.305C104.623 224.2 99.6306 220.342 95.1908 220.834C95.1908 220.834 75.1327 183.287 80.8383 166.429C86.5482 149.57 126.685 150.832 129.437 119.685C130.173 111.361 126.878 100.917 93.2511 121.683Z" fill="white"/>
</mask>
<g mask="url(#mask1_336_5384)">
<path fill-rule="evenodd" clip-rule="evenodd" d="M107.744 200.472C123.018 181.838 147.516 167.182 150.244 141.109C152.159 122.816 139.901 109.571 123.677 103.166C98.414 93.196 65.9698 95.5278 42.8586 109.95C9.67486 130.659 7.15646 175.652 28.7559 205.647C35.4498 214.942 44.2908 223.681 55.5003 227.116C63.8741 229.682 79.426 230.356 84.7888 221.248C86.5587 218.244 84.6231 214.308 86.8309 211.575C88.5069 209.495 91.41 209.663 93.4785 208.204C96.8742 205.821 96.385 199.844 95.1269 196.412L107.744 200.472Z" fill="url(#paint6_linear_336_5384)"/>
</g>
<path fill-rule="evenodd" clip-rule="evenodd" d="M316.942 99.0016C316.942 99.0016 301.012 94.3121 289.764 82.183C277.131 93.5436 260.681 99.0016 260.681 99.0016V124.62C260.681 129.624 261.956 134.545 264.386 138.919C266.816 143.292 270.321 146.974 274.569 149.617C275.03 149.907 275.495 150.193 275.951 150.479C279.714 152.82 284.051 154.072 288.482 154.096C292.913 154.121 297.264 152.917 301.051 150.618C305.902 147.675 309.913 143.532 312.696 138.588C315.479 133.644 316.941 128.066 316.942 122.392V99.0016Z" fill="url(#paint7_linear_336_5384)"/>
<path fill-rule="evenodd" clip-rule="evenodd" d="M309.491 104.544C309.491 104.544 297.78 101.079 289.512 92.1176C280.224 100.511 268.131 104.544 268.131 104.544V123.507C268.131 127.194 269.069 130.821 270.856 134.047C272.643 137.272 275.221 139.991 278.347 141.946C278.68 142.152 279.013 142.36 279.343 142.568C282.11 144.298 285.305 145.224 288.569 145.243C291.833 145.261 295.037 144.37 297.824 142.671H297.827C301.389 140.498 304.333 137.446 306.375 133.807C308.418 130.168 309.491 126.066 309.491 121.893V104.544Z" fill="white"/>
<path fill-rule="evenodd" clip-rule="evenodd" d="M277.203 124.719L284.942 135.088C285.588 135.952 286.573 136.437 287.598 136.399C288.116 136.374 288.62 136.224 289.068 135.962C289.516 135.7 289.894 135.334 290.169 134.894L304.623 112.52C305.647 110.93 305.282 108.745 303.8 107.641C302.319 106.538 300.29 106.934 299.259 108.523L287.298 127.04L282.293 120.334C281.17 118.825 279.115 118.582 277.712 119.792C276.302 121.002 276.081 123.21 277.203 124.719Z" fill="url(#paint8_linear_336_5384)"/>
<path fill-rule="evenodd" clip-rule="evenodd" d="M257.91 124.242C258.38 121.593 259.885 118.884 260.776 118.573C266.718 116.506 269.865 122.446 263.739 124.288C260.776 125.18 257.808 132.83 257.808 132.83C257.808 132.83 257.554 126.274 257.91 124.242Z" fill="#FB9C9A"/>
<path fill-rule="evenodd" clip-rule="evenodd" d="M148.078 76.0269C140.2 76.0269 134.457 83.2592 135.578 93.0762C136.374 100.033 145.164 107.513 152.369 108.219C158.308 108.8 160.633 102.774 160.633 92.8935C160.633 83.0133 155.949 76.0269 148.078 76.0269Z" fill="url(#paint9_linear_336_5384)"/>
<path fill-rule="evenodd" clip-rule="evenodd" d="M151.087 101.586C151.237 100.9 151.817 100.291 152.291 99.8044C152.709 99.3768 153.146 98.9619 153.664 98.6592C153.972 98.4662 154.306 98.3195 154.657 98.2236C156.697 97.733 157.671 99.463 159.256 100.302C159.868 100.627 160.523 100.685 161.203 100.709C163.138 103.659 159.705 106.888 157.19 107.94C155.936 108.466 152.659 112.63 148.665 107.843C147.76 106.761 142.855 107.089 144.39 101.588C144.79 100.149 144.209 98.3153 144.103 96.8338C143.947 94.6614 144.122 92.1347 142 90.8026C141.665 90.5944 141.31 90.4215 140.939 90.2865C140.677 90.1898 140.377 89.9826 140.128 90.1005C138.287 90.9561 141.313 94.325 136.776 95.7091C137.07 97.2126 135.628 98.2679 134.305 98.4676C132.233 98.7809 130.011 97.8815 128.638 96.3077C127.371 94.8535 125.836 92.59 125.574 90.7122C125.256 88.413 125.368 83.4247 127.503 80.4721C129.169 78.1668 131.628 76.3757 134.561 76.5554C134.53 75.9732 134.917 75.3921 135.216 74.9262C135.921 73.8313 136.812 72.8687 137.85 72.0822C139.516 70.834 141.576 69.9047 143.666 69.7475C146.468 69.5366 149.464 71.088 150.681 73.6693C151.212 73.1 152.017 72.9172 152.753 72.7718C154.557 72.4155 156.254 72.6408 157.858 73.5676C161.334 75.579 162.532 79.5001 161.066 83.1322C160.542 82.9631 159.93 82.9593 159.387 82.8807C158.076 82.6935 162.576 85.4789 153.439 87.0864C151.062 87.5045 147.536 85.6872 145.819 87.9227C144.696 89.3811 145.476 91.1217 145.707 92.7247C145.913 94.1589 145.807 95.6249 146.075 97.0496C146.456 99.0766 148.01 101.56 150.188 102.015L151.087 101.586Z" fill="url(#paint10_linear_336_5384)"/>
<defs>
<linearGradient id="paint0_linear_336_5384" x1="254.155" y1="178.256" x2="110.846" y2="296.02" gradientUnits="userSpaceOnUse">
<stop stop-color="#E0FCFF"/>
<stop offset="0.54" stop-color="#67D7E2"/>
<stop offset="1" stop-color="#37B7C3"/>
</linearGradient>
<linearGradient id="paint1_linear_336_5384" x1="203" y1="165.729" x2="157.063" y2="240.244" gradientUnits="userSpaceOnUse">
<stop stop-color="#E1FCFF"/>
<stop offset="0.54" stop-color="#37B7C3"/>
<stop offset="1" stop-color="#088395"/>
</linearGradient>
<linearGradient id="paint2_linear_336_5384" x1="20.8829" y1="141.762" x2="145.861" y2="244.401" gradientUnits="userSpaceOnUse">
<stop stop-color="#71D9E3"/>
<stop offset="0.56" stop-color="#2BA1AC"/>
<stop offset="1" stop-color="#088395"/>
</linearGradient>
<linearGradient id="paint3_linear_336_5384" x1="283.5" y1="159" x2="201.356" y2="228.777" gradientUnits="userSpaceOnUse">
<stop stop-color="#37B7C3"/>
<stop offset="0.45" stop-color="#37B7C3"/>
<stop offset="1" stop-color="#088395"/>
</linearGradient>
<linearGradient id="paint4_linear_336_5384" x1="132.578" y1="203.141" x2="144.579" y2="94.5177" gradientUnits="userSpaceOnUse">
<stop stop-color="#37B7C3"/>
<stop offset="1" stop-color="#088395"/>
</linearGradient>
<linearGradient id="paint5_linear_336_5384" x1="133.789" y1="171.613" x2="126.587" y2="239.723" gradientUnits="userSpaceOnUse">
<stop stop-color="#A0E9F0"/>
<stop offset="0.47" stop-color="#37B7C3"/>
<stop offset="1" stop-color="#088395"/>
</linearGradient>
<linearGradient id="paint6_linear_336_5384" x1="79.2461" y1="193.369" x2="120.827" y2="107.921" gradientUnits="userSpaceOnUse">
<stop stop-color="#37B7C3"/>
<stop offset="0.56" stop-color="#37B7C3"/>
<stop offset="1" stop-color="#088395"/>
</linearGradient>
<linearGradient id="paint7_linear_336_5384" x1="305.47" y1="82.892" x2="252.788" y2="181.857" gradientUnits="userSpaceOnUse">
<stop stop-color="#37B7C3"/>
<stop offset="0.6" stop-color="#37B7C3"/>
<stop offset="0.81" stop-color="#37B7C3"/>
</linearGradient>
<linearGradient id="paint8_linear_336_5384" x1="302.015" y1="98.4803" x2="269.216" y2="152.42" gradientUnits="userSpaceOnUse">
<stop stop-color="#AADBFF"/>
<stop offset="0.47" stop-color="#37B7C3"/>
<stop offset="1" stop-color="#37B7C3"/>
</linearGradient>
<linearGradient id="paint9_linear_336_5384" x1="157.828" y1="78.9017" x2="136.48" y2="111.525" gradientUnits="userSpaceOnUse">
<stop stop-color="#FB9C9A"/>
<stop offset="0.64" stop-color="#FC8886"/>
<stop offset="0.84" stop-color="#FD5450"/>
<stop offset="1" stop-color="#FF1712"/>
</linearGradient>
<linearGradient id="paint10_linear_336_5384" x1="151.47" y1="108.977" x2="138.241" y2="67.1136" gradientUnits="userSpaceOnUse">
<stop/>
<stop offset="0.53" stop-color="#121212"/>
<stop offset="1" stop-color="#4D4D4D"/>
</linearGradient>
</defs>
</svg>
