<svg width="375" height="384" viewBox="0 0 375 384" fill="none" xmlns="http://www.w3.org/2000/svg">
<path opacity="0.1" d="M187.5 380.07C288.635 380.07 370.62 341.572 370.62 294.081C370.62 246.591 288.635 208.092 187.5 208.092C86.3655 208.092 4.3797 246.591 4.3797 294.081C4.3797 341.572 86.3655 380.07 187.5 380.07Z" fill="#073669"/>
<path opacity="0.44" d="M155.896 291.271L147.957 290.039L145.026 296.367L152.965 297.6C153.158 299.183 153.854 300.663 154.95 301.821L149.128 305.187L157.14 309.825L162.962 306.459C165.33 307.142 167.775 307.522 170.239 307.592L172.37 312.191L183.312 310.494L181.182 305.896C182.201 305.515 183.188 305.052 184.133 304.511C184.986 304.023 185.788 303.45 186.527 302.801L194.466 304.034L197.397 297.706L189.458 296.473C189.266 294.889 188.57 293.41 187.474 292.252L193.295 288.886L185.284 284.248L179.462 287.614C177.093 286.931 174.648 286.55 172.184 286.481L170.028 281.889L159.111 283.605L161.242 288.204C160.222 288.584 159.235 289.047 158.291 289.588C157.439 290.068 156.636 290.632 155.896 291.271ZM164.715 293.259C168.301 291.185 174.116 291.185 177.695 293.259C181.274 295.333 181.281 298.693 177.695 300.767C174.109 302.841 168.294 302.841 164.715 300.767C161.136 298.693 161.136 295.36 164.735 293.286L164.715 293.259Z" fill="#00717E"/>
<path d="M163.69 300.085C161.176 298.011 161.513 295.135 164.715 293.286C168.301 291.212 174.116 291.212 177.695 293.286C180.553 294.936 181.129 297.408 179.429 299.395C178.934 298.835 178.348 298.362 177.695 297.997C174.11 295.923 168.294 295.923 164.715 297.997C164.063 298.362 163.476 298.835 162.982 299.395C163.197 299.645 163.434 299.876 163.69 300.085Z" fill="#366D8B"/>
<path d="M184.133 304.511C184.986 304.023 185.788 303.45 186.527 302.801L194.466 304.034L197.377 297.752V297.798V297.845V297.891V297.937V297.984V298.03V298.077V298.123V298.169V298.216V298.262V298.309V298.355V298.401V298.448V298.494V298.54V298.587V298.633V298.68V298.726V298.772V298.819V298.865V298.912V298.958V299.004V299.051V299.097V299.143V299.19V299.236V299.283V299.329V299.375V299.422V299.468V299.515V299.561V299.607V299.654V299.7V299.746V299.793V299.839V299.886V299.932V299.978V300.025V300.071V300.118V300.164V300.21V300.257V300.303V300.349V300.396V300.442V300.489V300.535V300.581V300.628V300.674V300.721V300.767V300.813V300.86V300.906V300.952V300.999V301.045V301.092V301.138V301.184V301.231V301.277V301.324V301.37V301.416V301.463V301.509V301.555V301.602V301.648V301.695V301.741V301.787V301.834V301.88V301.927V301.973V302.019V302.066V302.112V302.158V302.205V302.251V302.298V302.344V302.39L194.506 308.745L186.567 307.512C185.828 308.161 185.026 308.734 184.172 309.222C183.808 309.434 183.425 309.633 183.041 309.818L183.352 310.481L181.222 305.882C182.227 305.504 183.201 305.045 184.133 304.511Z" fill="#366D8B"/>
<path d="M157.113 309.825L162.935 306.459C165.304 307.142 167.749 307.522 170.213 307.592L172.343 312.191L183.286 310.494V310.541V310.587V310.634V310.68V310.726V310.773V310.819V310.865V310.912V310.958V311.005V311.051V311.097V311.144V311.19V311.237V311.283V311.329V311.376V311.422V311.468V311.515V311.561V311.608V311.654V311.7V311.747V311.793V311.84V311.886V311.932V311.979V312.025V312.071V312.118V312.164V312.211V312.257V312.303V312.35V312.396V312.443V312.489V312.535V312.582V312.628V312.674V312.721V312.767V312.814V312.86V312.906V312.953V312.999V313.046V313.092V313.138V313.185V313.231V313.277V313.324V313.37V313.417V313.463V313.509V313.556V313.602V313.649V313.695V313.741V313.788V313.834V313.88V313.927V313.973V314.02V314.066V314.112V314.159V314.205V314.252V314.298V314.344V314.391V314.437V314.483V314.53V314.576V314.623V314.669V314.715V314.762V314.808V314.854V314.901V314.947V314.994V315.04V315.086V315.133V315.179L172.343 316.876L170.213 312.277C167.749 312.207 165.304 311.826 162.935 311.144L157.113 314.51L149.102 309.872L157.113 309.825Z" fill="#366D8B"/>
<path d="M145.033 296.374L152.972 297.607C153.165 299.19 153.86 300.67 154.957 301.827L153.091 302.908C153.051 302.709 153.025 302.517 153.005 302.318L145.066 301.085V301.039V300.993V300.946V300.9V300.853V300.807V300.761V300.714V300.668V300.621V300.575V300.529V300.482V300.436V300.39V300.343V300.297V300.25V300.204V300.158V300.111V300.065V300.018V299.972V299.926V299.879V299.833V299.787V299.74V299.694V299.647V299.601V299.555V299.508V299.462V299.415V299.369V299.323V299.276V299.23V299.184V299.137V299.091V299.044V298.998V298.952V298.905V298.859V298.813V298.766V298.72V298.673V298.627V298.581V298.534V298.488V298.441V298.395V298.349V298.302V298.256V298.21V298.163V298.117V298.07V298.024V297.978V297.931V297.885V297.838V297.792V297.746V297.699V297.653V297.607V297.56V297.514V297.467V297.421V297.375V297.328V297.282V297.235V297.189V297.143V297.096V297.05V297.004V296.957V296.911V296.864V296.818V296.772V296.725V296.679V296.632V296.586V296.54V296.493V296.447L145.033 296.374Z" fill="#366D8B"/>
<path d="M159.442 288.972L159.131 288.31V288.263V288.217V288.171V288.124V288.078V288.031V287.985V287.939V287.892V287.846V287.8V287.753V287.707V287.66V287.614V287.568V287.521V287.475V287.428V287.382V287.336V287.289V287.243V287.197V287.15V287.104V287.057V287.011V286.965V286.918V286.872V286.825V286.779V286.733V286.686V286.64V286.594V286.547V286.501V286.454V286.408V286.362V286.315V286.269V286.223V286.176V286.13V286.083V286.037V285.991V285.944V285.898V285.851V285.805V285.759V285.712V285.666V285.62V285.573V285.527V285.48V285.434V285.388V285.341V285.295V285.248V285.202V285.156V285.109V285.063V285.017V284.97V284.924V284.877V284.831V284.785V284.738V284.692V284.645V284.599V284.553V284.506V284.46V284.414V284.367V284.321V284.274V284.228V284.182V284.135V284.089V284.042V283.996V283.95V283.903V283.857V283.811V283.764V283.718V283.671L161.242 288.224C160.613 288.462 160.005 288.727 159.422 289.012L159.442 288.972Z" fill="#366D8B"/>
<path d="M189.366 295.884C189.082 294.527 188.437 293.272 187.5 292.252L193.322 288.886L189.366 295.884Z" fill="#366D8B"/>
<path opacity="0.44" d="M196.868 267.231L191.37 266.377L189.346 270.75L194.844 271.605C194.964 272.693 195.427 273.714 196.167 274.52L192.144 276.846L197.682 280.047L201.704 277.721C203.345 278.193 205.039 278.456 206.746 278.503L208.221 281.683L215.783 280.51L214.354 277.33C215.058 277.068 215.739 276.749 216.391 276.376C216.981 276.039 217.535 275.644 218.045 275.196L223.543 276.044L225.568 271.671L220.07 270.816C219.95 269.728 219.486 268.707 218.747 267.901L222.769 265.575L217.185 262.401L213.163 264.727C211.522 264.254 209.828 263.992 208.122 263.945L206.646 260.764L199.084 261.937L200.56 265.111C199.856 265.373 199.174 265.692 198.522 266.065C197.933 266.398 197.379 266.788 196.868 267.231ZM202.961 268.623C204.352 267.917 205.888 267.55 207.447 267.55C209.005 267.55 210.542 267.917 211.932 268.623C214.407 270.054 214.407 272.38 211.932 273.811C210.542 274.517 209.005 274.885 207.447 274.885C205.888 274.885 204.352 274.517 202.961 273.811C200.46 272.373 200.46 270.054 202.961 268.623Z" fill="#00717E"/>
<path d="M202.253 273.314C200.513 271.883 200.752 269.895 202.961 268.616C204.352 267.911 205.888 267.543 207.447 267.543C209.005 267.543 210.542 267.911 211.932 268.616C213.917 269.756 214.307 271.466 213.13 272.837C212.788 272.449 212.383 272.122 211.932 271.87C210.542 271.164 209.005 270.796 207.447 270.796C205.888 270.796 204.352 271.164 202.961 271.87C202.511 272.122 202.106 272.449 201.764 272.837C201.913 273.01 202.077 273.17 202.253 273.314Z" fill="#366D8B"/>
<path d="M216.372 276.376C216.961 276.039 217.515 275.644 218.026 275.196L223.523 276.044L225.508 271.704L223.484 276.077L217.986 275.229C217.475 275.677 216.921 276.072 216.332 276.409C216.08 276.555 215.816 276.694 215.551 276.82L215.77 277.283L214.354 277.33C215.051 277.067 215.726 276.748 216.372 276.376Z" fill="#366D8B"/>
<path d="M197.708 280.047L201.731 277.721C203.372 278.193 205.065 278.456 206.772 278.503L208.247 281.683L215.809 280.51L208.247 284.93L206.772 281.749C205.065 281.703 203.372 281.44 201.731 280.968L197.708 283.293L192.171 280.093L197.708 280.047Z" fill="#366D8B"/>
<path d="M189.359 270.757L194.857 271.612C194.977 272.7 195.44 273.721 196.18 274.527L194.857 275.276C194.857 275.137 194.811 275.004 194.797 274.865L189.299 274.01L189.359 270.757Z" fill="#366D8B"/>
<path d="M199.303 265.641L199.084 265.177L200.54 268.325C200.103 268.49 199.686 268.669 199.283 268.868L199.303 265.641Z" fill="#366D8B"/>
<path d="M219.99 270.412C219.786 269.47 219.328 268.602 218.667 267.901L222.69 265.575L219.99 270.412Z" fill="#366D8B"/>
<path opacity="0.47" d="M238.832 169.341C229.703 157.235 229.881 138.953 239.236 127.019C245.594 118.915 255.425 113.767 260.625 104.901C265.964 95.7828 265.455 84.3922 269.226 74.5124C274.737 59.9346 290.251 49.8295 305.778 50.6578C296.516 56.7738 294.412 70.6625 296.9 81.47C299.387 92.2775 304.468 102.727 304.058 113.806C303.668 124.528 298.058 134.527 290.654 142.299C283.251 150.072 274.115 155.877 265.064 161.628C260.89 164.279 256.622 166.976 251.833 168.195C247.043 169.414 241.829 173.297 238.832 169.341Z" fill="#C7DAFB"/>
<path opacity="0.1" d="M252.865 173.052C259.321 164.293 264.993 154.98 269.815 145.222C269.886 145.126 269.94 145.019 269.973 144.904C271.499 141.811 272.939 138.675 274.293 135.494C281.246 132.284 287.531 127.788 292.818 122.242C292.995 122.052 293.091 121.799 293.085 121.539C293.079 121.279 292.971 121.032 292.785 120.85C292.692 120.761 292.582 120.69 292.461 120.643C292.341 120.597 292.212 120.574 292.083 120.577C291.954 120.58 291.827 120.609 291.709 120.661C291.591 120.714 291.484 120.789 291.395 120.883C286.774 125.728 281.362 129.748 275.392 132.771C277.923 126.538 280.114 120.172 281.955 113.7L282.074 113.608C287.135 108.938 291.783 103.839 295.967 98.3672C296.125 98.1599 296.194 97.8981 296.159 97.6397C296.125 97.3812 295.989 97.1471 295.782 96.989C295.575 96.8308 295.313 96.7615 295.055 96.7963C294.797 96.8311 294.564 96.9671 294.406 97.1745C290.913 101.745 287.09 106.053 282.967 110.063C285.459 100.588 287.195 90.9292 288.16 81.1786C288.173 81.0481 288.16 80.9164 288.121 80.791C288.083 80.6655 288.021 80.5489 287.937 80.4477C287.854 80.3465 287.752 80.2627 287.636 80.201C287.521 80.1394 287.394 80.1012 287.264 80.0886C287.134 80.076 287.002 80.0892 286.877 80.1275C286.752 80.1658 286.635 80.2284 286.534 80.3118C286.433 80.3952 286.349 80.4977 286.288 80.6134C286.226 80.7292 286.188 80.856 286.176 80.9865C285.58 87.012 284.698 92.9756 283.529 98.8775L277.575 83.9551C277.478 83.7134 277.29 83.5201 277.051 83.4175C276.812 83.315 276.543 83.3117 276.301 83.4084C276.06 83.505 275.867 83.6937 275.765 83.9329C275.662 84.1722 275.659 84.4423 275.756 84.684L282.669 102.065C282.703 102.145 282.747 102.221 282.801 102.29C281.379 108.715 279.612 115.059 277.509 121.294C273.1 115.601 269.158 109.56 265.719 103.231C265.658 103.117 265.574 103.017 265.474 102.936C265.373 102.855 265.258 102.794 265.134 102.757C265.01 102.721 264.881 102.709 264.752 102.722C264.624 102.736 264.5 102.775 264.386 102.837C264.273 102.898 264.173 102.982 264.092 103.083C264.01 103.183 263.95 103.299 263.913 103.423C263.877 103.547 263.865 103.677 263.879 103.805C263.892 103.934 263.931 104.058 263.993 104.172C267.686 110.974 271.954 117.447 276.748 123.521C275.491 127.112 274.124 130.662 272.646 134.169C272.548 134.299 272.485 134.452 272.461 134.613C271.301 137.347 270.073 140.055 268.776 142.737C264.868 137.609 261.515 132.081 258.773 126.244C258.662 126.009 258.463 125.827 258.218 125.738C257.974 125.65 257.704 125.663 257.469 125.774C257.234 125.884 257.053 126.084 256.965 126.329C256.876 126.574 256.889 126.843 257 127.079C259.939 133.336 263.564 139.245 267.81 144.698C263.079 154.203 257.532 163.278 251.231 171.82C251.09 172.008 251.022 172.242 251.039 172.476C251.056 172.711 251.157 172.932 251.323 173.099L251.436 173.198C251.537 173.287 251.655 173.355 251.784 173.396C251.912 173.437 252.048 173.451 252.182 173.438C252.316 173.424 252.446 173.383 252.564 173.316C252.681 173.25 252.784 173.16 252.865 173.052Z" fill="black"/>
<path opacity="0.1" d="M304.052 113.82C304.101 112.419 304.07 111.016 303.959 109.619C290.086 110.742 276.94 116.301 266.46 125.475C252.633 137.582 244.33 152.935 243.966 170.872C246.421 170.342 249.193 168.884 251.839 168.182C256.636 166.963 260.903 164.272 265.071 161.615C274.115 155.87 283.258 150.039 290.661 142.286C298.064 134.533 303.668 124.574 304.052 113.82Z" fill="black"/>
<path d="M244.853 176.359C263.027 177.312 281.017 172.311 296.101 162.112C311.184 151.912 322.54 137.07 328.451 119.83C319.027 116.993 309.083 116.339 299.371 117.919C289.658 119.498 280.431 123.27 272.388 128.948C256.087 140.444 245.865 156.42 244.853 176.359Z" fill="#C7DAF2"/>
<path opacity="0.1" d="M236.418 183.86C243.381 174.959 251.114 166.69 259.527 159.15C259.602 159.053 259.694 158.97 259.798 158.905C262.471 156.515 265.208 154.203 268.008 151.967C269.287 144.091 272.041 136.528 276.126 129.676C276.267 129.447 276.492 129.283 276.753 129.217C277.013 129.151 277.289 129.19 277.522 129.325C277.753 129.464 277.92 129.69 277.986 129.952C278.052 130.214 278.011 130.491 277.873 130.723C274.307 136.704 271.786 143.25 270.417 150.079C275.948 145.81 281.708 141.846 287.671 138.204C287.687 138.154 287.707 138.106 287.73 138.059C291 131.701 294.811 125.637 299.123 119.936C299.204 119.829 299.305 119.739 299.42 119.671C299.536 119.603 299.663 119.558 299.796 119.54C299.929 119.522 300.064 119.529 300.194 119.563C300.323 119.597 300.445 119.656 300.552 119.737C300.659 119.818 300.749 119.919 300.816 120.035C300.884 120.151 300.929 120.279 300.947 120.411C300.965 120.544 300.958 120.68 300.924 120.809C300.89 120.939 300.831 121.061 300.75 121.168C297.147 125.939 293.899 130.969 291.032 136.217C299.817 131.089 308.996 126.669 318.481 122.997C318.733 122.9 319.014 122.907 319.262 123.017C319.509 123.127 319.703 123.331 319.801 123.584C319.898 123.837 319.891 124.118 319.781 124.366C319.671 124.614 319.468 124.808 319.215 124.906C313.353 127.172 307.62 129.721 302.014 132.552L318.554 134.374C318.816 134.411 319.055 134.549 319.217 134.759C319.38 134.969 319.455 135.234 319.426 135.498C319.396 135.762 319.265 136.004 319.061 136.173C318.856 136.342 318.593 136.424 318.329 136.402L299.024 134.282C298.933 134.272 298.844 134.249 298.759 134.215C292.726 137.414 286.869 140.935 281.214 144.765C288.131 147.611 295.266 149.893 302.55 151.59C302.68 151.62 302.803 151.676 302.912 151.754C303.021 151.832 303.113 151.931 303.184 152.045C303.254 152.159 303.302 152.285 303.324 152.417C303.345 152.55 303.341 152.685 303.311 152.815C303.28 152.946 303.224 153.069 303.146 153.178C303.068 153.287 302.97 153.38 302.856 153.45C302.743 153.521 302.616 153.569 302.484 153.591C302.352 153.612 302.217 153.608 302.087 153.577C294.259 151.757 286.601 149.27 279.196 146.143C275.954 148.4 272.783 150.755 269.682 153.206C269.578 153.342 269.442 153.449 269.285 153.518C266.868 155.444 264.5 157.432 262.18 159.481C268.39 161.981 274.848 163.814 281.445 164.948C281.592 164.951 281.736 164.986 281.868 165.05C282.001 165.114 282.117 165.206 282.211 165.319C282.304 165.433 282.372 165.565 282.41 165.707C282.447 165.849 282.454 165.998 282.429 166.143C282.403 166.288 282.347 166.425 282.264 166.546C282.181 166.668 282.073 166.769 281.947 166.845C281.821 166.92 281.68 166.967 281.534 166.983C281.388 166.999 281.24 166.983 281.101 166.936C274.027 165.721 267.111 163.721 260.48 160.972C252.285 168.354 244.748 176.435 237.953 185.125C237.801 185.322 237.583 185.457 237.34 185.505C237.096 185.553 236.843 185.509 236.629 185.384L236.504 185.298C236.302 185.118 236.18 184.866 236.164 184.596C236.148 184.327 236.239 184.062 236.418 183.86Z" fill="black"/>
<path opacity="0.47" d="M138.973 245.749C148.387 233.259 148.235 214.407 138.556 202.102C132 193.746 121.864 188.452 116.499 179.288C110.994 169.885 111.517 158.136 107.66 147.945C101.977 132.923 85.9797 122.487 69.9495 123.355C79.4763 129.657 81.6661 143.989 79.1058 155.161C76.5455 166.333 71.3057 177.081 71.7225 188.511C72.1261 199.571 77.9083 209.881 85.543 217.872C93.1777 225.864 102.605 231.88 111.934 237.804C116.241 240.541 120.64 243.317 125.589 244.576C130.537 245.835 135.903 249.811 138.973 245.749Z" fill="#C7DAFB"/>
<path opacity="0.1" d="M124.524 249.572C117.867 240.548 112.018 230.954 107.045 220.901C106.972 220.803 106.919 220.693 106.886 220.576C105.311 217.382 103.827 214.148 102.433 210.875C95.2501 207.567 88.7561 202.929 83.2936 197.205C83.1121 197.009 83.014 196.75 83.0201 196.483C83.0263 196.215 83.1363 195.961 83.3267 195.774C83.5208 195.589 83.7802 195.488 84.048 195.494C84.3159 195.501 84.5704 195.613 84.7557 195.807C89.5326 200.806 95.1261 204.951 101.295 208.065C98.6845 201.638 96.4251 195.072 94.5273 188.399L94.4016 188.306C89.1748 183.493 84.3736 178.237 80.0518 172.595C79.8887 172.381 79.8168 172.112 79.8522 171.845C79.8876 171.579 80.0272 171.337 80.2404 171.174C80.4536 171.01 80.7229 170.938 80.989 170.974C81.2551 171.009 81.4963 171.149 81.6595 171.362C85.2614 176.076 89.204 180.519 93.4556 184.655C90.8831 174.873 89.0912 164.902 88.0967 154.836C88.0572 154.694 88.0491 154.545 88.0733 154.399C88.0974 154.253 88.1531 154.114 88.2364 153.992C88.3197 153.87 88.4286 153.768 88.5555 153.693C88.6825 153.617 88.8243 153.571 88.9712 153.556C89.118 153.541 89.2663 153.559 89.4056 153.607C89.5449 153.656 89.6719 153.735 89.7777 153.838C89.8835 153.941 89.9655 154.066 90.0179 154.204C90.0704 154.342 90.0921 154.49 90.0815 154.638C90.6945 160.853 91.6141 167.011 92.8403 173.112L98.96 157.719C99.0675 157.482 99.2621 157.295 99.5034 157.198C99.7447 157.1 100.014 157.1 100.256 157.196C100.498 157.292 100.693 157.478 100.802 157.715C100.91 157.952 100.923 158.221 100.839 158.468L93.7467 176.425C93.7131 176.508 93.6686 176.586 93.6143 176.657C95.0723 183.283 96.8855 189.826 99.046 196.257C103.593 190.386 107.659 184.157 111.206 177.631C111.334 177.395 111.551 177.219 111.808 177.142C112.065 177.066 112.343 177.095 112.579 177.223C112.815 177.352 112.99 177.569 113.066 177.826C113.143 178.084 113.114 178.362 112.986 178.598C109.177 185.614 104.777 192.291 99.8332 198.557C101.13 202.259 102.539 205.918 104.061 209.536C104.162 209.671 104.227 209.828 104.253 209.994C105.452 212.816 106.718 215.608 108.05 218.369C112.082 213.081 115.541 207.379 118.371 201.36C118.427 201.238 118.506 201.129 118.604 201.038C118.702 200.947 118.817 200.876 118.943 200.83C119.068 200.784 119.202 200.764 119.335 200.77C119.469 200.775 119.6 200.808 119.721 200.865C119.842 200.921 119.95 201.002 120.04 201.101C120.13 201.2 120.2 201.316 120.244 201.442C120.289 201.568 120.309 201.702 120.302 201.836C120.295 201.969 120.261 202.1 120.203 202.221C117.173 208.673 113.434 214.767 109.056 220.39C113.934 230.192 119.654 239.551 126.151 248.36C126.298 248.555 126.369 248.796 126.352 249.04C126.335 249.283 126.231 249.512 126.058 249.685L125.939 249.785C125.833 249.864 125.711 249.921 125.582 249.953C125.453 249.985 125.319 249.992 125.188 249.972C125.056 249.953 124.93 249.907 124.816 249.838C124.702 249.77 124.603 249.68 124.524 249.572Z" fill="black"/>
<path opacity="0.1" d="M71.7291 188.485C71.6793 187.042 71.7124 185.597 71.8284 184.158C86.1303 185.321 99.6812 191.053 110.485 200.511C124.749 213.002 133.31 228.832 133.7 247.333C131.173 246.783 128.315 245.252 125.582 244.556C120.64 243.304 116.234 240.521 111.927 237.784C102.599 231.854 93.1711 225.857 85.5364 217.852C77.9017 209.848 72.1129 199.544 71.7291 188.485Z" fill="black"/>
<path d="M132.78 252.978C114.035 253.961 95.4805 248.801 79.9242 238.28C64.368 227.759 52.6566 212.449 46.5624 194.667C56.2839 191.742 66.5423 191.071 76.5612 192.703C86.58 194.336 96.0969 198.229 104.392 204.089C121.196 215.944 131.735 232.417 132.78 252.978Z" fill="#C7DAF2"/>
<path opacity="0.1" d="M141.487 260.718C134.311 251.539 126.341 243.011 117.67 235.233C117.593 235.133 117.499 235.048 117.392 234.981C114.635 232.516 111.812 230.131 108.923 227.825C107.608 219.701 104.771 211.9 100.561 204.832C100.416 204.595 100.183 204.424 99.9139 204.356C99.6445 204.288 99.3591 204.328 99.1188 204.467C98.8793 204.611 98.7064 204.843 98.6382 205.114C98.57 205.385 98.6119 205.672 98.7549 205.912C102.431 212.079 105.031 218.828 106.443 225.87C100.737 221.468 94.7957 217.38 88.6459 213.625C88.63 213.573 88.6101 213.522 88.5863 213.472C85.2171 206.91 81.2881 200.651 76.8432 194.766C76.7628 194.648 76.6593 194.548 76.539 194.472C76.4187 194.395 76.2841 194.344 76.1434 194.321C76.0027 194.298 75.8588 194.304 75.7205 194.338C75.5821 194.373 75.4522 194.435 75.3387 194.521C75.2251 194.608 75.1303 194.716 75.0599 194.84C74.9895 194.965 74.945 195.102 74.9292 195.244C74.9133 195.386 74.9265 195.529 74.9678 195.666C75.0091 195.803 75.0776 195.929 75.1694 196.039C78.8852 200.961 82.2352 206.15 85.1924 211.564C76.1311 206.277 66.6649 201.719 56.8831 197.934C56.7528 197.884 56.6139 197.86 56.4744 197.864C56.3349 197.867 56.1975 197.899 56.07 197.955C55.9425 198.012 55.8275 198.094 55.7315 198.195C55.6354 198.297 55.5603 198.416 55.5104 198.547C55.4604 198.677 55.4366 198.816 55.4403 198.956C55.444 199.096 55.4752 199.233 55.532 199.361C55.5888 199.489 55.6702 199.604 55.7715 199.7C55.8728 199.796 55.992 199.872 56.1223 199.922C62.1692 202.259 68.075 204.887 73.8396 207.807L56.7508 209.682C56.478 209.718 56.23 209.86 56.0602 210.077C55.8905 210.294 55.8123 210.569 55.8426 210.843C55.8729 211.117 56.0092 211.368 56.2223 211.542C56.4354 211.717 56.7083 211.801 56.9824 211.776L76.8895 209.589C76.9828 209.578 77.074 209.553 77.1607 209.517C83.3828 212.815 89.423 216.447 95.2551 220.397C88.1215 223.334 80.7628 225.689 73.2508 227.441C73.1161 227.472 72.9889 227.53 72.8765 227.61C72.764 227.691 72.6685 227.793 72.5954 227.91C72.5223 228.028 72.473 228.158 72.4504 228.295C72.4278 228.432 72.4322 228.571 72.4635 228.706C72.4948 228.841 72.5523 228.969 72.6327 229.081C72.7131 229.194 72.8149 229.289 72.9322 229.363C73.0496 229.436 73.1802 229.485 73.3166 229.508C73.4529 229.531 73.5925 229.526 73.7271 229.495C81.7993 227.617 89.6965 225.053 97.3325 221.828C100.68 224.156 103.951 226.586 107.144 229.117C107.249 229.257 107.388 229.369 107.547 229.442C110.039 231.425 112.483 233.471 114.878 235.578C108.479 238.155 101.826 240.045 95.0302 241.217C94.8888 241.234 94.7524 241.28 94.6293 241.352C94.5062 241.424 94.3989 241.52 94.314 241.634C94.229 241.749 94.1682 241.879 94.1352 242.018C94.1021 242.157 94.0976 242.301 94.1218 242.442C94.146 242.582 94.1985 242.716 94.276 242.836C94.3536 242.956 94.4546 243.058 94.573 243.138C94.6913 243.217 94.8245 243.272 94.9645 243.298C95.1045 243.324 95.2484 243.322 95.3874 243.291C102.681 242.038 109.813 239.976 116.651 237.142C125.102 244.754 132.876 253.088 139.886 262.05C140.039 262.243 140.256 262.377 140.498 262.426C140.74 262.476 140.992 262.439 141.209 262.321L141.341 262.235C141.453 262.147 141.546 262.037 141.614 261.912C141.682 261.787 141.725 261.65 141.738 261.508C141.752 261.366 141.736 261.223 141.693 261.087C141.65 260.951 141.58 260.826 141.487 260.718Z" fill="black"/>
<path fill-rule="evenodd" clip-rule="evenodd" d="M261.445 19.3223L104.531 110.043C98.9865 113.25 94.448 121.082 94.448 127.457L95.2022 298.879C95.2022 305.253 99.7407 307.844 105.285 304.637L262.2 213.917C267.744 210.709 272.282 202.877 272.282 196.503L271.528 25.0806C271.528 18.7061 266.99 16.1152 261.445 19.3223Z" fill="#C7DAF2"/>
<path fill-rule="evenodd" clip-rule="evenodd" d="M259.58 20.7601L106.456 109.334C101.044 112.461 96.618 120.108 96.618 126.33L96.876 295.93C96.876 302.152 101.302 304.677 106.714 301.549L259.838 212.975C265.25 209.848 269.676 202.195 269.676 195.979L269.418 26.3792C269.418 20.1572 264.992 17.6325 259.58 20.7601Z" fill="white"/>
<path fill-rule="evenodd" clip-rule="evenodd" d="M259.58 20.7601L106.456 109.334C101.044 112.461 96.618 120.108 96.618 126.33V154.744L269.418 54.7928V26.3792C269.418 20.1572 264.992 17.6325 259.58 20.7601Z" fill="#366D8B"/>
<path fill-rule="evenodd" clip-rule="evenodd" d="M135.089 116.656C135.961 116.089 136.687 115.324 137.209 114.424C137.731 113.524 138.034 112.513 138.093 111.474C138.093 109.572 136.77 108.823 135.089 109.764C134.219 110.332 133.494 111.097 132.973 111.997C132.452 112.897 132.151 113.907 132.092 114.946C132.092 116.848 133.442 117.616 135.089 116.656Z" fill="#F0F4FF"/>
<path fill-rule="evenodd" clip-rule="evenodd" d="M123.088 123.6C123.959 123.032 124.684 122.268 125.204 121.367C125.725 120.467 126.027 119.457 126.085 118.418C126.085 116.516 124.762 115.768 123.088 116.702C122.217 117.269 121.492 118.034 120.972 118.934C120.451 119.835 120.149 120.845 120.091 121.884C120.091 123.785 121.441 124.574 123.088 123.6Z" fill="#F0F4FF"/>
<path fill-rule="evenodd" clip-rule="evenodd" d="M111.093 130.538C111.964 129.97 112.689 129.206 113.21 128.305C113.73 127.405 114.032 126.395 114.09 125.356C114.09 123.454 112.767 122.706 111.093 123.64C110.222 124.207 109.495 124.971 108.973 125.871C108.452 126.772 108.149 127.782 108.09 128.822C108.09 130.723 109.439 131.492 111.093 130.538Z" fill="#F0F4FF"/>
<path d="M127.488 234.021L138.304 240.647L163.597 213.519L173.686 176.922C173.898 176.154 173.856 175.339 173.564 174.597C173.273 173.856 172.749 173.23 172.072 172.814L165.456 168.732C164.901 168.391 164.266 168.206 163.616 168.194C162.966 168.182 162.324 168.345 161.758 168.666L130.544 186.331C129.616 186.858 128.844 187.622 128.307 188.545C127.77 189.468 127.487 190.517 127.488 191.586V234.021Z" fill="#D2E6F9"/>
<path d="M138.304 240.674L174.414 220.192V177.286C174.413 176.976 174.331 176.672 174.176 176.403C174.022 176.134 173.8 175.911 173.533 175.754C173.266 175.598 172.962 175.514 172.653 175.51C172.343 175.507 172.038 175.585 171.767 175.736L141.335 192.964C140.406 193.491 139.634 194.255 139.097 195.178C138.56 196.101 138.278 197.15 138.278 198.219L138.304 240.674Z" fill="#00717E"/>
<path d="M152.019 205.872C152.019 202.685 154.05 198.954 156.551 197.529C159.052 196.105 161.083 197.529 161.083 200.73C160.994 203.134 160.112 205.441 158.575 207.29L160.031 214.579L153.071 218.555L154.527 209.589C153.045 209.477 152.019 208.125 152.019 205.872Z" fill="white"/>
<path d="M141.255 187.848C141.866 187.845 142.452 187.6 142.884 187.167C143.316 186.734 143.561 186.148 143.564 185.536V169.798C143.564 164.232 147.302 157.527 151.735 155.161C153.342 154.3 154.778 154.16 155.79 154.77C157.014 155.506 157.715 157.321 157.715 159.746V175.464C157.691 175.783 157.733 176.104 157.839 176.406C157.944 176.709 158.111 176.986 158.328 177.221C158.546 177.456 158.809 177.643 159.102 177.771C159.395 177.899 159.711 177.965 160.031 177.965C160.351 177.965 160.667 177.899 160.96 177.771C161.253 177.643 161.516 177.456 161.734 177.221C161.951 176.986 162.118 176.709 162.223 176.406C162.329 176.104 162.371 175.783 162.347 175.464V159.746C162.347 155.645 160.818 152.371 158.165 150.774C155.704 149.29 152.634 149.39 149.565 151.053C143.61 154.24 138.94 162.476 138.94 169.798V185.536C138.943 186.149 139.188 186.737 139.622 187.17C140.056 187.603 140.643 187.847 141.255 187.848Z" fill="#00717E"/>
<path d="M222.842 138.138C225.045 135.209 226.507 131.737 226.507 128.861C226.507 124.349 222.842 123.103 218.337 126.092C213.831 129.08 210.166 135.17 210.166 139.682C210.166 142.525 211.621 144.069 213.831 144.075C208.843 149.224 205.264 156.394 205.264 162.019L207.44 160.575C207.44 154.558 212.329 146.428 218.337 142.452C224.344 138.476 229.233 140.133 229.233 146.149L231.409 144.705C231.409 139.112 227.83 136.68 222.842 138.138ZM218.323 140.305C215.015 142.492 212.329 141.577 212.329 138.271C212.329 134.964 215.015 130.491 218.323 128.331C221.631 126.171 224.317 127.059 224.317 130.366C224.317 133.672 221.631 138.118 218.323 140.305Z" fill="#11345E"/>
<path d="M260.539 145.341L184.523 189.3V178.598L260.539 134.646V145.341Z" fill="#D2E6F9"/>
<path d="M260.539 162.722L184.523 206.68V195.979L260.539 152.027V162.722Z" fill="#D2E6F9"/>
<path d="M213.128 186.236C213.173 184.974 212.189 183.915 210.929 183.87C209.669 183.824 208.611 184.811 208.566 186.072C208.521 187.334 209.506 188.394 210.766 188.439C212.025 188.484 213.083 187.498 213.128 186.236Z" fill="#11345E"/>
<path d="M221.687 181.204C221.733 179.942 220.748 178.883 219.488 178.838C218.228 178.793 217.171 179.779 217.125 181.041C217.08 182.302 218.065 183.362 219.325 183.407C220.585 183.452 221.642 182.466 221.687 181.204Z" fill="#11345E"/>
<path d="M230.232 176.16C230.186 177.419 231.443 178.406 230.186 178.36C229.886 178.349 229.591 178.279 229.318 178.154C229.046 178.029 228.8 177.852 228.596 177.632C228.392 177.412 228.233 177.154 228.128 176.872C228.023 176.591 227.975 176.291 227.986 175.991C227.997 175.691 228.066 175.396 228.191 175.122C228.316 174.849 228.493 174.603 228.713 174.399C228.932 174.194 229.19 174.035 229.471 173.93C229.752 173.825 230.051 173.777 230.351 173.788C231.595 173.841 230.265 174.901 230.232 176.16Z" fill="#11345E"/>
<path d="M238.793 171.141C238.838 169.879 237.853 168.82 236.593 168.775C235.334 168.73 234.276 169.716 234.231 170.978C234.186 172.239 235.17 173.299 236.43 173.344C237.69 173.389 238.748 172.403 238.793 171.141Z" fill="#11345E"/>
<path d="M247.345 166.116C247.39 164.854 246.405 163.795 245.146 163.75C243.886 163.705 242.828 164.691 242.783 165.953C242.738 167.214 243.723 168.274 244.982 168.319C246.242 168.364 247.3 167.378 247.345 166.116Z" fill="#11345E"/>
<path d="M252.064 195.396L199.693 225.678C199.448 225.82 199.17 225.895 198.886 225.895C198.603 225.895 198.325 225.82 198.08 225.679C197.834 225.537 197.63 225.333 197.489 225.088C197.347 224.842 197.272 224.564 197.272 224.28V214.029C197.272 213.746 197.347 213.467 197.488 213.222C197.63 212.977 197.834 212.773 198.079 212.631L250.45 182.349C250.695 182.207 250.973 182.132 251.256 182.132C251.54 182.132 251.818 182.207 252.063 182.348C252.309 182.49 252.512 182.694 252.654 182.939C252.796 183.185 252.871 183.463 252.871 183.747V194.011C252.869 194.292 252.793 194.568 252.651 194.811C252.51 195.054 252.307 195.256 252.064 195.396Z" fill="#00717E"/>
<path d="M213.805 213.824V207.602L215.267 206.753V211.617L217.351 210.411V211.736L213.805 213.824Z" fill="white"/>
<path d="M223.279 205.229C223.301 206.196 223.073 207.153 222.617 208.006C222.148 208.826 221.461 209.501 220.632 209.954C219.785 210.444 219.124 210.548 218.647 210.265C218.171 209.982 217.951 209.32 217.986 208.277C217.964 207.314 218.192 206.362 218.647 205.514C219.116 204.692 219.803 204.015 220.632 203.559C221.514 203.06 222.176 202.954 222.617 203.241C223.058 203.528 223.279 204.191 223.279 205.229ZM219.554 207.403C219.554 208.604 219.918 208.995 220.645 208.575C221.008 208.365 221.296 208.045 221.466 207.661C221.662 207.178 221.755 206.658 221.737 206.137C221.788 205.711 221.693 205.281 221.466 204.918C221.285 204.728 221.014 204.728 220.652 204.918C219.92 205.346 219.554 206.174 219.554 207.403Z" fill="white"/>
<path d="M226.428 202.884L228.763 201.558V204.911C228.134 205.524 227.432 206.056 226.672 206.495C225.839 206.976 225.195 207.071 224.741 206.78C224.286 206.488 224.066 205.826 224.079 204.792C224.072 203.816 224.33 202.856 224.827 202.016C225.335 201.161 226.058 200.455 226.924 199.968C227.23 199.788 227.554 199.639 227.89 199.524C228.144 199.433 228.408 199.372 228.677 199.345L228.214 200.929C227.758 200.953 227.316 201.094 226.931 201.34C226.504 201.586 226.158 201.952 225.938 202.393C225.697 202.881 225.577 203.42 225.587 203.964C225.561 204.166 225.575 204.372 225.629 204.569C225.684 204.766 225.778 204.95 225.905 205.11C226.117 205.291 226.421 205.267 226.818 205.037C227.031 204.916 227.232 204.776 227.42 204.62V203.646L226.454 204.202L226.428 202.884Z" fill="white"/>
<path d="M229.868 204.534V198.312L231.337 197.463V203.685L229.868 204.534Z" fill="white"/>
<path d="M237.661 200.028L235.743 201.134L233.758 197.894H233.725C233.774 198.557 233.798 199.069 233.798 199.431V202.234L232.475 202.983V196.801L234.387 195.694L236.371 198.875C236.336 198.269 236.318 197.777 236.318 197.397V194.587L237.642 193.832L237.661 200.028Z" fill="white"/>
<path fill-rule="evenodd" clip-rule="evenodd" d="M325.871 28.4932L259.93 66.6275C258.706 67.4272 257.685 68.503 256.95 69.7687C256.214 71.0343 255.785 72.4548 255.696 73.9164V128.437C255.696 131.088 257.602 132.208 259.93 130.856L325.871 92.7682C327.095 91.9684 328.116 90.8927 328.851 89.627C329.587 88.3613 330.016 86.9409 330.105 85.4793V30.9317C330.131 28.2546 328.206 27.1679 325.871 28.4932Z" fill="#D1D4EB"/>
<path fill-rule="evenodd" clip-rule="evenodd" d="M324.693 30.5803L261.677 67.0249C260.502 67.7924 259.524 68.8254 258.821 70.0407C258.117 71.2561 257.709 72.6199 257.628 74.0223V126.125C257.628 128.682 259.447 129.723 261.677 128.437L324.693 91.9927C325.868 91.2253 326.846 90.1923 327.549 88.9769C328.253 87.7615 328.661 86.3978 328.742 84.9954V32.8929C328.742 30.3285 326.916 29.2882 324.693 30.5803Z" fill="#00717E"/>
<path d="M294.174 66.8524C295.464 65.1428 296.311 63.1152 296.311 61.452C296.311 58.8015 294.174 58.0925 291.541 59.8352C288.908 61.5779 286.771 65.1362 286.771 67.7867C286.771 69.4499 287.624 70.3511 288.908 70.3511C285.99 73.3594 283.906 77.5406 283.906 80.8339L285.177 79.9923C285.177 76.4804 288.028 71.7294 291.541 69.3903C295.054 67.0512 297.905 68.065 297.905 71.5504L299.176 70.7089C299.176 67.4223 297.092 65.9976 294.174 66.8524ZM291.528 68.118C289.596 69.3969 288.028 68.8602 288.028 66.9319C288.028 65.0037 289.596 62.3863 291.528 61.114C293.46 59.8418 295.067 60.3653 295.067 62.2869C295.067 64.2085 293.473 66.8392 291.541 68.118H291.528Z" fill="white"/>
<path d="M321.987 70.3579L264.74 103.463V95.4052L321.987 62.3003V70.3579Z" fill="white"/>
<path d="M321.987 82.9877L264.74 116.093V108.035L321.987 74.9302V82.9877Z" fill="white"/>
<path d="M286.293 100.693C286.327 99.7422 285.584 98.9437 284.635 98.9097C283.686 98.8756 282.888 99.6189 282.854 100.57C282.821 101.521 283.563 102.319 284.512 102.353C285.461 102.387 286.259 101.644 286.293 100.693Z" fill="#11345E"/>
<path d="M292.744 96.904C292.778 95.9531 292.036 95.1546 291.087 95.1206C290.137 95.0866 289.34 95.8298 289.306 96.7807C289.272 97.7316 290.014 98.53 290.964 98.5641C291.913 98.5981 292.71 97.8548 292.744 96.904Z" fill="#11345E"/>
<path d="M299.183 93.1149C299.217 92.164 298.475 91.3656 297.525 91.3316C296.576 91.2975 295.779 92.0408 295.745 92.9917C295.711 93.9425 296.453 94.741 297.402 94.775C298.352 94.809 299.149 94.0658 299.183 93.1149Z" fill="#11345E"/>
<path d="M305.621 89.3258C305.655 88.375 304.913 87.5765 303.964 87.5425C303.014 87.5084 302.217 88.2517 302.183 89.2026C302.149 90.1535 302.891 90.9519 303.841 90.9859C304.79 91.02 305.587 90.2767 305.621 89.3258Z" fill="#11345E"/>
<path d="M312.067 85.5299C312.101 84.5791 311.358 83.7806 310.409 83.7466C309.46 83.7125 308.663 84.4558 308.629 85.4067C308.595 86.3576 309.337 87.156 310.286 87.19C311.235 87.2241 312.033 86.4808 312.067 85.5299Z" fill="#11345E"/>
<path d="M137.564 333.249C138.033 338.815 129.995 345.435 119.608 348.019C109.221 350.603 100.422 348.191 99.9656 342.625C99.5091 337.059 107.534 330.44 117.921 327.855C128.308 325.271 137.094 327.683 137.564 333.249Z" fill="#C8E6EB"/>
<path d="M314.022 306.048C314.61 313.052 304.501 321.368 291.448 324.602C278.395 327.836 267.334 324.821 266.745 317.817C266.156 310.813 276.265 302.497 289.318 299.263C302.371 296.029 313.439 299.044 314.022 306.048Z" fill="#C8E6EB"/>
<path d="M127.726 222.995C133.548 225.387 133.799 239.309 135.096 241.084C137.127 243.867 145.364 254.456 146.343 256.159C147.322 257.862 143.544 260.599 142.373 259.38C141.421 258.412 133.283 250.229 130.002 246.922C129.123 246.038 128.609 244.855 128.559 243.609L127.726 222.995Z" fill="#9EBBDB"/>
<path d="M106.098 333.879C106.098 333.879 106.886 304.06 106.886 300.9C106.886 297.739 103.578 276.442 106.601 266.695L129.757 268.848C129.757 268.848 130.213 278.688 130.213 279.45C130.213 280.603 126.707 311.257 127.15 326.199L118.08 327.06C118.08 327.06 117.914 307.294 119.674 299.594C119.76 294.956 119.403 284.52 119.403 284.52C119.403 284.52 116.346 298.494 116.022 301.748C115.698 305.001 113.674 334.488 113.674 334.488C111.161 334.156 108.632 333.952 106.098 333.879Z" fill="#366D8B"/>
<path d="M100.323 244.709C100.323 244.709 99.2577 240.899 102.136 234.822C103.783 231.344 108.467 228.421 114.104 225.678C124.848 220.443 129.042 221.775 130.465 226.858C131.126 229.223 131.728 238.202 131.034 243.172C129.896 251.302 129.426 264.76 130.127 269.842C130.266 270.856 127.223 273.394 120.905 274.779C116.32 275.78 105.887 275.442 104.861 271.181L105.457 246.498L100.323 244.709Z" fill="#C7DAF2"/>
<path d="M118.94 230.37C121.655 230.37 123.855 228.966 123.855 227.235C123.855 225.504 121.655 224.101 118.94 224.101C116.225 224.101 114.024 225.504 114.024 227.235C114.024 228.966 116.225 230.37 118.94 230.37Z" fill="#FCAE6E"/>
<path d="M114.785 219.165H123.518V228.011C123.518 228.16 123.459 228.303 123.353 228.409C123.248 228.515 123.105 228.574 122.956 228.574H115.87C115.582 228.574 115.306 228.459 115.103 228.256C114.899 228.052 114.785 227.775 114.785 227.487V219.165Z" fill="#FCAE6E"/>
<path d="M115.738 219.165C115.699 221.102 116.273 223.001 117.376 224.592C118.48 226.184 120.058 227.385 121.884 228.024C122.07 228.087 122.268 228.105 122.463 228.076C122.657 228.047 122.842 227.972 123.002 227.858C123.161 227.743 123.291 227.592 123.381 227.417C123.471 227.242 123.518 227.048 123.518 226.851V219.165H115.738Z" fill="#F29955"/>
<path d="M126.753 215.355C126.369 221.153 125.271 225.685 122.301 225.685C117.895 225.685 114.779 221.046 114.779 215.235C114.779 209.424 115.03 206.25 119.41 206.25C123.789 206.25 127.13 209.656 126.753 215.355Z" fill="#FCAE6E"/>
<path d="M114.785 223.306C114.778 221.047 115 218.794 115.447 216.58C115.877 214.38 116.201 213.598 118.093 213.174C118.649 213.048 122.989 214.413 124.047 214.281C125.417 214.115 126.482 211.63 126.766 213.525C126.766 213.525 127.54 212.2 126.581 208.947C125.787 206.243 113.832 202.413 112.35 212.783C111.576 218.051 114.024 220.543 114.785 223.306Z" fill="#111B33"/>
<path d="M116.915 217.7C116.915 219.125 116.982 220.543 115.87 220.543C114.759 220.543 113.363 218.754 113.363 217.329C113.363 215.904 113.793 215.123 114.904 215.123C116.016 215.123 116.915 216.276 116.915 217.7Z" fill="#FCAE6E"/>
<path d="M127.56 269.06H127.448C124.755 268.987 124.299 265.648 126.945 265.118C128.01 264.979 129.059 264.732 130.074 264.382L131.477 262.229C131.781 261.758 133.362 260.241 133.819 260.539C134.275 260.837 133.058 262.527 132.899 262.984C132.899 262.984 131.708 264.972 133.197 264.276C134.487 263.653 137.709 258.313 137.537 262.288C137.339 266.728 131.259 269.094 127.56 269.06Z" fill="#FCAE6E"/>
<path d="M100.21 242.151C100.21 242.151 101.315 260.3 101.679 262.063C102.043 263.825 107.891 272.996 127.388 269.782C127.754 267.866 127.867 265.91 127.726 263.965C123.902 263.733 112.139 263.759 109.499 259.691C108.606 258.306 108.315 249.943 108.315 249.943C108.445 248.859 108.322 247.76 107.955 246.732C107.588 245.704 106.987 244.776 106.201 244.02C105.414 243.264 104.463 242.702 103.422 242.378C102.381 242.053 101.28 241.976 100.204 242.151H100.21Z" fill="#9EBBDB"/>
<path d="M118.166 326.583C118.166 326.583 118.239 330.135 118.166 331.056C118.093 331.977 126.601 337.278 130.425 337.941C131.174 338.118 131.958 338.088 132.692 337.854C133.426 337.621 134.083 337.193 134.593 336.615C134.747 336.428 134.862 336.211 134.931 335.978C135 335.746 135.022 335.501 134.995 335.26C134.969 335.019 134.894 334.785 134.776 334.573C134.658 334.361 134.499 334.174 134.308 334.024C131.443 331.717 128.852 329.087 126.588 326.186L118.166 326.583Z" fill="#111B33"/>
<path d="M106.687 333.74C106.687 333.74 105.854 338.186 105.986 339.266C106.118 340.346 106.826 347.145 112.642 346.86C118.457 346.575 114.626 339.571 114.269 338.63C113.912 337.689 113.138 333.76 113.138 333.76L106.687 333.74Z" fill="#111B33"/>
<path d="M123.458 223.783C123.382 223.538 123.378 223.276 123.448 223.029C123.517 222.782 123.656 222.561 123.849 222.392C124.193 222.06 124.841 221.875 125.06 222.299C125.278 222.723 124.749 223.664 124.457 223.856C124.166 224.048 123.511 224.048 123.458 223.783Z" fill="#FCAE6E"/>
<path d="M134.209 262.613L139.568 262.05L147.54 253.084L142.175 253.648L134.209 262.613Z" fill="#00717E"/>
<path d="M134.209 262.613L132.906 261.182L140.871 252.216L142.175 253.648L134.209 262.613Z" fill="#1B2851"/>
<path d="M147.54 253.085L146.237 251.653L140.871 252.217L142.175 253.648L147.54 253.085Z" fill="#1B2851"/>
<path d="M145.866 254.966C145.145 255.781 144.285 255.934 142.79 256.119C141.295 256.305 139.7 256.305 139.449 256.974C139.198 257.643 140.706 257.729 140.706 257.729C140.706 257.729 143.141 257.729 143.022 257.941C142.903 258.153 140.739 258.445 139.998 258.485C138.675 258.544 138.08 258.485 138.013 259.147C137.921 260.108 141.626 259.446 141.559 259.81C141.493 260.174 138.589 260.473 138.351 260.658C138.113 260.844 138.351 261.155 139.423 261.321C140.494 261.486 142.982 261.42 144.12 260.658C146.601 259.068 148.017 256.252 147.54 254.913L147.064 253.588L145.866 254.966Z" fill="#FCAE6E"/>
<path d="M117.59 220.894C116.929 218.674 115.777 215.116 117.59 213.34H115.738V219.038C115.738 219.282 115.786 219.523 115.879 219.748C115.972 219.974 116.108 220.178 116.28 220.35C116.452 220.523 116.657 220.659 116.881 220.753C117.106 220.846 117.347 220.894 117.59 220.894Z" fill="#111B33"/>
<path d="M251.403 195.257C251.403 195.257 251.164 193.03 250.973 192.301C250.781 191.573 250.377 188.684 249.616 187.736C248.855 186.788 248.849 189.128 248.637 189.784C248.425 190.44 247.413 190.811 246.652 189.85C245.892 188.889 245.118 186.344 244.423 185.112C243.728 183.879 240.453 188.14 240.87 190.413C241.189 192.563 242.272 194.526 243.92 195.939C245.567 197.391 247.572 197.755 248.201 198.484L251.403 195.257Z" fill="#FCAE6E"/>
<path d="M294.994 306.267C294.994 306.267 295.299 307.175 291.402 307.387C287.505 307.599 283.364 307.599 282.801 310.15C282.239 312.701 285.858 315.696 290.079 316.279C293.737 316.783 300.056 316.405 303.628 315.696C304.224 315.577 304.74 315.299 304.819 314.696C305.092 312.714 304.918 310.697 304.31 308.792C303.231 305.346 294.994 306.267 294.994 306.267Z" fill="#111B33"/>
<path d="M284.343 309.162C284.343 309.162 284.647 310.064 280.75 310.276C276.854 310.488 272.712 310.488 272.15 313.039C271.588 315.59 274.644 317.611 278.891 318.201C282.55 318.704 289.874 319.049 292.785 319.168C293.073 319.184 293.356 319.089 293.577 318.903C293.798 318.717 293.941 318.454 293.976 318.168C294.239 316.222 294.307 314.256 294.181 312.297C293.956 308.685 284.343 309.162 284.343 309.162Z" fill="#111B33"/>
<path d="M303.615 245.941C303.615 245.941 304.038 277.304 304.316 281.12C304.594 284.937 305.448 308.056 305.448 308.056C305.448 308.056 298.904 311.369 293.823 309.097L290.919 249.46L303.615 245.941Z" fill="#033F75"/>
<path d="M294.445 247.916V279.331C294.73 288.515 295.246 312.602 295.246 312.602C290.907 313.151 286.525 311.994 283.02 309.375C283.443 305.28 283.02 282.107 283.02 282.107C281.485 270.087 280.572 250.765 280.413 247.213C280.413 246.842 280.413 246.644 280.413 246.644L294.445 247.916Z" fill="#366D8B"/>
<path d="M308.127 201.651C308.127 201.651 312.923 216.607 311.885 224.512C309.345 226.619 306.567 228.421 303.608 229.879L308.127 201.651Z" fill="#9EBBDB"/>
<path d="M290.51 198.232C295.172 198.22 298.94 193.546 298.925 187.793C298.91 182.04 295.118 177.387 290.456 177.399C285.793 177.411 282.026 182.085 282.041 187.837C282.056 193.59 285.848 198.244 290.51 198.232Z" fill="#FCAE6E"/>
<path d="M296.549 195.886C296.549 195.886 290.436 195.476 285.679 198.789C285.409 199.455 284.949 200.027 284.356 200.432C283.403 201.095 276.331 203.745 276.331 203.745C276.331 203.745 280.751 233.603 278.356 247.167C278.356 247.167 288.656 255.218 304.733 247.167C304.733 247.167 307.082 210.173 308.12 201.605C308.127 201.651 305.448 198.331 296.549 195.886Z" fill="#C7DAF2"/>
<path d="M276.344 203.792L264.337 206.555L251.502 193.488C251.502 193.488 246.996 194.879 246.09 198.742L261.393 216.15L280.208 214.506C280.208 214.506 284.713 205.11 276.344 203.792Z" fill="#9EBBDB"/>
<path d="M287.426 176.922C287.426 176.922 278.217 178.81 280.77 183.727C282.259 186.596 291.078 187.557 291.078 187.557C291.078 187.557 286.407 190.121 289.854 191.314C289.854 191.314 290.403 195.866 296.655 195.469C296.655 195.469 306.063 183.197 294.571 177.379C292.26 176.659 289.81 176.503 287.426 176.922Z" fill="#111B33"/>
<path d="M159.442 28.3142C159.912 31.7466 158.026 35.8417 155.241 37.4519C152.456 39.0621 149.843 37.5711 149.366 34.1387C148.89 30.7063 150.782 26.6378 153.561 25.0342C156.339 23.4306 158.986 24.9017 159.442 28.3142ZM154.943 35.2387C156.756 34.1917 157.954 31.581 157.669 29.3413C157.385 27.1016 155.684 26.2004 153.858 27.2275C152.918 27.8754 152.171 28.7667 151.697 29.8065C151.223 30.8463 151.039 31.9955 151.166 33.1315C151.47 35.3646 153.15 36.2923 154.95 35.2652" fill="#00717E"/>
<path d="M75.9633 102.045C76.433 105.477 74.5475 109.572 71.7622 111.182C68.9769 112.792 66.3637 111.301 65.8873 107.869C65.411 104.437 67.3031 100.368 70.0818 98.7646C72.8605 97.161 75.5002 98.6387 75.9633 102.045ZM71.4513 108.976C73.264 107.929 74.4615 105.318 74.177 103.078C73.8925 100.839 72.1923 99.9374 70.3663 100.964C69.4302 101.61 68.6858 102.497 68.2118 103.532C67.7378 104.566 67.5518 105.71 67.6736 106.842C67.978 109.075 69.6584 110.003 71.4579 108.976" fill="#366D8B"/>
<path d="M298.025 18.6198C298.494 22.0523 296.609 26.1473 293.823 27.7575C291.038 29.3677 288.425 27.8768 287.949 24.4444C287.472 21.0119 289.364 16.9434 292.143 15.3398C294.922 13.7363 297.561 15.2404 298.025 18.6198ZM293.519 25.5443C295.332 24.4974 296.529 21.8866 296.245 19.6469C295.96 17.4072 294.26 16.5061 292.434 17.5331C291.504 18.1828 290.766 19.0716 290.298 20.106C289.83 21.1403 289.649 22.282 289.775 23.4107C290.079 25.6437 291.759 26.5714 293.559 25.5443" fill="#00717E"/>
<path d="M105.748 71.4579C105.141 71.8226 104.648 72.3507 104.325 72.9819C104.086 73.476 103.819 73.956 103.525 74.4198C103.318 74.7053 103.051 74.9427 102.744 75.1156C102.574 75.2344 102.378 75.3113 102.172 75.3401C101.966 75.3688 101.757 75.3487 101.56 75.2813C101.198 75.095 100.81 74.9632 100.409 74.8903C99.9987 74.876 99.5942 74.9895 99.2511 75.215C99.1624 75.2813 99.0916 75.3687 99.0454 75.4695C98.9992 75.5702 98.9789 75.6809 98.9865 75.7915C98.9865 76.0168 99.1849 76.1096 99.3636 76.0102C99.5341 75.8914 99.7302 75.8145 99.9359 75.7857C100.142 75.7569 100.351 75.7771 100.548 75.8445C100.911 76.0293 101.299 76.1609 101.699 76.2355C102.096 76.2488 102.488 76.1427 102.824 75.9306C103.444 75.5628 103.948 75.0278 104.279 74.3867C104.516 73.8947 104.781 73.4168 105.073 72.9554C105.278 72.6588 105.544 72.4101 105.854 72.2265C106.023 72.1069 106.218 72.03 106.423 72.0023C106.628 71.9746 106.837 71.997 107.031 72.0675C107.393 72.2522 107.778 72.386 108.176 72.4651C108.573 72.4785 108.965 72.3723 109.301 72.1603C109.921 71.7928 110.425 71.2577 110.756 70.6164C110.996 70.1258 111.261 69.648 111.55 69.1851C111.758 68.8987 112.024 68.6594 112.331 68.4827C112.499 68.3637 112.693 68.287 112.897 68.2593C113.101 68.2316 113.308 68.2537 113.502 68.3237C113.867 68.5041 114.254 68.6355 114.653 68.7146C115.05 68.728 115.442 68.6218 115.778 68.4098C116.398 68.0431 116.903 67.5078 117.233 66.8659C117.472 66.3751 117.737 65.8974 118.027 65.4346C118.235 65.1502 118.501 64.9131 118.808 64.7388C118.9 64.6721 118.973 64.5828 119.02 64.4795C119.068 64.3762 119.088 64.2625 119.079 64.1491C119.079 64.1052 119.067 64.062 119.044 64.0243C119.022 63.9866 118.99 63.9556 118.951 63.9346C118.912 63.9136 118.869 63.9033 118.825 63.9049C118.781 63.9066 118.739 63.9199 118.702 63.9437C118.096 64.3083 117.605 64.8365 117.286 65.4677C117.047 65.962 116.779 66.442 116.485 66.9056C116.278 67.1909 116.012 67.4281 115.705 67.6014C115.534 67.718 115.339 67.7932 115.135 67.8208C114.93 67.8484 114.722 67.8277 114.527 67.7604C114.164 67.5747 113.777 67.443 113.376 67.3695C112.967 67.3533 112.562 67.4644 112.218 67.6875C111.61 68.0514 111.117 68.5797 110.796 69.2116C110.557 69.7058 110.289 70.1859 109.995 70.6495C109.788 70.9351 109.522 71.1725 109.215 71.3453C109.046 71.4654 108.851 71.5426 108.645 71.5703C108.44 71.598 108.231 71.5754 108.037 71.5043C107.674 71.3194 107.286 71.1877 106.886 71.1133C106.481 71.1115 106.084 71.2316 105.748 71.4579Z" fill="#00717E"/>
<path d="M207.831 21.4029C206.418 22.2481 205.272 23.4743 204.523 24.9413C203.966 26.0798 203.345 27.1859 202.664 28.2544C202.185 28.9173 201.569 29.4688 200.857 29.8713C200.465 30.1505 200.012 30.3317 199.535 30.3997C199.059 30.4678 198.573 30.4206 198.118 30.2622C197.358 30.0038 196.584 29.4472 195.472 29.3544C194.522 29.3243 193.584 29.5855 192.786 30.1032C192.575 30.2495 192.406 30.4492 192.297 30.6819C192.188 30.9147 192.142 31.1722 192.164 31.4284C192.237 31.9453 192.627 32.164 193.037 31.9254C193.429 31.6452 193.883 31.464 194.36 31.397C194.837 31.3301 195.323 31.3795 195.776 31.5411C196.537 31.7995 197.311 32.3495 198.423 32.4489C199.345 32.4831 200.257 32.2358 201.036 31.7399C202.476 30.8881 203.647 29.6482 204.417 28.1617C204.968 27.0225 205.584 25.9163 206.263 24.8485C206.745 24.1844 207.363 23.6309 208.075 23.2251C208.466 22.9471 208.917 22.7677 209.392 22.7019C209.867 22.6362 210.35 22.6861 210.801 22.8474C211.562 23.1058 212.336 23.6558 213.447 23.7618C214.37 23.7915 215.28 23.5446 216.061 23.0528C217.498 22.2009 218.668 20.9609 219.435 19.4746C219.992 18.339 220.608 17.2331 221.281 16.1615C221.774 15.5114 222.399 14.9719 223.113 14.5778C223.503 14.3027 223.952 14.1258 224.425 14.0624C224.897 13.9989 225.378 14.0507 225.826 14.2133C226.6 14.4585 227.374 15.0218 228.472 15.1211C229.393 15.1561 230.302 14.9087 231.079 14.4121C232.521 13.5635 233.693 12.3228 234.459 10.8339C235.016 9.69764 235.632 8.59171 236.305 7.5208C236.786 6.86018 237.402 6.30915 238.111 5.90398C238.33 5.7551 238.504 5.54936 238.615 5.30887C238.725 5.06837 238.769 4.80221 238.74 4.53897C238.742 4.43541 238.716 4.33322 238.664 4.24366C238.612 4.15409 238.536 4.08061 238.445 4.0313C238.354 3.98199 238.252 3.95875 238.148 3.96414C238.045 3.96954 237.945 4.00335 237.86 4.06187C236.447 4.9033 235.3 6.12765 234.552 7.59368C233.996 8.73259 233.375 9.83877 232.693 10.9068C232.215 11.5684 231.602 12.1197 230.893 12.5236C230.502 12.8006 230.051 12.9794 229.576 13.0452C229.102 13.1109 228.619 13.0616 228.168 12.9013C227.407 12.6429 226.633 12.0863 225.521 11.9935C224.585 11.9695 223.663 12.2281 222.875 12.7357C221.461 13.5792 220.315 14.8059 219.567 16.2741C219.011 17.413 218.39 18.5192 217.708 19.5873C217.228 20.2512 216.609 20.8029 215.895 21.2041C215.505 21.4831 215.054 21.6632 214.579 21.7289C214.104 21.7947 213.62 21.7442 213.17 21.5818C212.409 21.3234 211.635 20.7734 210.523 20.674C209.573 20.6383 208.634 20.8924 207.831 21.4029Z" fill="#366D8B"/>
</svg>
