<svg width="28" height="28" viewBox="0 0 28 28" fill="none" xmlns="http://www.w3.org/2000/svg">
<path fill-rule="evenodd" clip-rule="evenodd" d="M27.1333 14C27.1333 21.7338 21.1631 28 13.7945 28C6.42583 28 0.455566 21.7338 0.455566 14C0.455566 6.26617 6.42583 0 13.7945 0C21.1631 0 27.1333 6.26617 27.1333 14Z" fill="#50B748"/>
<path fill-rule="evenodd" clip-rule="evenodd" d="M16.5994 27.6723C16.8551 27.6175 17.1119 27.558 17.3631 27.4903C17.7933 27.3666 18.2145 27.2161 18.6269 27.0481C19.0438 26.879 19.4484 26.6876 19.843 26.4788C20.2421 26.2641 20.6289 26.032 21.0024 25.7811C21.3759 25.5303 21.736 25.2573 22.0873 24.9656C22.4352 24.6786 22.7698 24.3683 23.0866 24.0405C23.4078 23.7161 23.7113 23.3743 23.9981 23.0196C24.2848 22.6638 24.5539 22.2905 24.8017 21.9031C25.0529 21.5205 25.2875 21.1238 25.5009 20.7131C25.7132 20.3036 25.9089 19.8836 26.0823 19.4555C26.2568 19.0226 26.408 18.5851 26.538 18.1383C26.6514 17.7463 26.747 17.3543 26.8292 16.953L18.9004 8.6358C17.5498 7.21013 15.7135 6.41213 13.7983 6.41213C11.8786 6.40746 10.0389 7.21013 8.6828 8.6358C7.33001 10.058 6.56525 11.9853 6.56525 14.0001C6.56525 16.0103 7.33001 17.9423 8.6828 19.3645L16.5994 27.6676V27.6723Z" fill="#10A711"/>
<path fill-rule="evenodd" clip-rule="evenodd" d="M17.0857 11.6668C16.9812 11.6761 16.8812 11.7169 16.7945 11.7858L12.735 14.9848L10.8542 13.0061C10.4463 12.5651 9.6437 13.4028 10.0683 13.8309L12.2915 16.1643C12.4871 16.3649 12.7917 16.3883 13.0173 16.2191L17.4636 12.7191C17.8371 12.4368 17.607 11.6761 17.1424 11.6668H17.0857ZM13.7943 6.41211C15.644 6.41211 17.4892 7.15528 18.9053 8.63578C20.2592 10.0579 21.024 11.9853 21.024 14.0001C21.024 16.0149 20.2592 17.9423 18.9053 19.3644C17.5503 20.7854 15.714 21.5881 13.7943 21.5881C11.8746 21.5881 10.0383 20.7854 8.6833 19.3644C7.3294 17.9423 6.56464 16.0149 6.56464 14.0001C6.56464 11.9853 7.3294 10.0579 8.6833 8.63578C10.0383 7.21011 11.8791 6.41211 13.7943 6.41211Z" fill="white"/>
</svg>
