<svg width="343" height="343" viewBox="0 0 343 343" fill="none" xmlns="http://www.w3.org/2000/svg">
<path d="M316.048 233.831L316.234 214.605L316.246 213.332L316.314 206.305L316.36 201.486L318.299 200.965V196.889L276.644 186.398C283.335 184.104 288.082 182.476 289.506 181.988C303.491 175.674 304.921 141.235 289.506 137.028L275.146 134.242L261.314 131.559L263.092 131.211L265.731 130.696L276.099 128.669C276.234 128.641 276.372 128.611 276.513 128.578C276.564 128.566 276.617 128.551 276.668 128.538C276.76 128.516 276.851 128.493 276.945 128.468C277.007 128.451 277.071 128.431 277.134 128.413C277.219 128.389 277.304 128.365 277.391 128.338C277.46 128.316 277.531 128.292 277.602 128.269C277.684 128.242 277.765 128.216 277.848 128.187C277.923 128.161 277.999 128.132 278.074 128.104C278.155 128.074 278.236 128.045 278.317 128.014C278.396 127.983 278.476 127.949 278.555 127.916C278.634 127.883 278.713 127.851 278.793 127.816C278.876 127.78 278.96 127.741 279.044 127.702C279.121 127.666 279.198 127.631 279.276 127.594C279.361 127.553 279.447 127.508 279.533 127.464C279.609 127.425 279.686 127.386 279.763 127.345C279.851 127.298 279.939 127.247 280.027 127.198C280.102 127.155 280.177 127.113 280.252 127.069C280.342 127.015 280.432 126.959 280.522 126.902C280.595 126.856 280.668 126.811 280.742 126.763C280.832 126.704 280.922 126.642 281.012 126.58C281.085 126.529 281.158 126.479 281.23 126.427C281.321 126.361 281.411 126.293 281.501 126.224C281.572 126.17 281.643 126.116 281.714 126.06C281.805 125.987 281.896 125.912 281.986 125.836C282.055 125.778 282.124 125.72 282.193 125.66C282.283 125.58 282.373 125.498 282.463 125.414C282.53 125.352 282.597 125.29 282.663 125.226C282.753 125.139 282.842 125.049 282.931 124.957C282.996 124.891 283.06 124.825 283.124 124.757C283.213 124.661 283.301 124.564 283.388 124.465C283.45 124.394 283.512 124.323 283.573 124.251C283.66 124.148 283.746 124.042 283.832 123.935C283.891 123.86 283.95 123.784 284.009 123.707C284.094 123.595 284.178 123.481 284.261 123.365C284.317 123.286 284.372 123.206 284.428 123.125C284.51 123.004 284.592 122.881 284.672 122.755C284.726 122.672 284.778 122.586 284.83 122.501C284.909 122.371 284.987 122.241 285.064 122.106C285.114 122.017 285.163 121.927 285.213 121.835C285.288 121.697 285.363 121.556 285.435 121.412C285.482 121.319 285.527 121.223 285.573 121.128C285.645 120.979 285.715 120.829 285.783 120.675C285.826 120.577 285.867 120.477 285.909 120.378C285.976 120.218 286.043 120.057 286.107 119.891C286.145 119.79 286.182 119.686 286.22 119.582C286.282 119.411 286.344 119.239 286.403 119.062C286.437 118.956 286.47 118.848 286.503 118.74C286.56 118.557 286.617 118.374 286.669 118.184C286.7 118.076 286.728 117.963 286.756 117.852C286.808 117.656 286.858 117.46 286.905 117.257C286.931 117.146 286.953 117.031 286.978 116.917C287.023 116.708 287.067 116.497 287.108 116.28C287.128 116.167 287.146 116.049 287.166 115.934C287.204 115.709 287.242 115.484 287.275 115.251C287.291 115.138 287.303 115.021 287.318 114.907C287.349 114.663 287.38 114.42 287.405 114.169C287.416 114.06 287.423 113.946 287.433 113.836C287.456 113.571 287.48 113.306 287.496 113.033C287.502 112.934 287.505 112.83 287.51 112.729C287.525 112.437 287.539 112.143 287.546 111.84C287.548 111.767 287.546 111.691 287.548 111.618C287.56 110.886 287.553 110.129 287.517 109.335C287.404 106.84 287.085 104.597 286.618 102.595C286.618 102.594 286.618 102.594 286.618 102.594C286.468 101.95 286.302 101.332 286.123 100.738C286.118 100.724 286.114 100.71 286.11 100.696C285.933 100.112 285.743 99.553 285.541 99.0178C285.533 98.9979 285.526 98.978 285.518 98.9583C285.316 98.427 285.104 97.9194 284.881 97.436C284.874 97.4202 284.866 97.4049 284.859 97.3891C284.633 96.901 284.397 96.4362 284.153 95.9968C284.153 95.9965 284.153 95.9962 284.153 95.9959C281.664 91.5166 278.346 89.5687 276.098 90.0082L254.274 81.5675C254.274 81.5675 254.274 81.5675 254.273 81.5675L193.42 58.0321L93.3476 77.5954C93.3476 77.5954 93.3476 77.5954 93.3474 77.5952L64.0533 83.3222V86.6648V117.964V121.983L69.9316 124.256L50.5526 126.895L24.9215 130.386H24.9214V136.066L28.3121 137.028V165.982L24.9214 165.605V171.26L36.2724 174.357L32.9854 174.792C32.7664 174.827 32.5533 174.875 32.3435 174.93C32.28 174.947 32.2184 174.967 32.1559 174.986C32.0083 175.03 31.8623 175.077 31.7191 175.131C31.6535 175.156 31.5887 175.182 31.524 175.208C31.3806 175.268 31.2397 175.332 31.1012 175.401C31.0478 175.428 30.9942 175.453 30.9416 175.481C30.7643 175.575 30.5904 175.676 30.421 175.786C30.4118 175.792 30.4021 175.798 30.3929 175.804C30.2004 175.93 30.0132 176.067 29.8308 176.213C29.8292 176.214 29.8275 176.216 29.8258 176.217C29.6529 176.356 29.4853 176.506 29.3212 176.662C29.2973 176.684 29.2738 176.708 29.2499 176.732C29.1041 176.874 28.9619 177.022 28.8232 177.178C28.8025 177.201 28.7818 177.224 28.7611 177.247C24.1335 182.536 23.6014 195.028 25.9725 204.593C25.9773 204.612 25.982 204.631 25.9867 204.65C26.3307 206.029 26.7348 207.345 27.196 208.57C27.2099 208.607 27.2234 208.644 27.2375 208.68C27.3844 209.066 27.5368 209.443 27.6951 209.81C27.7098 209.844 27.725 209.877 27.7399 209.911C28.0622 210.649 28.4071 211.343 28.774 211.988C28.7957 212.026 28.817 212.065 28.8389 212.103C29.0142 212.406 29.1948 212.696 29.3797 212.976C29.4103 213.022 29.4411 213.067 29.472 213.113C29.6595 213.389 29.8507 213.655 30.0478 213.906C30.0676 213.931 30.088 213.954 30.1081 213.979C30.3011 214.221 30.4984 214.449 30.7001 214.664C30.7212 214.687 30.7414 214.711 30.7625 214.733C30.968 214.948 31.1786 215.145 31.3929 215.331C31.433 215.366 31.4729 215.401 31.5134 215.434C31.7259 215.612 31.9422 215.775 32.1631 215.923C32.2006 215.948 32.2386 215.97 32.2763 215.994C32.5087 216.143 32.7442 216.28 32.9854 216.393C33.155 216.453 33.7509 216.669 34.7268 217.024C35.0056 217.125 35.3153 217.238 35.6551 217.361C35.9948 217.485 36.3645 217.62 36.7629 217.765C37.5598 218.055 38.4721 218.387 39.4911 218.759C39.7458 218.852 40.0072 218.947 40.275 219.045C41.8826 219.631 43.7249 220.303 45.7732 221.05C46.1145 221.174 46.4617 221.301 46.8142 221.43C47.5194 221.687 48.2471 221.953 48.9958 222.226C49.3702 222.363 49.7499 222.501 50.1349 222.642C50.9047 222.923 51.6951 223.211 52.5051 223.507C52.91 223.654 53.3199 223.804 53.7346 223.955C65.3448 228.193 80.6863 233.796 96.774 239.673C97.3487 239.883 97.9241 240.093 98.5005 240.304C138.228 254.817 181.83 270.751 184.762 271.823C184.83 271.849 184.869 271.862 184.87 271.862C184.87 271.862 184.87 271.862 184.87 271.862L318.299 241.22V237.149L316.011 237.66L316.041 234.621L316.048 233.831Z" fill="#EA5B0C"/>
<path d="M316.042 234.553L316.097 228.884L316.105 227.994L316.111 227.333L316.167 221.629L316.181 220.104L316.315 206.305L316.361 201.485L318.3 200.964V196.889L276.645 186.398C276.04 186.605 275.421 186.818 274.785 187.036C253.268 194.414 214.641 207.661 197.851 213.418C192.772 215.16 189.683 216.219 189.683 216.219L36.2733 174.357L35.962 174.398L32.9863 174.791L32.9862 174.791C32.7671 174.827 32.5541 174.875 32.3443 174.93C32.2808 174.947 32.2192 174.967 32.1566 174.986C32.009 175.03 31.8631 175.077 31.7199 175.131C31.6543 175.156 31.5894 175.182 31.5248 175.208C31.3814 175.268 31.2405 175.332 31.1019 175.401C31.0486 175.427 30.9949 175.453 30.9424 175.481C30.7649 175.575 30.591 175.676 30.4217 175.786C30.4125 175.792 30.4028 175.797 30.3936 175.804C30.2013 175.93 30.0139 176.067 29.8316 176.213C29.83 176.214 29.8284 176.216 29.8266 176.217C29.6536 176.356 29.4859 176.505 29.3221 176.662C29.298 176.684 29.2746 176.708 29.2507 176.731C29.1049 176.874 28.9625 177.022 28.8241 177.178C28.8034 177.201 28.7826 177.224 28.762 177.247C28.6081 177.423 28.458 177.606 28.313 177.797C28.3204 177.8 28.328 177.803 28.3355 177.806C24.9693 182.239 24.0108 190.744 24.9273 198.709C24.9258 198.708 24.9237 198.706 24.9224 198.705C24.9262 198.738 24.9329 198.77 24.9368 198.804C25.0406 199.69 25.1718 200.566 25.321 201.431C25.3548 201.627 25.3907 201.821 25.4269 202.015C25.589 202.89 25.7659 203.756 25.9734 204.593C25.9781 204.612 25.983 204.631 25.9876 204.65C26.3316 206.029 26.7357 207.345 27.1969 208.57C27.2108 208.607 27.2245 208.644 27.2384 208.68C27.3853 209.066 27.5378 209.443 27.696 209.81C27.7107 209.844 27.7259 209.877 27.7408 209.911C28.0629 210.649 28.4082 211.343 28.775 211.988C28.7966 212.026 28.818 212.065 28.8398 212.103C29.0152 212.406 29.1957 212.696 29.3806 212.976C29.4112 213.022 29.442 213.067 29.4729 213.113C29.6604 213.389 29.8518 213.655 30.0488 213.906C30.0687 213.931 30.0891 213.954 30.1091 213.979C30.3021 214.221 30.4995 214.449 30.7014 214.665C30.7224 214.687 30.7426 214.711 30.7638 214.733C30.9692 214.948 31.18 215.145 31.3942 215.331C31.4343 215.366 31.4742 215.401 31.5146 215.435C31.727 215.612 31.9434 215.776 32.1642 215.923C32.2017 215.948 32.2397 215.971 32.2774 215.994C32.5098 216.143 32.7453 216.28 32.9865 216.394C33.156 216.453 33.752 216.669 34.7278 217.024C35.0067 217.125 35.3164 217.238 35.6561 217.361C35.9957 217.485 36.3654 217.62 36.7639 217.765C37.1625 217.91 37.5897 218.066 38.0448 218.231C38.4999 218.397 38.9827 218.573 39.492 218.759C39.7468 218.852 40.0081 218.947 40.2761 219.045C41.3476 219.435 42.5239 219.864 43.7957 220.328C44.4316 220.56 45.0914 220.801 45.7742 221.05C46.1155 221.175 46.4626 221.301 46.8151 221.43C47.5203 221.687 48.248 221.953 48.9968 222.226C49.3711 222.363 49.7508 222.501 50.1357 222.642C50.9054 222.923 51.6958 223.211 52.5058 223.507C52.9107 223.655 53.3206 223.804 53.7354 223.956C55.8086 224.712 58.0009 225.513 60.2951 226.35C61.901 226.937 63.557 227.541 65.2571 228.162C66.9571 228.783 68.7013 229.42 70.4839 230.071C75.5768 231.931 80.9826 233.905 86.565 235.944C89.9145 237.168 93.3275 238.414 96.7749 239.674C97.3496 239.883 97.925 240.094 98.5014 240.304C100.807 241.146 103.125 241.993 105.448 242.842C106.609 243.266 107.772 243.691 108.934 244.115C123.465 249.424 137.995 254.733 150.4 259.266C151.695 259.739 152.966 260.203 154.212 260.659C155.49 261.126 156.739 261.582 157.961 262.029C158.56 262.248 159.151 262.464 159.736 262.677C160.399 262.919 161.052 263.158 161.695 263.393C161.926 263.477 162.158 263.562 162.386 263.646C163.246 263.96 164.085 264.266 164.907 264.567C165.284 264.705 165.656 264.841 166.025 264.975C166.594 265.183 167.152 265.387 167.701 265.587C168.015 265.702 168.326 265.816 168.634 265.929C169.037 266.076 169.434 266.221 169.825 266.364C170.949 266.775 172.021 267.166 173.038 267.538C173.23 267.608 173.421 267.678 173.609 267.747C174.09 267.923 174.556 268.093 175.01 268.259C175.167 268.316 175.326 268.374 175.479 268.43C175.959 268.605 176.417 268.773 176.865 268.936C177.143 269.038 177.416 269.138 177.682 269.235C181.62 270.674 184.134 271.593 184.763 271.823C184.831 271.849 184.87 271.862 184.871 271.862C184.871 271.862 184.871 271.862 184.871 271.862L318.3 241.22V237.149L316.013 237.66L316.042 234.645L316.042 234.553Z" fill="#7AB929"/>
<path d="M184.871 271.862C184.87 271.862 184.87 271.862 184.869 271.862C184.593 271.692 184.326 271.497 184.064 271.29C183.988 271.23 183.913 271.166 183.837 271.102C183.639 270.935 183.445 270.757 183.255 270.568C183.19 270.504 183.124 270.443 183.059 270.376C182.824 270.131 182.596 269.87 182.374 269.594C182.305 269.509 182.24 269.417 182.173 269.329C182.017 269.125 181.864 268.914 181.715 268.695C181.631 268.572 181.547 268.447 181.465 268.319C181.328 268.104 181.194 267.88 181.063 267.653C180.946 267.449 180.83 267.242 180.718 267.03C180.599 266.807 180.483 266.581 180.37 266.349C180.273 266.148 180.179 265.942 180.086 265.734C180.016 265.577 179.947 265.418 179.879 265.258C179.78 265.022 179.681 264.787 179.586 264.544C179.579 264.526 179.573 264.507 179.566 264.489C179.332 263.883 179.116 263.254 178.915 262.606C178.894 262.54 178.872 262.474 178.852 262.407C178.751 262.075 178.654 261.739 178.561 261.397C178.557 261.381 178.553 261.365 178.549 261.349C178.255 260.257 178.003 259.121 177.797 257.956C176.264 249.317 177.175 239.121 180.868 233.681C130.199 213.691 78.9219 196.731 28.3349 177.806C24.9688 182.24 24.0102 190.744 24.9267 198.709C24.9253 198.708 24.9232 198.706 24.9219 198.705C24.9256 198.738 24.9324 198.77 24.9363 198.804C25.04 199.69 25.1713 200.566 25.3205 201.431C25.3543 201.628 25.3902 201.821 25.4264 202.016C25.5885 202.891 25.7653 203.756 25.9729 204.593C25.9776 204.612 25.9824 204.631 25.9871 204.65C26.3311 206.029 26.7352 207.345 27.1963 208.57C27.2102 208.607 27.224 208.644 27.2379 208.681C27.3848 209.067 27.5372 209.443 27.6955 209.81C27.7102 209.844 27.7254 209.877 27.7402 209.911C28.0624 210.649 28.4076 211.343 28.7744 211.988C28.7961 212.026 28.8174 212.065 28.8392 212.103C29.0146 212.406 29.1952 212.697 29.3801 212.976C29.4106 213.022 29.4415 213.067 29.4724 213.113C29.6599 213.389 29.8513 213.655 30.0483 213.906C30.0682 213.931 30.0885 213.954 30.1086 213.98C30.3016 214.221 30.4989 214.45 30.7008 214.665C30.7218 214.687 30.7421 214.711 30.7632 214.733C30.9687 214.948 31.1795 215.145 31.3936 215.331C31.4337 215.366 31.4736 215.401 31.514 215.435C31.7264 215.612 31.9429 215.776 32.1637 215.923C32.2012 215.948 32.2392 215.971 32.2768 215.995C32.5093 216.143 32.7448 216.28 32.9859 216.394C33.1555 216.453 33.7515 216.669 34.7273 217.024C35.0061 217.125 35.3158 217.238 35.6556 217.362C35.9952 217.485 36.3649 217.62 36.7633 217.765C37.1619 217.91 37.5891 218.066 38.0443 218.232C38.4993 218.397 38.9821 218.573 39.4915 218.759C39.7462 218.852 40.0076 218.947 40.2756 219.045C41.3471 219.436 42.5233 219.864 43.7951 220.329C44.431 220.56 45.0908 220.801 45.7736 221.05C46.115 221.175 46.462 221.301 46.8146 221.43C47.5198 221.688 48.2475 221.953 48.9962 222.226C49.3706 222.363 49.7503 222.501 50.1351 222.642C50.9049 222.923 51.6953 223.211 52.5053 223.507C52.9102 223.655 53.3201 223.805 53.7348 223.956C55.808 224.713 58.0004 225.513 60.2945 226.351C61.9004 226.937 63.5564 227.542 65.2565 228.162C66.9565 228.783 68.7008 229.42 70.4833 230.071C75.5763 231.931 80.982 233.905 86.5644 235.944C89.9139 237.168 93.3269 238.414 96.7744 239.674C97.349 239.884 97.9245 240.094 98.5009 240.304C100.806 241.146 103.125 241.993 105.447 242.842C106.609 243.266 107.771 243.691 108.934 244.116C123.464 249.424 137.994 254.733 150.399 259.266C151.695 259.739 152.965 260.203 154.212 260.659C155.49 261.126 156.739 261.582 157.96 262.029C158.559 262.248 159.151 262.464 159.735 262.677C160.398 262.919 161.051 263.158 161.695 263.393C161.925 263.477 162.158 263.563 162.386 263.646C163.246 263.96 164.085 264.267 164.907 264.567C165.284 264.705 165.656 264.841 166.025 264.975C166.593 265.183 167.152 265.387 167.7 265.588C168.015 265.703 168.326 265.816 168.633 265.929C169.036 266.076 169.434 266.221 169.824 266.364C170.949 266.775 172.02 267.166 173.037 267.538C173.229 267.608 173.421 267.678 173.609 267.747C174.09 267.923 174.556 268.093 175.01 268.259C175.167 268.316 175.325 268.374 175.479 268.43C175.958 268.605 176.417 268.773 176.864 268.936C177.143 269.038 177.416 269.138 177.681 269.235C181.62 270.674 184.133 271.593 184.763 271.823C184.808 271.839 184.845 271.853 184.871 271.862Z" fill="#739B2F"/>
<path d="M190.606 235.284C190.606 235.284 182.662 237.194 183.735 251.235C184.759 264.653 189.557 265.928 189.557 265.928L196.252 264.432L316.012 237.66L316.041 234.646L316.042 234.553L316.097 228.884L316.105 227.994L316.112 227.333L316.167 221.629L316.181 220.104L316.315 206.305L316.361 201.486L190.606 235.284Z" fill="#DBDBDB"/>
<path d="M314.213 213.81C293.363 218.672 272.621 224.153 252.131 230.261C272.964 225.839 293.691 220.819 314.2 215.162L314.148 220.528C302.092 223.029 290.07 225.992 278.275 229.436C290.302 227.465 302.306 225.029 314.132 222.127L314.079 227.671C307.107 228.855 300.204 230.481 293.464 232.562C300.396 231.915 307.282 230.867 314.063 229.349L314.016 234.203C290.602 238.419 267.396 243.585 244.385 249.517C267.792 245.554 290.989 240.815 314.007 235.141L313.992 236.612L195.448 263.413C194.64 262.305 193.986 261.12 193.48 259.886C207.517 257.575 221.367 254.24 234.88 249.914C220.812 252.126 206.925 255.369 193.367 259.605C192.663 257.795 192.278 255.89 192.213 253.979C197.708 253.192 203.061 251.545 208.016 249.119C202.564 249.633 197.213 250.988 192.206 253.116C192.249 250.413 192.929 247.732 194.242 245.332C209.417 242.424 224.383 238.531 239.013 233.681C223.947 236.434 209.078 240.16 194.53 244.823C196.019 242.32 198.219 240.155 201.128 238.648C219.809 232.753 291.738 212.476 314.281 206.81L314.213 213.81Z" fill="white"/>
<path d="M283.053 146.635C279.352 147.787 189.683 178.307 189.683 178.307V178.388L184.871 177.154L28.313 137.028V165.982L189.683 210.09C189.683 210.09 277.433 179.99 284.189 177.673C284.892 177.397 285.551 177.034 286.178 176.617C291.52 166.048 290.923 149.4 283.053 146.635Z" fill="#F2F2F2"/>
<path d="M283.053 146.635C279.352 147.787 189.683 178.307 189.683 178.307V178.388V210.09C189.683 210.09 277.433 179.99 284.189 177.673C284.892 177.397 285.551 177.034 286.178 176.617C291.52 166.048 290.923 149.4 283.053 146.635Z" fill="#DBDBDB"/>
<path d="M67.2554 214.726L142.207 240.997V229.368L67.2554 202.183V214.726Z" fill="#DBDBDB"/>
<path d="M266.29 234.376C249.349 237.378 232.626 241.501 216.281 246.733C233.224 243.74 249.942 239.599 266.29 234.376Z" fill="#DBDBDB"/>
<path d="M130.424 147.651L69.9324 124.256L50.5534 126.895C53.2476 128.557 56.1704 129.804 59.1009 130.61C83.2537 137.037 106.738 143.131 130.424 147.651Z" fill="#ED7004"/>
<path d="M187.421 146.004L186.459 146.192L171.166 149.182L170.934 149.227L156.934 151.965C160.813 152.478 164.703 152.949 168.614 153.35C202.738 156.259 245.774 149.915 275.147 134.242L261.315 131.559L189.536 145.591L187.421 146.004Z" fill="#ED7004"/>
<path d="M189.683 178.388V178.307C189.683 178.307 279.352 147.787 283.053 146.635C290.923 149.4 291.52 166.048 286.178 176.617C296.931 169.465 296.447 142.897 283.053 139.588C279.352 140.74 189.683 171.26 189.683 171.26L153.155 162.198L144.501 160.051L24.9223 130.386V136.066L28.3129 137.028L184.871 177.154L189.683 178.388Z" fill="#C34109"/>
<path d="M189.683 216.219V210.09L28.313 165.982L24.9223 165.605V171.26L36.2733 174.357L189.683 216.219Z" fill="#C34109"/>
<path d="M287.551 110.595C287.547 110.184 287.538 109.766 287.519 109.335C287.406 106.838 287.085 104.596 286.618 102.594L286.619 102.594C286.469 101.949 286.303 101.331 286.124 100.737C286.12 100.723 286.115 100.709 286.111 100.695C285.934 100.111 285.744 99.5518 285.542 99.0163C285.534 98.9969 285.527 98.9775 285.52 98.958C285.318 98.4266 285.105 97.9189 284.882 97.4352C284.875 97.4195 284.868 97.4041 284.86 97.3884C284.634 96.9003 284.399 96.4353 284.154 95.9959C284.154 95.9956 284.154 95.9955 284.154 95.9952C281.665 91.5159 278.347 89.5679 276.099 90.0074L254.275 81.5668L193.421 58.0318L93.3485 77.5953C93.3485 77.5953 93.3485 77.5952 93.3485 77.5951L64.0544 83.322V86.6648V92.5109V117.964V121.983L69.9326 124.257L130.424 147.652L146.733 153.959L156.934 151.965L170.934 149.228L171.166 149.182L186.459 146.193L187.421 146.005L189.537 145.591L261.315 131.559L263.047 131.22L265.732 130.695L276.099 128.669C276.234 128.641 276.373 128.611 276.514 128.578C276.566 128.565 276.621 128.55 276.674 128.537C276.739 128.521 276.805 128.504 276.871 128.487C276.875 128.486 276.878 128.485 276.881 128.484C276.902 128.479 276.923 128.474 276.945 128.468C277.007 128.451 277.071 128.431 277.134 128.413C277.22 128.389 277.304 128.365 277.391 128.338C277.46 128.316 277.532 128.292 277.602 128.269C277.684 128.242 277.765 128.216 277.849 128.187C277.924 128.161 278 128.132 278.076 128.104C278.156 128.074 278.236 128.045 278.317 128.014C278.397 127.982 278.477 127.948 278.557 127.915C278.636 127.882 278.714 127.851 278.793 127.816C278.876 127.78 278.96 127.74 279.044 127.702C279.122 127.666 279.199 127.631 279.276 127.594C279.362 127.552 279.448 127.508 279.534 127.464C279.61 127.424 279.687 127.386 279.764 127.345C279.851 127.298 279.939 127.248 280.026 127.198C280.102 127.155 280.177 127.113 280.253 127.068C280.343 127.015 280.432 126.959 280.521 126.903C280.595 126.857 280.669 126.811 280.742 126.763C280.833 126.704 280.923 126.641 281.014 126.579C281.086 126.529 281.158 126.479 281.23 126.427C281.322 126.361 281.413 126.292 281.504 126.223C281.574 126.169 281.644 126.116 281.714 126.06C281.806 125.987 281.896 125.912 281.987 125.836C282.056 125.778 282.125 125.72 282.193 125.66C282.284 125.58 282.374 125.498 282.464 125.414C282.531 125.352 282.597 125.29 282.664 125.226C282.754 125.138 282.844 125.048 282.933 124.956C282.997 124.891 283.061 124.825 283.124 124.757C283.213 124.662 283.301 124.564 283.389 124.464C283.451 124.394 283.513 124.323 283.574 124.25C283.661 124.147 283.747 124.041 283.833 123.934C283.892 123.859 283.951 123.784 284.009 123.708C284.094 123.595 284.179 123.481 284.262 123.364C284.318 123.285 284.373 123.206 284.428 123.125C284.511 123.004 284.593 122.881 284.673 122.755C284.726 122.672 284.779 122.586 284.831 122.501C284.91 122.371 284.988 122.239 285.065 122.105C285.115 122.017 285.164 121.927 285.213 121.837C285.289 121.697 285.363 121.556 285.436 121.411C285.483 121.318 285.528 121.223 285.574 121.128C285.645 120.979 285.716 120.829 285.784 120.674C285.827 120.577 285.868 120.478 285.91 120.378C285.977 120.218 286.044 120.056 286.108 119.889C286.146 119.789 286.183 119.686 286.22 119.584C286.282 119.412 286.345 119.239 286.403 119.061C286.438 118.956 286.47 118.848 286.504 118.741C286.561 118.557 286.617 118.373 286.67 118.183C286.7 118.075 286.728 117.964 286.756 117.855C286.808 117.658 286.859 117.46 286.906 117.257C286.931 117.145 286.954 117.03 286.978 116.917C287.023 116.707 287.068 116.497 287.108 116.28C287.129 116.167 287.147 116.05 287.166 115.935C287.205 115.709 287.243 115.483 287.276 115.249C287.292 115.139 287.304 115.024 287.318 114.912C287.349 114.667 287.381 114.422 287.406 114.168C287.417 114.06 287.424 113.946 287.434 113.836C287.457 113.571 287.48 113.306 287.497 113.032C287.503 112.933 287.505 112.829 287.511 112.729C287.525 112.436 287.54 112.143 287.547 111.84C287.548 111.767 287.547 111.691 287.548 111.618C287.554 111.281 287.558 110.941 287.553 110.591C287.553 110.592 287.552 110.593 287.551 110.595Z" fill="#BD1365"/>
<path d="M146.733 153.959C150.999 153.125 155.092 150.478 156.119 141.729C156.355 139.72 156.43 137.39 156.308 134.685C156.152 131.238 155.666 128.383 154.978 126.018C154.165 123.22 153.069 121.114 151.903 119.528C150.084 117.054 148.093 115.85 146.733 115.298L64.0542 83.322V86.6648L140.888 115.833C143.383 116.846 151.119 121.294 151.647 132.959C152.198 145.124 149.682 149.575 145.75 149.575L64.0542 117.964V121.983L69.9324 124.256L130.424 147.651L146.733 153.959Z" fill="#660D37"/>
<path d="M254.275 81.5668C254.275 81.5668 254.275 81.5668 254.275 81.5668C250.411 82.3364 246.508 83.1236 242.578 83.9108L247.735 85.7437L218.784 90.9599L214.086 89.2902C172.598 96.3438 129.761 98.8998 93.3485 77.5949C93.3485 77.5949 93.3485 77.5949 93.3485 77.5948L64.0544 83.3217L146.733 115.297L163.869 111.947L167.509 111.236L175.814 109.612L177.526 109.277L258.232 93.5001L259.125 93.3255L267.307 91.7258L270.011 91.1973L276.099 90.0071L254.275 81.5668Z" fill="#9F1C5A"/>
<path d="M151.647 132.959C151.12 121.294 143.383 116.846 140.888 115.832L64.0542 86.6648V92.5109V117.964L145.75 149.575C149.682 149.575 152.198 145.124 151.647 132.959Z" fill="#F2F2F2"/>
<path d="M287.551 110.595C287.547 110.184 287.538 109.766 287.519 109.334C287.406 106.838 287.085 104.596 286.618 102.594L286.619 102.594C286.469 101.949 286.303 101.331 286.124 100.737C286.12 100.723 286.115 100.709 286.111 100.695C285.934 100.111 285.744 99.5518 285.542 99.0163C285.534 98.9969 285.527 98.9774 285.52 98.958C285.318 98.4266 285.105 97.9189 284.882 97.4352C284.875 97.4195 284.868 97.4041 284.86 97.3884C284.634 96.9002 284.399 96.4353 284.154 95.9959C284.154 95.9956 284.154 95.9955 284.154 95.9952C281.665 91.5159 278.347 89.5679 276.099 90.0074L270.011 91.1976L267.308 91.7262L259.125 93.3258L258.232 93.5004L177.527 109.278L175.814 109.612L167.509 111.236L163.87 111.948L146.733 115.298C148.093 115.85 150.084 117.055 151.903 119.528C153.07 121.114 154.165 123.22 154.979 126.018C155.666 128.383 156.152 131.238 156.308 134.686C156.43 137.39 156.356 139.72 156.12 141.729C155.092 150.478 151 153.125 146.733 153.959L156.934 151.965L170.935 149.228L171.167 149.182L186.459 146.193L187.421 146.005L189.537 145.591L261.315 131.559L263.047 131.22L265.732 130.695L276.1 128.669C276.235 128.641 276.373 128.611 276.514 128.578C276.566 128.565 276.621 128.55 276.674 128.537C276.74 128.521 276.806 128.504 276.872 128.487C276.875 128.486 276.878 128.485 276.881 128.484C276.903 128.479 276.924 128.474 276.945 128.468C277.008 128.451 277.072 128.431 277.135 128.413C277.22 128.388 277.305 128.365 277.391 128.338C277.461 128.316 277.532 128.292 277.602 128.269C277.684 128.242 277.766 128.216 277.849 128.187C277.924 128.161 278.001 128.132 278.076 128.104C278.157 128.074 278.236 128.045 278.318 128.014C278.397 127.982 278.478 127.948 278.558 127.915C278.636 127.882 278.714 127.851 278.794 127.816C278.877 127.78 278.961 127.74 279.045 127.702C279.122 127.666 279.199 127.631 279.277 127.594C279.362 127.552 279.448 127.508 279.534 127.464C279.611 127.424 279.687 127.386 279.764 127.345C279.851 127.298 279.939 127.248 280.027 127.198C280.102 127.155 280.178 127.113 280.253 127.068C280.343 127.015 280.432 126.959 280.521 126.903C280.595 126.857 280.669 126.811 280.743 126.763C280.833 126.704 280.924 126.641 281.014 126.579C281.086 126.529 281.159 126.479 281.231 126.427C281.322 126.361 281.413 126.292 281.504 126.223C281.574 126.169 281.645 126.116 281.715 126.06C281.806 125.987 281.897 125.912 281.987 125.836C282.056 125.778 282.125 125.72 282.194 125.66C282.284 125.58 282.374 125.497 282.464 125.414C282.531 125.352 282.598 125.29 282.664 125.226C282.754 125.138 282.844 125.048 282.933 124.956C282.997 124.891 283.061 124.825 283.124 124.757C283.213 124.662 283.302 124.564 283.389 124.464C283.451 124.394 283.513 124.323 283.574 124.25C283.661 124.147 283.748 124.041 283.833 123.933C283.892 123.859 283.951 123.784 284.009 123.708C284.095 123.595 284.179 123.481 284.262 123.364C284.318 123.285 284.374 123.206 284.429 123.125C284.511 123.004 284.593 122.881 284.673 122.755C284.727 122.672 284.779 122.586 284.831 122.501C284.91 122.371 284.989 122.239 285.065 122.104C285.115 122.017 285.164 121.927 285.213 121.837C285.289 121.697 285.364 121.556 285.437 121.411C285.483 121.318 285.529 121.223 285.574 121.128C285.646 120.979 285.716 120.829 285.784 120.674C285.827 120.577 285.869 120.478 285.91 120.378C285.978 120.217 286.044 120.056 286.108 119.889C286.147 119.789 286.183 119.686 286.22 119.584C286.283 119.412 286.345 119.239 286.404 119.061C286.438 118.956 286.471 118.848 286.504 118.741C286.561 118.557 286.618 118.373 286.671 118.183C286.701 118.075 286.728 117.964 286.757 117.855C286.808 117.658 286.859 117.46 286.906 117.257C286.932 117.145 286.955 117.03 286.979 116.917C287.024 116.707 287.069 116.497 287.109 116.28C287.129 116.167 287.147 116.05 287.167 115.935C287.205 115.709 287.243 115.483 287.276 115.249C287.292 115.139 287.304 115.024 287.318 114.912C287.35 114.667 287.381 114.422 287.406 114.168C287.417 114.06 287.424 113.946 287.434 113.836C287.457 113.571 287.481 113.306 287.497 113.032C287.503 112.933 287.506 112.829 287.511 112.729C287.526 112.436 287.54 112.143 287.547 111.84C287.549 111.767 287.548 111.691 287.549 111.618C287.554 111.281 287.558 110.941 287.554 110.591C287.553 110.592 287.552 110.593 287.551 110.595Z" fill="#86144A"/>
<path d="M247.735 85.7439L242.578 83.911L190.107 65.2624L161.156 70.4786L214.086 89.2905L218.784 90.9601L247.735 85.7439H247.735H247.735Z" fill="#660D37"/>
<path d="M82.6168 84.9308L112.169 95.4339L116.769 94.4688L87.2173 83.9657L82.6168 84.9308Z" fill="#660D37"/>
<path d="M90.3958 83.2409L119.948 93.7439L124.548 92.7788L94.996 82.2757L90.3958 83.2409Z" fill="#660D37"/>
<path d="M176.392 137.769C176.392 137.768 176.392 137.767 176.392 137.766C176.351 136.941 176.294 136.118 176.214 135.298C175.795 131.058 174.973 126.786 173.605 122.704C173.605 122.704 173.605 122.703 173.605 122.703C173.377 122.022 173.132 121.347 172.872 120.677C172.771 120.415 172.671 120.153 172.566 119.893C172.464 119.646 172.36 119.402 172.255 119.158C172.001 118.568 171.74 117.982 171.457 117.406C171.251 116.987 171.028 116.575 170.804 116.165C169.861 114.432 168.765 112.774 167.509 111.236L163.869 111.948L163.085 112.101C164.481 113.575 165.676 115.187 166.702 116.894C166.707 116.902 166.711 116.911 166.716 116.918C167.941 118.961 168.915 121.143 169.694 123.395C169.694 123.397 169.695 123.398 169.695 123.399C169.964 124.176 170.217 124.958 170.44 125.749C171.597 129.861 172.411 134.205 172.54 138.519C172.562 139.254 172.563 139.987 172.545 140.718C172.544 140.742 172.545 140.765 172.544 140.789C172.524 141.54 172.481 142.289 172.411 143.035C172.213 145.162 171.742 147.255 170.934 149.228L171.166 149.182L175.365 148.361C175.504 147.881 175.623 147.396 175.733 146.909C175.772 146.736 175.804 146.562 175.839 146.389C175.903 146.077 175.963 145.764 176.016 145.45C176.052 145.233 176.085 145.016 176.117 144.799C176.155 144.535 176.189 144.27 176.22 144.005C176.249 143.754 176.279 143.504 176.302 143.253C176.32 143.055 176.333 142.857 176.347 142.659C176.434 141.485 176.465 140.303 176.441 139.12C176.441 139.115 176.441 139.11 176.44 139.106C176.431 138.66 176.414 138.214 176.392 137.769Z" fill="#F9B233"/>
<path d="M190.218 137.547C190.208 137.192 190.195 136.838 190.177 136.483C190.173 136.416 190.169 136.349 190.165 136.281C190.143 135.883 190.118 135.486 190.086 135.089C190.059 134.745 190.032 134.402 189.998 134.06C189.541 129.422 188.613 124.743 187.001 120.32C186.744 119.614 186.471 118.914 186.178 118.223C185.885 117.529 185.573 116.843 185.241 116.167C184.989 115.653 184.715 115.149 184.432 114.649C184.277 114.373 184.121 114.096 183.959 113.824C182.886 112.021 181.645 110.31 180.219 108.751L177.526 109.278L175.814 109.612C175.904 109.796 176.023 109.978 176.2 110.151C177.581 111.501 178.766 112.988 179.804 114.563C179.804 114.563 179.805 114.564 179.805 114.564C180.117 115.037 180.411 115.519 180.695 116.008C180.728 116.064 180.761 116.119 180.793 116.175C181.059 116.639 181.311 117.11 181.553 117.586C181.597 117.673 181.64 117.761 181.684 117.848C181.914 118.313 182.136 118.783 182.345 119.258C182.385 119.348 182.422 119.44 182.461 119.53C182.673 120.022 182.878 120.517 183.068 121.018C183.068 121.019 183.068 121.019 183.068 121.02C183.503 122.166 183.892 123.33 184.224 124.51C185.252 128.164 186.002 132.002 186.249 135.839C186.249 135.84 186.249 135.841 186.249 135.841C186.3 136.63 186.324 137.419 186.331 138.206C186.334 138.533 186.336 138.861 186.329 139.187C186.325 139.44 186.319 139.693 186.309 139.946C186.285 140.564 186.253 141.182 186.196 141.796C186.05 143.367 185.757 144.921 185.289 146.421L186.459 146.192L187.421 146.004L189.536 145.591C189.636 145.143 189.722 144.692 189.798 144.239C189.827 144.068 189.849 143.895 189.874 143.722C189.916 143.443 189.959 143.164 189.993 142.883C190.02 142.662 190.04 142.44 190.062 142.219C190.085 141.989 190.109 141.76 190.127 141.53C190.147 141.274 190.161 141.018 190.176 140.762C190.186 140.569 190.198 140.377 190.205 140.184C190.216 139.897 190.223 139.609 190.228 139.321C190.23 139.166 190.232 139.01 190.233 138.854C190.234 138.535 190.232 138.216 190.226 137.896C190.224 137.78 190.221 137.663 190.218 137.547Z" fill="#F9B233"/>
<path d="M265.723 122.287C265.691 121.633 265.658 120.978 265.611 120.324L265.595 120.327C265.265 115.742 264.572 111.184 263.505 106.707L263.513 106.706C263.391 106.194 263.248 105.688 263.116 105.178C262.962 104.578 262.817 103.976 262.649 103.379C262.331 102.248 261.99 101.122 261.623 100.004L261.621 100.005C261.601 99.9443 261.585 99.8825 261.565 99.822C260.84 97.6263 260.02 95.4619 259.125 93.3261L258.232 93.5007L255.205 94.0928C256.138 96.2605 256.972 98.4663 257.714 100.7C257.715 100.701 257.715 100.702 257.715 100.703C258.08 101.802 258.421 102.907 258.739 104.019C258.74 104.024 258.742 104.03 258.744 104.036C259.061 105.15 259.356 106.27 259.627 107.396C259.627 107.396 259.627 107.397 259.627 107.397C260.711 111.895 261.412 116.476 261.722 121.085C261.722 121.086 261.722 121.087 261.722 121.088C261.762 121.687 261.795 122.287 261.823 122.887C261.826 122.966 261.829 123.045 261.833 123.124C261.856 123.66 261.874 124.196 261.886 124.733C261.891 124.964 261.893 125.195 261.896 125.426C261.902 125.834 261.908 126.243 261.908 126.651C261.907 127.321 261.9 127.99 261.881 128.66C261.856 129.598 261.814 130.536 261.756 131.473L262.18 131.39L263.047 131.221L265.731 130.696C265.788 129.556 265.813 128.415 265.823 127.274C265.826 126.942 265.827 126.611 265.826 126.279C265.823 125.286 265.806 124.294 265.769 123.302C265.757 122.963 265.739 122.625 265.723 122.287Z" fill="#F9B233"/>
<path d="M277.755 120.523C277.745 120.278 277.727 120.035 277.715 119.791C277.687 119.186 277.659 118.581 277.618 117.977L277.6 117.98C277.29 113.463 276.638 108.968 275.613 104.552L275.616 104.552C275.351 103.412 275.062 102.278 274.749 101.15C274.586 100.558 274.399 99.9737 274.222 99.3857C274.068 98.8722 273.926 98.3551 273.761 97.8444L273.753 97.8458C273.683 97.6262 273.624 97.4029 273.552 97.1838C272.857 95.0814 272.076 93.0074 271.226 90.9599L270.011 91.1974L267.308 91.726C268.26 93.9606 269.106 96.2354 269.856 98.5392C270.575 100.748 271.199 102.985 271.728 105.243V105.244C272.768 109.68 273.44 114.196 273.728 118.737V118.738C273.802 119.908 273.85 121.08 273.875 122.252C273.877 122.36 273.878 122.468 273.88 122.576C273.899 123.724 273.899 124.873 273.868 126.021C273.84 127.06 273.787 128.097 273.719 129.133L276.099 128.668C276.347 128.618 276.605 128.557 276.872 128.486C276.875 128.485 276.878 128.484 276.881 128.484C277.149 128.412 277.426 128.328 277.708 128.233C277.767 127.084 277.794 125.933 277.807 124.782C277.81 124.468 277.813 124.153 277.813 123.838C277.812 122.733 277.798 121.628 277.755 120.523Z" fill="#F9B233"/>
<path d="M175.732 146.909C175.771 146.736 175.804 146.562 175.839 146.389C175.903 146.076 175.963 145.764 176.016 145.449C176.052 145.233 176.085 145.016 176.117 144.799C176.154 144.535 176.188 144.27 176.219 144.005C176.249 143.754 176.278 143.504 176.302 143.252C176.32 143.055 176.333 142.857 176.347 142.659C176.434 141.484 176.464 140.303 176.44 139.12C176.44 139.115 176.44 139.11 176.44 139.105C176.431 138.66 176.415 138.215 176.392 137.769C176.392 137.768 176.392 137.767 176.392 137.766L172.54 138.519C172.562 139.253 172.563 139.987 172.544 140.718C172.544 140.742 172.545 140.765 172.544 140.789C172.524 141.54 172.48 142.289 172.411 143.035C172.213 145.162 171.742 147.255 170.934 149.227L171.166 149.182L175.365 148.361C175.503 147.881 175.623 147.396 175.732 146.909Z" fill="#F07E31"/>
<path d="M186.25 135.839C186.25 135.84 186.25 135.841 186.25 135.841C186.3 136.63 186.325 137.419 186.332 138.206C186.334 138.533 186.336 138.861 186.33 139.188C186.326 139.441 186.319 139.693 186.31 139.946C186.285 140.564 186.253 141.182 186.196 141.796C186.05 143.367 185.757 144.921 185.29 146.421L186.459 146.192L187.421 146.004L189.537 145.591C189.636 145.143 189.722 144.692 189.799 144.239C189.828 144.068 189.849 143.895 189.875 143.722C189.917 143.443 189.96 143.164 189.994 142.883C190.021 142.662 190.04 142.441 190.063 142.219C190.086 141.989 190.11 141.76 190.128 141.53C190.148 141.275 190.162 141.018 190.176 140.762C190.187 140.57 190.198 140.377 190.205 140.185C190.217 139.897 190.223 139.609 190.228 139.322C190.231 139.166 190.233 139.01 190.234 138.854C190.235 138.535 190.232 138.216 190.226 137.896C190.224 137.78 190.221 137.663 190.218 137.547C190.208 137.192 190.195 136.838 190.177 136.483C190.174 136.416 190.169 136.349 190.166 136.281C190.144 135.883 190.118 135.486 190.087 135.089L186.25 135.839Z" fill="#F07E31"/>
<path d="M265.826 126.279C265.824 125.286 265.807 124.293 265.769 123.301C265.757 122.963 265.74 122.625 265.723 122.287C265.691 121.633 265.658 120.978 265.611 120.324L265.595 120.327L261.722 121.085C261.722 121.086 261.722 121.087 261.722 121.088C261.763 121.687 261.796 122.287 261.823 122.887C261.827 122.966 261.83 123.045 261.833 123.124C261.856 123.66 261.874 124.196 261.887 124.733C261.892 124.964 261.893 125.195 261.897 125.426C261.902 125.834 261.909 126.242 261.908 126.651C261.907 127.32 261.9 127.99 261.882 128.659C261.856 129.598 261.815 130.536 261.757 131.472L262.181 131.39L263.047 131.22L265.732 130.695C265.788 129.556 265.813 128.415 265.823 127.274C265.826 126.942 265.827 126.61 265.826 126.279Z" fill="#F07E31"/>
<path d="M277.807 124.783C277.81 124.468 277.813 124.154 277.813 123.839C277.812 122.733 277.798 121.628 277.755 120.523C277.745 120.279 277.727 120.035 277.715 119.791C277.687 119.186 277.659 118.582 277.618 117.977L277.6 117.981L273.728 118.738V118.738C273.803 119.908 273.85 121.08 273.875 122.252C273.878 122.36 273.878 122.469 273.88 122.577C273.9 123.725 273.899 124.873 273.868 126.022C273.84 127.06 273.787 128.097 273.719 129.134L276.1 128.668C276.347 128.618 276.605 128.558 276.872 128.486C276.875 128.485 276.878 128.485 276.881 128.484C277.149 128.412 277.426 128.329 277.708 128.233C277.767 127.084 277.794 125.934 277.807 124.783Z" fill="#F07E31"/>
<path d="M173.605 122.704L173.605 122.703C173.377 122.022 173.132 121.347 172.872 120.677C172.771 120.415 172.671 120.153 172.566 119.893C172.464 119.646 172.36 119.402 172.255 119.158C172.001 118.568 171.74 117.982 171.457 117.406C171.251 116.987 171.028 116.575 170.805 116.165L166.702 116.894C166.707 116.902 166.711 116.911 166.716 116.918C167.94 118.961 168.915 121.143 169.694 123.395C169.694 123.397 169.695 123.398 169.695 123.399L173.605 122.704Z" fill="#FFD332"/>
<path d="M180.793 116.176C181.059 116.639 181.311 117.11 181.553 117.586C181.597 117.673 181.641 117.761 181.684 117.849C181.915 118.313 182.136 118.783 182.345 119.258C182.385 119.348 182.423 119.44 182.462 119.531C182.674 120.022 182.878 120.517 183.068 121.019C183.068 121.019 183.069 121.019 183.069 121.02L187.001 120.32C186.744 119.614 186.47 118.915 186.178 118.223C185.885 117.529 185.573 116.843 185.242 116.167C184.989 115.653 184.715 115.149 184.433 114.649C184.277 114.373 184.121 114.096 183.959 113.824L179.804 114.563C179.804 114.563 179.805 114.564 179.805 114.564C180.117 115.037 180.412 115.52 180.696 116.008C180.728 116.064 180.761 116.12 180.793 116.176Z" fill="#FFD332"/>
<path d="M258.744 104.036C259.062 105.15 259.356 106.27 259.627 107.395C259.627 107.396 259.628 107.396 259.628 107.397L263.505 106.707L263.513 106.706C263.391 106.194 263.248 105.688 263.116 105.178C262.962 104.578 262.817 103.976 262.649 103.379C262.331 102.248 261.99 101.122 261.624 100.004L261.621 100.005L257.714 100.7C257.715 100.701 257.715 100.702 257.715 100.703C258.08 101.802 258.421 102.907 258.739 104.019C258.74 104.024 258.742 104.03 258.744 104.036Z" fill="#FFD332"/>
<path d="M271.728 105.243V105.244L275.613 104.552L275.616 104.552C275.351 103.412 275.062 102.278 274.749 101.15C274.586 100.558 274.398 99.9737 274.222 99.3857C274.068 98.8722 273.925 98.3551 273.761 97.8444L273.753 97.8458L269.856 98.5392C270.575 100.749 271.199 102.986 271.728 105.243Z" fill="#FFD332"/>
<path d="M262.649 103.379C262.817 103.976 262.961 104.578 263.116 105.178C263.248 105.688 263.391 106.194 263.513 106.706L263.505 106.707L271.728 105.244V105.243C271.199 102.986 270.575 100.749 269.856 98.5394L261.621 100.005L261.624 100.004C261.99 101.122 262.331 102.248 262.649 103.379Z" fill="#A80F59"/>
<path d="M185.242 116.167C185.574 116.844 185.885 117.53 186.178 118.223C186.471 118.915 186.744 119.614 187.001 120.32L259.628 107.397C259.628 107.396 259.628 107.396 259.627 107.395C259.356 106.27 259.062 105.15 258.744 104.036C258.742 104.03 258.741 104.024 258.739 104.018C258.421 102.907 258.081 101.801 257.716 100.703C257.715 100.702 257.715 100.701 257.715 100.7L183.959 113.824C184.122 114.097 184.277 114.373 184.433 114.649C184.715 115.149 184.99 115.653 185.242 116.167Z" fill="#A80F59"/>
<path d="M273.761 97.8445C273.925 98.3552 274.068 98.8722 274.222 99.3858C274.399 99.9738 274.586 100.559 274.749 101.15C275.062 102.278 275.351 103.412 275.616 104.552L286.617 102.595L286.619 102.594C286.469 101.95 286.303 101.331 286.123 100.737C286.119 100.723 286.115 100.709 286.111 100.695C285.934 100.111 285.743 99.5519 285.542 99.0165C285.534 98.997 285.527 98.9776 285.519 98.9582C285.318 98.4268 285.105 97.919 284.882 97.4354C284.875 97.4197 284.868 97.4043 284.86 97.3886C284.634 96.9004 284.398 96.4354 284.154 95.9961C284.154 95.9958 284.154 95.9956 284.154 95.9953L273.753 97.8461L273.761 97.8445Z" fill="#A80F59"/>
<path d="M169.694 123.395C168.915 121.143 167.94 118.961 166.715 116.918C166.711 116.91 166.707 116.902 166.702 116.894L151.903 119.528C153.069 121.114 154.165 123.22 154.978 126.018L169.695 123.399C169.695 123.398 169.694 123.397 169.694 123.395Z" fill="#A80F59"/>
<path d="M172.254 119.158C172.36 119.402 172.464 119.647 172.565 119.893C172.671 120.153 172.771 120.415 172.872 120.677C173.132 121.347 173.377 122.022 173.605 122.703C173.605 122.703 173.605 122.703 173.605 122.704L183.069 121.02C183.069 121.019 183.069 121.019 183.068 121.019C182.879 120.517 182.674 120.022 182.462 119.531C182.423 119.44 182.385 119.348 182.346 119.258C182.136 118.783 181.915 118.313 181.684 117.849C181.641 117.761 181.597 117.674 181.553 117.586C181.311 117.11 181.059 116.639 180.794 116.176C180.762 116.12 180.728 116.064 180.696 116.008C180.412 115.52 180.117 115.037 179.805 114.564C179.805 114.564 179.805 114.563 179.805 114.563L170.805 116.165C171.029 116.575 171.251 116.987 171.457 117.406C171.739 117.982 172.001 118.568 172.254 119.158Z" fill="#A80F59"/>
<path d="M261.757 131.472C261.815 130.536 261.856 129.598 261.882 128.659C261.9 127.99 261.907 127.32 261.908 126.651C261.909 126.242 261.903 125.834 261.897 125.425C261.893 125.195 261.892 124.964 261.887 124.733C261.874 124.196 261.856 123.66 261.833 123.124C261.83 123.045 261.827 122.965 261.823 122.886C261.796 122.287 261.763 121.687 261.722 121.088C261.722 121.087 261.722 121.086 261.722 121.084L190.086 135.089C190.118 135.486 190.143 135.883 190.166 136.281C190.169 136.349 190.173 136.416 190.177 136.483C190.195 136.838 190.208 137.192 190.218 137.547C190.221 137.663 190.224 137.78 190.226 137.896C190.232 138.216 190.235 138.535 190.233 138.854C190.233 139.01 190.23 139.166 190.228 139.322C190.223 139.61 190.217 139.897 190.205 140.185C190.198 140.378 190.187 140.57 190.176 140.762C190.162 141.019 190.147 141.275 190.127 141.53C190.109 141.761 190.085 141.99 190.063 142.219C190.04 142.441 190.021 142.663 189.994 142.884C189.96 143.164 189.917 143.443 189.875 143.723C189.849 143.895 189.827 144.068 189.798 144.24C189.722 144.692 189.636 145.143 189.537 145.591L261.315 131.559L263.047 131.22L262.181 131.39L261.757 131.472Z" fill="#721544"/>
<path d="M278.21 117.861L277.617 117.977C277.659 118.581 277.686 119.186 277.715 119.791C277.727 120.035 277.745 120.279 277.754 120.523C277.798 121.628 277.812 122.733 277.812 123.839C277.812 124.154 277.81 124.468 277.807 124.783C277.794 125.934 277.767 127.084 277.708 128.234C277.425 128.329 277.149 128.412 276.881 128.484C276.903 128.478 276.923 128.474 276.945 128.468C277.007 128.451 277.071 128.431 277.134 128.413C277.22 128.388 277.304 128.365 277.391 128.338C277.461 128.316 277.532 128.292 277.602 128.269C277.684 128.242 277.765 128.216 277.849 128.187C277.924 128.161 278 128.131 278.076 128.103C278.156 128.074 278.236 128.045 278.317 128.013C278.397 127.982 278.477 127.948 278.557 127.915C278.636 127.882 278.714 127.851 278.793 127.816C278.876 127.78 278.961 127.74 279.044 127.702C279.122 127.666 279.199 127.631 279.276 127.594C279.362 127.552 279.448 127.507 279.534 127.463C279.61 127.424 279.687 127.386 279.764 127.345C279.851 127.298 279.939 127.248 280.026 127.198C280.102 127.155 280.178 127.113 280.253 127.068C280.343 127.015 280.432 126.959 280.521 126.903C280.595 126.857 280.669 126.811 280.742 126.763C280.833 126.704 280.923 126.641 281.014 126.579C281.086 126.529 281.158 126.479 281.23 126.427C281.322 126.361 281.413 126.292 281.504 126.223C281.574 126.169 281.644 126.116 281.714 126.06C281.806 125.987 281.896 125.912 281.987 125.835C282.056 125.777 282.125 125.72 282.193 125.66C282.284 125.58 282.374 125.497 282.464 125.414C282.531 125.352 282.597 125.29 282.664 125.226C282.754 125.138 282.844 125.048 282.933 124.956C282.997 124.891 283.061 124.825 283.124 124.757C283.213 124.662 283.301 124.564 283.389 124.464C283.451 124.394 283.513 124.323 283.574 124.25C283.661 124.147 283.747 124.041 283.833 123.933C283.892 123.859 283.951 123.784 284.009 123.707C284.094 123.595 284.179 123.481 284.262 123.364C284.318 123.285 284.373 123.205 284.428 123.125C284.511 123.004 284.593 122.881 284.673 122.755C284.726 122.671 284.779 122.586 284.831 122.5C284.91 122.371 284.988 122.239 285.065 122.104C285.115 122.016 285.164 121.926 285.213 121.836C285.289 121.697 285.363 121.556 285.436 121.411C285.483 121.318 285.528 121.223 285.574 121.128C285.645 120.979 285.716 120.829 285.784 120.674C285.827 120.577 285.868 120.477 285.91 120.378C285.977 120.217 286.044 120.055 286.108 119.889C286.146 119.789 286.183 119.686 286.22 119.584C286.282 119.412 286.345 119.239 286.403 119.061C286.438 118.956 286.47 118.848 286.504 118.741C286.561 118.557 286.617 118.373 286.67 118.182C286.7 118.075 286.728 117.964 286.756 117.854C286.808 117.658 286.859 117.46 286.906 117.256C286.931 117.145 286.954 117.03 286.979 116.917C287.023 116.707 287.068 116.497 287.108 116.28C287.129 116.167 287.147 116.05 287.166 115.935C287.205 115.709 287.243 115.483 287.276 115.249C287.292 115.139 287.304 115.024 287.318 114.912C287.349 114.666 287.381 114.422 287.406 114.168C287.417 114.059 287.424 113.946 287.434 113.836C287.457 113.571 287.48 113.306 287.497 113.032C287.503 112.933 287.505 112.829 287.511 112.729C287.525 112.436 287.54 112.142 287.547 111.839C287.548 111.767 287.547 111.691 287.548 111.617C287.554 111.28 287.558 110.941 287.553 110.591C287.553 110.592 287.552 110.594 287.551 110.595C285.084 115.503 280.993 117.299 278.21 117.861Z" fill="#721544"/>
<path d="M273.868 126.022C273.899 124.873 273.899 123.725 273.88 122.577C273.878 122.469 273.877 122.36 273.875 122.252C273.85 121.08 273.802 119.908 273.728 118.738V118.738L265.611 120.324C265.658 120.978 265.691 121.633 265.723 122.287C265.74 122.625 265.757 122.963 265.769 123.301C265.807 124.293 265.824 125.286 265.827 126.279C265.827 126.611 265.826 126.942 265.823 127.274C265.813 128.415 265.789 129.556 265.732 130.695L276.099 128.668L273.719 129.134C273.787 128.097 273.84 127.06 273.868 126.022Z" fill="#721544"/>
<path d="M186.196 141.796C186.253 141.182 186.285 140.564 186.309 139.946C186.319 139.693 186.326 139.441 186.33 139.188C186.336 138.861 186.334 138.533 186.332 138.206C186.324 137.419 186.3 136.63 186.25 135.841C186.25 135.841 186.25 135.84 186.249 135.839L176.392 137.766H176.392C176.392 137.767 176.392 137.768 176.392 137.769C176.414 138.215 176.431 138.66 176.44 139.105C176.44 139.11 176.44 139.115 176.44 139.12C176.464 140.303 176.435 141.484 176.347 142.659C176.332 142.857 176.319 143.055 176.301 143.252C176.278 143.504 176.248 143.754 176.219 144.005C176.188 144.27 176.154 144.535 176.116 144.799C176.085 145.016 176.052 145.233 176.015 145.449C175.963 145.764 175.902 146.076 175.839 146.389C175.803 146.562 175.771 146.736 175.732 146.909C175.623 147.396 175.503 147.881 175.364 148.361L171.166 149.182L186.459 146.192L185.289 146.421C185.757 144.921 186.05 143.367 186.196 141.796Z" fill="#721544"/>
<path d="M172.411 143.035C172.48 142.289 172.523 141.54 172.544 140.789C172.545 140.765 172.544 140.742 172.544 140.718C172.563 139.987 172.562 139.253 172.54 138.519L156.119 141.729C155.092 150.478 150.999 153.125 146.733 153.959L156.934 151.965L170.934 149.228C171.742 147.255 172.213 145.162 172.411 143.035Z" fill="#721544"/>
<path d="M151.647 132.959C151.12 121.294 143.383 116.846 140.888 115.832L64.0542 86.6648V92.5109L133.587 118.907C136.081 119.92 143.818 124.368 144.346 136.033C144.611 141.881 144.165 145.941 143.196 148.586L64.0542 117.964L145.75 149.575C149.682 149.575 152.198 145.124 151.647 132.959Z" fill="#DBDBDB"/>
<path d="M214.088 89.2913L218.784 90.9601L247.735 85.7439H247.735L242.577 83.9108C233.217 85.7852 223.69 87.6582 214.088 89.2913Z" fill="#4C0525"/>
<path d="M195.877 183.437C211.35 178.129 258.048 160.974 278.275 157.664C286.114 156.382 285.551 177.034 286.178 176.617C291.52 166.048 290.923 149.4 283.053 146.635C279.352 147.787 189.683 178.307 189.683 178.307V178.388V210.09C189.683 210.09 191.96 184.78 195.877 183.437Z" fill="#BDC7C7"/>
<path d="M182.397 187.4L189.683 210.09V178.388L184.871 177.154L28.313 137.028V165.982L32.9862 143.811L182.397 187.4Z" fill="#DBDBDB"/>
<path d="M189.557 265.928C189.557 265.928 184.759 264.653 183.735 251.235C182.662 237.194 190.606 235.284 190.606 235.284L316.361 201.486L318.3 200.965V196.889L236.49 217.35L184.871 230.261C184.571 230.376 184.284 230.52 184.002 230.676C183.94 230.71 183.878 230.742 183.817 230.778C183.57 230.924 183.331 231.089 183.098 231.265C183.002 231.338 182.907 231.415 182.814 231.493C182.658 231.622 182.507 231.76 182.359 231.902C182.183 232.069 182.012 232.245 181.846 232.431C181.777 232.507 181.71 232.584 181.642 232.663C181.373 232.982 181.114 233.32 180.868 233.681C177.176 239.121 176.265 249.317 177.797 257.956C178.004 259.121 178.255 260.257 178.549 261.349C178.553 261.365 178.557 261.381 178.562 261.397C178.654 261.739 178.751 262.075 178.852 262.407C178.873 262.474 178.894 262.54 178.915 262.606C179.116 263.254 179.332 263.883 179.566 264.489C179.573 264.507 179.579 264.526 179.587 264.544C179.681 264.787 179.78 265.022 179.88 265.258C179.947 265.418 180.016 265.577 180.086 265.734C180.179 265.942 180.273 266.148 180.37 266.349C180.483 266.581 180.6 266.807 180.718 267.03C180.831 267.242 180.946 267.449 181.063 267.653C181.195 267.88 181.328 268.104 181.466 268.319C181.548 268.447 181.631 268.572 181.716 268.695C181.865 268.914 182.017 269.125 182.173 269.329C182.24 269.417 182.306 269.509 182.374 269.594C182.596 269.87 182.825 270.131 183.06 270.376C183.124 270.443 183.19 270.504 183.255 270.568C183.445 270.757 183.639 270.935 183.838 271.102C183.913 271.166 183.988 271.23 184.064 271.29C184.327 271.497 184.593 271.692 184.87 271.862C184.87 271.862 184.87 271.862 184.871 271.862L318.3 241.22V237.149L316.012 237.66L196.252 264.432L189.557 265.928Z" fill="#3F6837"/>
<path d="M180.868 233.681C181.114 233.319 181.373 232.982 181.643 232.663C181.71 232.584 181.777 232.506 181.846 232.43C182.012 232.245 182.183 232.069 182.359 231.901C182.508 231.76 182.658 231.622 182.814 231.493C182.907 231.415 183.002 231.338 183.098 231.265C183.331 231.089 183.57 230.924 183.817 230.778C183.878 230.742 183.94 230.71 184.002 230.676C184.284 230.52 184.571 230.376 184.871 230.26L32.9862 174.791C32.7672 174.826 32.5542 174.874 32.3444 174.93C32.2808 174.946 32.2192 174.967 32.1567 174.986C32.0091 175.03 31.8631 175.077 31.7199 175.131C31.6543 175.156 31.5895 175.181 31.5248 175.208C31.3815 175.267 31.2405 175.332 31.102 175.401C31.0486 175.427 30.995 175.453 30.9424 175.481C30.765 175.575 30.591 175.676 30.4218 175.786C30.4126 175.792 30.4029 175.797 30.3937 175.803C30.2013 175.93 30.014 176.066 29.8317 176.213C29.83 176.214 29.8284 176.215 29.8266 176.217C29.6537 176.356 29.4859 176.505 29.3222 176.661C29.2981 176.684 29.2746 176.708 29.2507 176.731C29.1049 176.873 28.9625 177.022 28.8242 177.177C28.8035 177.2 28.7826 177.224 28.7621 177.247C28.6082 177.423 28.458 177.606 28.313 177.797C28.3205 177.8 28.3281 177.803 28.3355 177.805C78.9225 196.731 130.199 213.691 180.868 233.681Z" fill="#B3BE11"/>
<path d="M318.3 196.889L276.645 186.398C276.04 186.605 275.421 186.818 274.785 187.036L318.3 196.889Z" fill="#B7CD00"/>
<path d="M197.852 213.418C210.636 215.269 223.541 216.558 236.49 217.35L318.3 196.889L274.785 187.036C253.269 194.414 214.641 207.66 197.852 213.418Z" fill="#95C11F"/>
<path d="M184.87 271.862C184.593 271.692 184.327 271.497 184.064 271.29C183.988 271.23 183.913 271.166 183.838 271.102C183.639 270.935 183.446 270.757 183.256 270.568C183.19 270.504 183.124 270.443 183.06 270.376C182.825 270.131 182.596 269.87 182.374 269.594C182.306 269.509 182.24 269.417 182.173 269.329C182.017 269.125 181.865 268.914 181.716 268.695C181.632 268.572 181.548 268.447 181.466 268.319C181.328 268.104 181.195 267.88 181.063 267.653C180.946 267.449 180.831 267.242 180.718 267.03C180.6 266.807 180.483 266.581 180.37 266.349C180.273 266.148 180.179 265.942 180.086 265.734C180.016 265.577 179.948 265.418 179.88 265.258C179.78 265.022 179.681 264.787 179.587 264.544C179.58 264.526 179.573 264.507 179.566 264.489C179.333 263.883 179.116 263.254 178.915 262.606C178.894 262.54 178.873 262.474 178.853 262.407C178.752 262.075 178.654 261.739 178.562 261.397C178.558 261.381 178.553 261.365 178.549 261.349C178.255 260.257 178.004 259.121 177.797 257.956C147.421 245.935 34.8787 208.502 24.9272 198.709C24.9257 198.708 24.9236 198.706 24.9223 198.705C24.926 198.738 24.9328 198.771 24.9367 198.804C25.0405 199.69 25.1717 200.566 25.3209 201.431C25.3547 201.628 25.3906 201.821 25.4268 202.016C25.5889 202.891 25.7659 203.756 25.9733 204.593C25.978 204.612 25.9828 204.631 25.9875 204.65C26.3313 206.029 26.7357 207.345 27.1967 208.57C27.2106 208.607 27.2244 208.644 27.2383 208.681C27.3852 209.067 27.5376 209.443 27.6959 209.81C27.7106 209.844 27.7258 209.878 27.7407 209.912C28.0628 210.649 28.4081 211.344 28.7748 211.988C28.7965 212.026 28.8178 212.065 28.8396 212.103C29.015 212.406 29.1956 212.697 29.3805 212.976C29.411 213.022 29.4419 213.067 29.4728 213.113C29.6603 213.389 29.8517 213.656 30.0487 213.906C30.0686 213.931 30.089 213.955 30.109 213.98C30.302 214.221 30.4994 214.45 30.7013 214.665C30.7223 214.687 30.7425 214.711 30.7636 214.733C30.9691 214.948 31.1799 215.146 31.394 215.332C31.4341 215.366 31.4741 215.401 31.5145 215.435C31.7269 215.612 31.9433 215.776 32.1641 215.923C32.2016 215.948 32.2396 215.971 32.2772 215.995C32.5097 216.143 32.7452 216.28 32.9864 216.394C33.1559 216.454 33.7519 216.669 34.7277 217.024C35.0065 217.125 35.3162 217.238 35.656 217.362C35.9956 217.485 36.3653 217.62 36.7637 217.765C37.1623 217.91 37.5895 218.066 38.0447 218.232C38.4997 218.397 38.9826 218.573 39.4919 218.759C39.7466 218.852 40.008 218.947 40.276 219.045C41.3477 219.436 42.5238 219.865 43.7955 220.329C44.4314 220.561 45.0912 220.801 45.774 221.05C46.1154 221.175 46.4624 221.302 46.815 221.43C47.5202 221.688 48.2479 221.953 48.9966 222.226C49.371 222.363 49.7507 222.502 50.1355 222.642C50.9053 222.923 51.6957 223.212 52.5057 223.507C52.9106 223.655 53.3205 223.805 53.7353 223.956C55.8085 224.713 58.0008 225.513 60.2949 226.351C61.9008 226.937 63.5568 227.542 65.257 228.162C66.9569 228.783 68.7012 229.42 70.4838 230.071C75.5767 231.931 80.9824 233.905 86.5648 235.944C89.9143 237.168 93.3274 238.415 96.7748 239.674C97.3494 239.884 97.9249 240.094 98.5013 240.305C100.807 241.147 103.125 241.994 105.448 242.842C106.609 243.266 107.772 243.691 108.934 244.116C123.464 249.424 137.995 254.733 150.4 259.266C151.695 259.739 152.966 260.204 154.212 260.659C155.49 261.126 156.739 261.582 157.961 262.029C158.56 262.248 159.151 262.464 159.736 262.677C160.398 262.92 161.052 263.158 161.695 263.393C161.925 263.478 162.158 263.563 162.386 263.646C163.246 263.96 164.085 264.267 164.907 264.567C165.284 264.705 165.656 264.841 166.025 264.976C166.594 265.183 167.152 265.388 167.701 265.588C168.015 265.703 168.326 265.816 168.634 265.929C169.036 266.076 169.434 266.222 169.825 266.364C170.949 266.775 172.02 267.167 173.038 267.538C173.23 267.609 173.421 267.678 173.609 267.747C174.09 267.923 174.556 268.093 175.01 268.259C175.167 268.316 175.326 268.374 175.479 268.43C181.007 270.45 184.425 271.7 184.871 271.863C184.871 271.862 184.87 271.862 184.87 271.862Z" fill="#578B35"/>
</svg>
