<svg width="343" height="298" viewBox="0 0 343 298" fill="none" xmlns="http://www.w3.org/2000/svg">
<path d="M305.575 164.884C305.575 164.877 305.573 164.87 305.573 164.863C305.558 164.76 305.543 164.658 305.527 164.556L305.523 164.525C305.507 164.427 305.492 164.33 305.475 164.233C305.473 164.219 305.471 164.205 305.468 164.191C305.452 164.094 305.435 163.997 305.417 163.9C305.415 163.889 305.413 163.878 305.411 163.867C305.392 163.763 305.372 163.659 305.351 163.555C305.351 163.552 305.35 163.55 305.35 163.548C305.284 163.22 305.212 162.895 305.132 162.573C305.132 162.572 305.132 162.57 305.131 162.569C305.107 162.469 305.081 162.369 305.055 162.27C305.049 162.247 305.042 162.224 305.036 162.2C305.015 162.121 304.994 162.042 304.972 161.963C304.964 161.935 304.957 161.908 304.949 161.881C304.928 161.806 304.906 161.732 304.884 161.657C304.875 161.626 304.866 161.596 304.857 161.565C304.836 161.494 304.814 161.423 304.792 161.352C304.782 161.32 304.772 161.288 304.762 161.257C304.74 161.185 304.717 161.114 304.694 161.043C304.684 161.014 304.674 160.985 304.665 160.955C304.639 160.878 304.613 160.802 304.587 160.725C304.578 160.701 304.571 160.678 304.562 160.654C304.53 160.561 304.497 160.468 304.463 160.375C304.46 160.369 304.458 160.362 304.456 160.356C304.419 160.255 304.382 160.155 304.343 160.056C304.336 160.036 304.328 160.017 304.32 159.997C304.29 159.919 304.26 159.841 304.229 159.763C304.215 159.73 304.202 159.697 304.188 159.664C304.162 159.601 304.136 159.537 304.11 159.474C304.094 159.436 304.077 159.397 304.061 159.358C304.036 159.3 304.011 159.243 303.986 159.185C303.969 159.146 303.952 159.107 303.934 159.068C303.909 159.01 303.883 158.953 303.857 158.895C303.839 158.855 303.82 158.816 303.802 158.776C303.776 158.72 303.75 158.665 303.724 158.609C303.706 158.57 303.687 158.531 303.669 158.492C303.64 158.433 303.611 158.374 303.582 158.315C303.564 158.28 303.547 158.244 303.53 158.209C303.499 158.148 303.467 158.086 303.436 158.025C303.419 157.992 303.402 157.959 303.385 157.926C303.337 157.833 303.288 157.741 303.238 157.649L298.167 145.438C298.167 145.439 298.166 145.44 298.166 145.441L281.472 105.258L320.087 36.129L317.769 26.2303L111.841 66.7248L81.6174 113.212C80.3227 107.197 82.3739 102.704 82.3739 102.704L76.1789 104.847C72.6997 112.086 75.9253 119.202 75.9253 119.202C69.0618 111.661 72.6595 95.6531 72.6595 95.6531L58.2499 101.823C58.4988 114.312 65.341 125.593 65.341 125.593C56.8544 123.769 51.0556 109.291 51.0556 109.291C48.2971 113.605 45.5406 117.924 42.782 122.239C44.3625 126.594 49.0215 137.788 60.1582 146.218L22.8647 203.579L25.6716 211.606L94.9468 198.797L113.045 242.364L117.739 253.666C118.134 254.98 118.655 256.24 119.301 257.446C124.498 267.066 136.93 271.745 153.464 271.745C153.608 271.745 153.752 271.745 153.897 271.744C154.68 271.74 155.472 271.726 156.273 271.701C156.312 271.701 156.351 271.7 156.39 271.7C156.453 271.698 156.517 271.695 156.581 271.693C156.754 271.686 156.931 271.68 157.108 271.673C157.278 271.666 157.448 271.658 157.618 271.651L157.664 271.649C157.704 271.647 157.744 271.645 157.784 271.643C178.925 270.665 205.848 262.661 232.756 248.119C232.864 248.061 232.973 248.003 233.082 247.943C255.345 235.869 273.882 221.316 286.672 206.901C286.673 206.9 286.674 206.899 286.674 206.899C286.78 206.779 286.886 206.659 286.992 206.54L286.991 206.539C300.243 191.492 307.207 176.617 305.575 164.884Z" fill="#3FBFD4"/>
<path d="M320.086 36.1288L317.768 26.23L111.841 66.7247L81.6173 113.212C82.8189 118.794 86.903 125.689 98.1845 131.52C98.1845 131.52 104.245 133.328 108.642 137.588C108.902 137.84 109.156 138.101 109.403 138.37C109.737 138.139 110.09 137.927 110.463 137.739C111.912 137.008 113.466 136.717 114.976 136.815C114.977 136.815 114.979 136.815 114.98 136.816C117.99 137.012 120.821 138.757 122.274 141.654C122.494 142.092 122.673 142.539 122.815 142.992C136.946 142.971 150.705 140.724 163.403 134.393C163.677 134.257 163.951 134.119 164.223 133.979C169.841 131.089 175.585 127.517 179.893 122.739C180.238 122.355 180.575 121.964 180.901 121.565C181.636 120.667 182.32 119.728 182.943 118.745C183.121 118.465 183.309 118.16 183.501 117.832C186.982 114.446 188.16 109.804 186.061 106.56C185.296 105.377 184.184 104.519 182.862 103.991C182.848 103.986 182.835 103.98 182.821 103.975C182.841 103.98 182.862 103.985 182.882 103.99C184.644 104.431 186.182 105.455 187.218 107.256C189.534 111.281 186.991 116.685 184.118 120.726C183.327 121.838 182.511 122.847 181.764 123.696C181.625 123.854 181.488 124.006 181.355 124.153C176.833 129.113 171.052 132.851 165.086 135.898C164.294 136.302 163.499 136.694 162.703 137.075C150.24 143.045 137.107 146.362 123.215 145.617C123.212 148.842 121.439 151.948 118.369 153.496C114.401 155.497 109.641 154.203 107.185 150.64C105.479 151.936 103.485 153.177 101.18 154.202C100.758 154.389 100.336 154.564 99.9134 154.729C97.2273 155.775 94.5351 156.368 91.899 156.617C79.0441 157.841 67.5227 150.949 64.4847 149.136C62.9439 148.215 61.5039 147.237 60.158 146.218L22.8645 203.579L25.6714 211.606L94.9466 198.797L113.044 242.364L114.31 245.405C120.064 247.286 126.912 248.213 134.56 248.213C135.307 248.213 136.061 248.204 136.823 248.186C137.121 248.18 137.424 248.166 137.724 248.156C138.191 248.141 138.657 248.128 139.13 248.107C139.501 248.09 139.879 248.065 140.253 248.045C140.661 248.022 141.065 248.002 141.476 247.975C141.894 247.948 142.318 247.912 142.74 247.879C143.114 247.85 143.485 247.824 143.862 247.791C144.314 247.752 144.772 247.705 145.228 247.66C145.581 247.625 145.931 247.593 146.286 247.556C146.759 247.505 147.239 247.447 147.716 247.39C148.062 247.349 148.406 247.311 148.754 247.267C149.237 247.206 149.725 247.138 150.213 247.071C150.562 247.023 150.91 246.977 151.261 246.926C151.748 246.856 152.239 246.778 152.729 246.702C153.089 246.646 153.448 246.592 153.81 246.533C154.292 246.454 154.779 246.369 155.266 246.285C155.643 246.219 156.02 246.155 156.4 246.086C156.87 246.001 157.344 245.91 157.818 245.82C158.223 245.742 158.627 245.666 159.034 245.585C159.482 245.496 159.932 245.402 160.383 245.308C160.826 245.216 161.269 245.124 161.716 245.028C162.129 244.939 162.545 244.845 162.961 244.752C163.454 244.641 163.948 244.53 164.443 244.414C164.814 244.328 165.186 244.238 165.558 244.149C166.112 244.016 166.666 243.881 167.222 243.742C167.538 243.663 167.856 243.581 168.173 243.5C168.798 243.34 169.423 243.178 170.052 243.009C170.302 242.943 170.552 242.875 170.803 242.806C171.512 242.613 172.223 242.417 172.937 242.214C173.109 242.166 173.28 242.116 173.452 242.067C174.262 241.834 175.076 241.596 175.892 241.35C175.926 241.34 175.96 241.33 175.994 241.32C190.322 237.003 205.526 230.692 220.721 222.45C221.001 222.298 221.279 222.144 221.555 221.989C221.753 221.879 221.951 221.768 222.151 221.659C222.871 221.262 223.583 220.86 224.296 220.459C225.32 219.883 226.336 219.301 227.345 218.715C227.503 218.624 227.659 218.532 227.817 218.44C228.794 217.87 229.766 217.298 230.727 216.719C231.501 216.254 232.271 215.787 233.035 215.316C233.975 214.738 234.902 214.153 235.826 213.567C236.084 213.403 236.344 213.241 236.601 213.076C237.465 212.524 238.321 211.968 239.171 211.41C239.463 211.217 239.757 211.024 240.048 210.831C240.89 210.272 241.728 209.711 242.556 209.147C242.809 208.974 243.06 208.801 243.312 208.628C244.187 208.027 245.059 207.425 245.918 206.818C246.445 206.445 246.966 206.07 247.487 205.695C248.105 205.251 248.723 204.808 249.332 204.361C249.873 203.964 250.405 203.563 250.94 203.164C251.809 202.514 252.668 201.862 253.518 201.207C253.67 201.09 253.823 200.972 253.974 200.854C254.765 200.242 255.552 199.629 256.325 199.013C257.199 198.316 258.068 197.618 258.919 196.917C259.322 196.585 259.713 196.251 260.111 195.918C260.748 195.386 261.388 194.854 262.011 194.319C262.423 193.966 262.824 193.611 263.23 193.257C263.684 192.862 264.137 192.465 264.584 192.069C265.113 191.598 265.637 191.127 266.156 190.656C266.742 190.123 267.327 189.591 267.9 189.057C268.602 188.403 269.286 187.748 269.968 187.093C270.21 186.86 270.457 186.628 270.696 186.395C271.033 186.067 271.365 185.739 271.696 185.411C271.9 185.21 272.098 185.008 272.299 184.807C272.974 184.133 273.643 183.459 274.296 182.784L274.335 182.743C274.896 182.161 275.45 181.58 275.995 180.998C276.147 180.835 276.299 180.672 276.451 180.509C287.718 168.379 295.308 156.248 298.166 145.442L281.472 105.259L320.086 36.1288Z" fill="#19283E"/>
<path d="M111.841 66.7247L81.6173 113.212C82.8189 118.794 86.903 125.689 98.1845 131.52C98.1845 131.52 104.245 133.328 108.642 137.588C108.902 137.84 109.156 138.101 109.403 138.37C109.737 138.139 110.09 137.927 110.463 137.739C111.912 137.008 113.466 136.717 114.976 136.815C114.977 136.815 114.979 136.816 114.98 136.816C117.99 137.012 120.821 138.757 122.274 141.654C122.494 142.092 122.673 142.539 122.815 142.992C136.946 142.971 150.705 140.724 163.403 134.394C163.677 134.257 163.951 134.119 164.223 133.979C169.841 131.089 175.585 127.517 179.893 122.739C180.238 122.356 180.575 121.964 180.901 121.565C181.636 120.667 182.32 119.728 182.943 118.745C183.121 118.466 183.309 118.16 183.501 117.832C186.982 114.447 188.16 109.804 186.061 106.56C185.296 105.378 184.184 104.519 182.862 103.991C182.848 103.986 182.835 103.98 182.821 103.975C182.841 103.98 182.862 103.985 182.882 103.99C184.644 104.431 186.182 105.455 187.218 107.256C189.534 111.281 186.991 116.685 184.118 120.726C183.327 121.838 182.511 122.847 181.764 123.696C181.625 123.854 181.488 124.007 181.355 124.153C176.833 129.113 171.052 132.851 165.086 135.898C164.294 136.302 163.499 136.694 162.703 137.076C150.24 143.045 137.107 146.362 123.215 145.617C123.212 148.842 121.439 151.948 118.369 153.496C114.401 155.497 109.641 154.203 107.185 150.64C105.479 151.936 103.485 153.177 101.18 154.202C100.758 154.389 100.336 154.564 99.9134 154.729C97.2273 155.775 94.5351 156.368 91.899 156.617C79.0441 157.841 67.5227 150.949 64.4847 149.136C62.9439 148.215 61.5039 147.237 60.158 146.218L22.8645 203.579L91.4379 190.626L182.828 173.364L200.518 170.022L241.334 162.313L257.463 133.596L278.032 96.9769L317.768 26.2304L111.841 66.7247Z" fill="#142134"/>
<path d="M186.061 106.56C185.296 105.377 184.184 104.518 182.862 103.991C182.848 103.985 182.835 103.98 182.821 103.974C180.33 102.996 177.102 103.19 174.04 104.616C173.424 104.903 172.815 105.239 172.219 105.626C167.074 108.972 164.929 114.816 167.428 118.678C167.911 119.424 168.533 120.041 169.257 120.528C171.168 123.412 175.443 124.16 179.893 122.739C180.238 122.355 180.575 121.964 180.901 121.565C181.636 120.667 182.32 119.728 182.943 118.745C183.121 118.465 183.309 118.159 183.501 117.832C186.982 114.446 188.16 109.804 186.061 106.56Z" fill="#0E1728"/>
<path d="M257.463 133.596L241.334 162.313L244.687 171.111L260.9 142.087L281.472 105.258L320.086 36.1288L317.768 26.23L278.032 96.9768L257.463 133.596Z" fill="black"/>
<path d="M204.004 178.633L184.052 182.322L94.9464 198.797L113.044 242.364L114.31 245.405C120.064 247.286 126.912 248.213 134.56 248.213C135.307 248.213 136.061 248.204 136.823 248.186C137.12 248.179 137.424 248.165 137.724 248.156C138.191 248.141 138.657 248.128 139.13 248.107C139.501 248.09 139.879 248.065 140.253 248.045C140.66 248.022 141.065 248.002 141.476 247.975C141.894 247.947 142.318 247.911 142.74 247.879C143.113 247.85 143.485 247.824 143.862 247.791C144.314 247.752 144.772 247.704 145.228 247.66C145.581 247.625 145.931 247.593 146.285 247.555C146.759 247.505 147.238 247.447 147.716 247.39C148.062 247.349 148.406 247.311 148.754 247.267C149.237 247.206 149.725 247.138 150.212 247.071C150.562 247.023 150.91 246.977 151.261 246.926C151.748 246.856 152.239 246.778 152.729 246.702C153.089 246.646 153.448 246.592 153.81 246.533C154.292 246.454 154.779 246.369 155.266 246.284C155.643 246.219 156.02 246.155 156.4 246.086C156.87 246.001 157.344 245.91 157.818 245.819C158.223 245.742 158.627 245.666 159.034 245.585C159.481 245.496 159.932 245.402 160.382 245.308C160.826 245.216 161.269 245.124 161.715 245.028C162.129 244.939 162.545 244.845 162.961 244.751C163.454 244.641 163.947 244.53 164.443 244.414C164.814 244.328 165.186 244.238 165.558 244.148C166.112 244.015 166.665 243.881 167.222 243.742C167.538 243.663 167.856 243.581 168.173 243.5C168.798 243.34 169.423 243.178 170.052 243.009C170.302 242.943 170.552 242.874 170.803 242.806C171.512 242.613 172.223 242.417 172.937 242.214C173.108 242.165 173.28 242.116 173.452 242.067C174.262 241.834 175.075 241.596 175.892 241.35C175.926 241.34 175.96 241.329 175.994 241.319C190.322 237.003 205.526 230.692 220.721 222.45C221.001 222.298 221.278 222.144 221.555 221.989L204.004 178.633Z" fill="#142134"/>
<path d="M134.56 248.213C135.307 248.213 136.061 248.204 136.823 248.186C137.12 248.179 137.424 248.165 137.724 248.156C138.191 248.141 138.657 248.128 139.13 248.107C139.501 248.09 139.879 248.065 140.253 248.044C140.66 248.022 141.065 248.002 141.476 247.975C141.894 247.947 142.318 247.911 142.74 247.879C143.113 247.85 143.485 247.824 143.862 247.791C144.314 247.752 144.772 247.704 145.228 247.66C145.581 247.625 145.931 247.593 146.285 247.555C146.759 247.505 147.238 247.447 147.716 247.39C148.062 247.349 148.406 247.311 148.754 247.267C149.237 247.206 149.725 247.138 150.212 247.071C150.562 247.023 150.91 246.977 151.261 246.926C151.748 246.856 152.239 246.778 152.729 246.702C153.089 246.646 153.448 246.592 153.81 246.533C154.292 246.454 154.779 246.369 155.266 246.284C155.643 246.219 156.02 246.155 156.4 246.086C156.87 246.001 157.344 245.91 157.818 245.819C158.223 245.742 158.627 245.666 159.034 245.585C159.481 245.496 159.932 245.402 160.382 245.308C160.826 245.216 161.269 245.124 161.715 245.028C162.129 244.939 162.545 244.845 162.961 244.751C163.454 244.641 163.947 244.53 164.443 244.414C164.814 244.328 165.186 244.238 165.558 244.148C166.112 244.015 166.665 243.881 167.222 243.742C167.538 243.663 167.856 243.581 168.173 243.5C168.798 243.34 169.423 243.178 170.052 243.009C170.302 242.943 170.552 242.874 170.803 242.806C171.512 242.613 172.223 242.417 172.937 242.214C173.108 242.165 173.28 242.116 173.452 242.067C174.262 241.834 175.075 241.596 175.892 241.35C175.926 241.34 175.96 241.329 175.994 241.319C181.397 228.217 184.386 214.144 184.718 200.772C184.864 194.995 184.695 188.712 184.052 182.323L94.9464 198.798L113.044 242.364L114.31 245.406C120.064 247.286 126.912 248.213 134.56 248.213Z" fill="#080E1A"/>
<path d="M276.451 180.508C287.718 168.377 295.308 156.247 298.166 145.44L281.472 105.258L260.9 142.087L276.451 180.508Z" fill="#142134"/>
<path d="M187.218 107.256C189.534 111.281 186.991 116.685 184.118 120.726C184.134 120.715 184.15 120.705 184.166 120.695C189.92 116.953 192.558 110.789 190.059 106.926C188.669 104.778 185.982 103.796 182.882 103.99C184.644 104.431 186.182 105.455 187.218 107.256Z" fill="#0E1728"/>
<path d="M107.418 139.204C104.965 139.996 99.7647 136.838 97.6703 135.739C94.4731 134.067 91.3999 132.139 88.07 130.725C92.0706 133.847 97.3826 135.254 101.02 138.904C101.997 139.881 104.358 141.871 103.529 143.49C103.007 144.51 100.755 144.928 99.7425 144.851C96.2975 144.592 92.8618 143.665 89.4637 142.977C92.2659 144.887 99.1017 143.727 100.966 147.388C102.378 150.158 94.6227 151.492 92.8487 151.751C94.9824 152.034 97.3629 151.262 99.544 151.171C100.808 151.117 101.699 151.399 101.914 151.883C102.102 152.306 101.777 152.883 100.74 153.527C100.698 153.553 100.656 153.579 100.612 153.605C98.2726 154.993 95.4411 155.423 92.8926 156.286C92.5606 156.399 92.2288 156.511 91.899 156.617C94.5351 156.368 97.2273 155.775 99.9134 154.729C100.336 154.564 100.758 154.389 101.18 154.202C103.485 153.177 105.479 151.936 107.185 150.64C106.955 150.306 106.745 149.953 106.558 149.581C106.134 148.736 105.859 147.856 105.722 146.97C105.722 146.97 105.722 146.969 105.722 146.969C105.213 143.681 106.606 140.31 109.403 138.37C109.156 138.101 108.902 137.84 108.642 137.588C108.733 138.304 108.396 138.886 107.418 139.204Z" fill="#088395"/>
<path d="M106.649 145.851C106.649 145.851 106.649 145.852 106.649 145.853C106.74 146.448 106.924 147.04 107.208 147.607C107.575 148.336 108.071 148.956 108.656 149.452C110.397 150.929 112.917 151.309 115.083 150.217C117.976 148.758 119.142 145.223 117.686 142.323C116.704 140.365 114.779 139.197 112.742 139.092C112.741 139.092 112.739 139.092 112.738 139.092C111.937 139.051 111.12 139.175 110.335 139.48C110.159 139.549 109.984 139.626 109.812 139.713C107.485 140.886 106.276 143.402 106.649 145.851Z" fill="#37B7C3"/>
<path d="M115.008 153.386C115.545 154.15 117.373 153.784 119.091 152.57C120.808 151.355 121.765 149.752 121.228 148.989C120.691 148.225 118.863 148.591 117.146 149.805C115.428 151.02 114.471 152.623 115.008 153.386Z" fill="#37B7C3"/>
<path d="M72.1784 122.495C72.9255 123.14 73.6768 123.731 74.4259 124.273C79.3048 127.807 84.0788 129.267 86.8398 129.909C82.1243 127.464 78.676 124.591 76.1653 121.598C67.2575 110.978 70.1538 98.8363 70.1538 98.8363L60.9857 103.46C61.6662 106.599 64.0209 115.455 72.1784 122.495Z" fill="#37B7C3"/>
<path d="M68.515 133.364C56.7943 124.596 50.7381 113.564 50.7381 113.564L46.8196 119.928C51.911 127.931 59.3288 133.148 66.4552 136.532C77.4468 141.753 87.7449 142.615 87.7449 142.615C80.2113 140.798 73.7897 137.31 68.515 133.364Z" fill="#37B7C3"/>
<path d="M180.337 120.171C180.651 119.998 180.962 119.811 181.269 119.611C182.092 119.076 182.838 118.477 183.501 117.832C186.982 114.446 188.16 109.804 186.061 106.56C185.296 105.377 184.184 104.518 182.862 103.991C182.848 103.985 182.835 103.98 182.821 103.974C180.33 102.996 177.102 103.19 174.04 104.616C173.424 104.903 172.815 105.239 172.219 105.626C167.074 108.972 164.929 114.816 167.428 118.678C167.911 119.424 168.533 120.041 169.257 120.528C172.06 122.41 176.412 122.335 180.337 120.171Z" fill="black"/>
<path d="M157.544 271.651C157.401 271.656 157.259 271.661 157.117 271.664C165.051 262.953 171.398 252.487 175.993 241.32C160.842 245.891 146.686 248.213 134.56 248.213C126.912 248.213 120.063 247.286 114.31 245.405L117.739 253.666C118.133 254.98 118.654 256.24 119.3 257.446C124.498 267.065 136.929 271.745 153.464 271.745C153.608 271.745 153.752 271.744 153.896 271.744C154.482 271.741 155.074 271.731 155.672 271.709C155.875 271.709 156.072 271.703 156.273 271.701C156.312 271.7 156.351 271.7 156.39 271.7C156.452 271.698 156.516 271.695 156.58 271.693C156.754 271.686 156.931 271.68 157.108 271.673C157.277 271.666 157.447 271.658 157.618 271.65L157.664 271.648C157.704 271.647 157.744 271.645 157.784 271.643C157.863 271.639 157.943 271.635 158.023 271.631C157.864 271.639 157.704 271.645 157.544 271.651Z" fill="#088395"/>
<path d="M276.454 180.515C262.9 195.111 244.005 209.707 221.556 221.991L232.243 248.384L232.247 248.393C232.416 248.3 232.586 248.21 232.756 248.119C232.864 248.061 232.973 248.003 233.081 247.943C255.344 235.869 273.882 221.316 286.672 206.901C286.673 206.9 286.673 206.899 286.674 206.898C286.78 206.779 286.886 206.659 286.992 206.539L286.991 206.538L286.99 206.535L276.454 180.515Z" fill="#37B7C3"/>
</svg>
