<?xml version="1.0" encoding="utf-8"?>
<!-- Generator: Adobe Illustrator 27.5.0, SVG Export Plug-In . SVG Version: 6.00 Build 0)  -->
<svg version="1.1" xmlns="http://www.w3.org/2000/svg" xmlns:xlink="http://www.w3.org/1999/xlink" height='343' width='343'
	 viewBox="0 0 500 343" style="enable-background:new 0 0 500 343;">
<g id="OBJECTS">
	<path style="fill:#0C2CB3;" d="M396.051,225.52l-0.672,8.897c-0.048,0.63,0.367,1.203,0.982,1.354l10.805,2.651
		c0.476,0.116,0.833,0.497,0.938,0.975c0.447,2.02,1.101,3.964,1.946,5.811c0.206,0.451,0.145,0.973-0.173,1.354l-7.157,8.573
		c-0.405,0.485-0.4,1.193,0.012,1.672l5.816,6.767c0.412,0.48,1.111,0.591,1.651,0.263l9.721-5.891
		c0.413-0.251,0.925-0.239,1.336,0.015c1.646,1.017,3.408,1.865,5.257,2.546c0.467,0.172,0.799,0.588,0.844,1.084l1.03,11.442
		c0.057,0.63,0.56,1.126,1.191,1.174l8.897,0.672c0.63,0.048,1.203-0.368,1.353-0.982l2.789-11.37
		c0.106-0.434,0.429-0.782,0.853-0.921l5.501-1.807c0.424-0.139,0.89-0.05,1.233,0.236l8.987,7.503
		c0.486,0.405,1.193,0.4,1.672-0.012l6.766-5.816c0.48-0.412,0.591-1.111,0.263-1.652l-6.068-10.012
		c-0.231-0.382-0.25-0.856-0.048-1.254l2.613-5.168c0.201-0.398,0.594-0.665,1.038-0.705l11.661-1.05
		c0.63-0.057,1.126-0.56,1.174-1.191l0.672-8.897c0.047-0.631-0.368-1.203-0.982-1.354l-11.371-2.789
		c-0.434-0.106-0.781-0.428-0.921-0.853l-1.807-5.501c-0.139-0.424-0.05-0.89,0.236-1.233l7.503-8.987
		c0.405-0.485,0.4-1.193-0.012-1.672l-5.816-6.767c-0.412-0.479-1.111-0.591-1.652-0.263l-10.012,6.068
		c-0.382,0.231-0.856,0.25-1.254,0.048l-5.168-2.613c-0.398-0.201-0.665-0.594-0.705-1.038l-1.05-11.661
		c-0.057-0.63-0.56-1.126-1.191-1.174l-8.897-0.672c-0.631-0.048-1.203,0.368-1.354,0.982l-2.737,11.158
		c-0.119,0.484-0.509,0.845-0.997,0.945c-1.931,0.395-3.801,0.969-5.58,1.727c-0.445,0.19-0.952,0.124-1.324-0.186l-8.726-7.285
		c-0.486-0.405-1.193-0.4-1.672,0.012l-6.767,5.816c-0.479,0.412-0.591,1.111-0.263,1.652l5.788,9.551
		c0.257,0.424,0.239,0.95-0.033,1.364c-1.112,1.699-2.052,3.523-2.797,5.453c-0.176,0.457-0.586,0.779-1.074,0.823l-11.081,0.998
		C396.595,224.385,396.098,224.889,396.051,225.52z M437.422,214.361c10.669,0.806,18.665,10.108,17.859,20.777
		c-0.806,10.67-10.108,18.665-20.778,17.86c-10.669-0.806-18.665-10.108-17.859-20.778
		C417.45,221.551,426.753,213.555,437.422,214.361z"/>
	<g>
		<g>
			<g>
				<g>
					<path style="fill:#0C2CB3;" d="M258.984,171.926l12.189-16.361c0.465-0.624,1.218-0.963,1.993-0.9l10.057,0.831
						c0.775,0.064,1.462,0.524,1.818,1.215l9.338,18.14c0.505,0.98,1.644,1.452,2.693,1.115l14.807-4.747
						c1.05-0.337,1.702-1.382,1.543-2.473l-2.95-20.188c-0.113-0.77,0.18-1.543,0.773-2.046l7.699-6.524
						c0.594-0.503,1.404-0.664,2.145-0.427l19.43,6.224c1.05,0.336,2.188-0.136,2.692-1.116l7.113-13.827
						c0.504-0.98,0.226-2.181-0.658-2.839l-16.362-12.19c-0.624-0.465-0.964-1.218-0.9-1.993l0.831-10.057
						c0.064-0.775,0.523-1.463,1.215-1.818l18.14-9.338c0.98-0.505,1.451-1.644,1.115-2.693l-4.747-14.807
						c-0.337-1.049-1.382-1.701-2.473-1.542l-20.188,2.95c-0.77,0.112-1.543-0.18-2.046-0.773l-6.523-7.699
						c-0.503-0.593-0.664-1.404-0.427-2.145l6.224-19.43c0.336-1.05-0.135-2.188-1.115-2.693l-13.827-7.113
						c-0.98-0.504-2.181-0.226-2.839,0.658l-11.961,16.055c-0.519,0.696-1.39,1.011-2.241,0.84
						c-3.367-0.676-6.758-1.022-10.129-1.012c-0.842,0.003-1.613-0.447-1.998-1.196l-9.067-17.613
						c-0.504-0.98-1.643-1.451-2.692-1.115l-14.807,4.747c-1.049,0.337-1.702,1.382-1.542,2.473l2.814,19.258
						c0.125,0.854-0.261,1.686-0.978,2.168c-2.938,1.974-5.683,4.264-8.188,6.856c-0.593,0.614-1.47,0.853-2.282,0.592
						l-18.464-5.914c-1.05-0.336-2.188,0.136-2.692,1.116l-7.113,13.826c-0.504,0.98-0.226,2.18,0.658,2.839l15.547,11.583
						c0.685,0.509,1,1.362,0.845,2.201c-0.653,3.545-0.921,7.11-0.818,10.648c0.025,0.863-0.427,1.661-1.195,2.056l-17.304,8.908
						c-0.98,0.504-1.451,1.643-1.116,2.693l4.747,14.807c0.337,1.049,1.382,1.701,2.473,1.542l19.601-2.864
						c0.834-0.122,1.647,0.243,2.135,0.93c1.952,2.749,4.205,5.306,6.713,7.653c0.634,0.593,0.884,1.485,0.619,2.312l-6.108,19.067
						c-0.336,1.049,0.135,2.188,1.116,2.692l13.827,7.113C257.125,173.089,258.326,172.811,258.984,171.926z M264.608,134.768
						c-16.581-8.53-23.107-28.887-14.577-45.467c8.53-16.58,28.887-23.107,45.467-14.576c16.581,8.53,23.107,28.886,14.577,45.467
						C301.545,136.772,281.189,143.298,264.608,134.768z"/>
				</g>
			</g>
		</g>
	</g>
	<g>
		<g>
			<path style="fill:#EFA238;" d="M375.424,403.107L49.259,312.148c-3.833-1.069-6.074-5.043-5.005-8.877l68.4-245.273
				c1.069-3.833,5.043-6.074,8.877-5.005l326.165,90.959c3.833,1.069,6.074,5.043,5.005,8.877l-68.4,245.273
				C383.232,401.935,379.257,404.177,375.424,403.107z"/>
			<path style="fill:#DB9037;" d="M365.065,389.413L59.763,304.272c-3.833-1.069-6.074-5.043-5.005-8.877l63.966-229.373
				c1.069-3.833,5.043-6.074,8.877-5.005l305.302,85.141c3.833,1.069,6.074,5.043,5.005,8.877l-63.966,229.373
				C372.873,388.241,368.898,390.482,365.065,389.413z"/>
		</g>
		<g>
			<path style="fill:#FFFFFF;" d="M362.24,383.039L224.799,344.71c-4.037-1.126-6.397-5.311-5.271-9.348l61.07-218.986
				c1.126-4.037,5.311-6.397,9.348-5.271l137.441,38.329c4.037,1.126,6.397,5.311,5.271,9.348l-61.07,218.986
				C370.461,381.805,366.276,384.165,362.24,383.039z"/>
			<g>
				<path style="fill:#FAAEA4;" d="M404.34,215.856c-0.311,0-0.628-0.042-0.942-0.129l-120.604-33.633
					c-1.861-0.52-2.95-2.45-2.431-4.312c0.52-1.862,2.453-2.947,4.312-2.431l120.603,33.633c1.861,0.52,2.95,2.45,2.431,4.312
					C407.277,214.843,405.871,215.856,404.34,215.856z"/>
				<path style="fill:#FAAEA4;" d="M413.041,186.407c-0.311,0-0.628-0.042-0.942-0.129l-120.604-33.633
					c-1.861-0.52-2.95-2.45-2.431-4.312c0.52-1.862,2.451-2.947,4.312-2.431l120.603,33.633c1.861,0.52,2.95,2.45,2.431,4.312
					C415.978,185.394,414.572,186.407,413.041,186.407z"/>
				<path style="fill:#FAAEA4;" d="M398.224,239.542c-0.312,0-0.628-0.042-0.942-0.129L276.678,205.78
					c-1.861-0.52-2.95-2.45-2.431-4.311c0.52-1.863,2.451-2.949,4.311-2.432l120.603,33.633c1.861,0.52,2.95,2.45,2.431,4.312
					C401.161,238.529,399.755,239.542,398.224,239.542z"/>
				<path style="fill:#FAAEA4;" d="M391.233,264.606c-0.312,0-0.628-0.042-0.942-0.13l-120.603-33.633
					c-1.861-0.52-2.95-2.45-2.431-4.312c0.52-1.862,2.452-2.947,4.312-2.431l120.603,33.634c1.861,0.518,2.95,2.449,2.431,4.311
					C394.171,263.593,392.765,264.606,391.233,264.606z"/>
				<path style="fill:#FAAEA4;" d="M383.092,292.05c-0.311,0-0.628-0.042-0.942-0.13l-120.603-33.634
					c-1.861-0.518-2.95-2.449-2.431-4.312c0.52-1.861,2.451-2.951,4.312-2.431l120.604,33.634c1.861,0.519,2.95,2.449,2.431,4.312
					C386.029,291.036,384.623,292.05,383.092,292.05z"/>
				<path style="fill:#FAAEA4;" d="M376.975,315.736c-0.311,0-0.628-0.042-0.942-0.13l-120.604-33.634
					c-1.861-0.519-2.95-2.449-2.431-4.312c0.52-1.861,2.451-2.95,4.312-2.431l120.603,33.634c1.861,0.519,2.95,2.449,2.431,4.312
					C379.912,314.723,378.506,315.736,376.975,315.736z"/>
				<path style="fill:#FAAEA4;" d="M369.985,340.8c-0.312,0-0.628-0.042-0.942-0.13l-120.604-33.633
					c-1.862-0.519-2.951-2.449-2.432-4.312c0.52-1.861,2.449-2.952,4.311-2.431l120.605,33.633c1.861,0.519,2.95,2.449,2.431,4.312
					C372.923,339.786,371.517,340.8,369.985,340.8z"/>
			</g>
			<polygon style="fill:#EE777D;" points="298.112,107.483 268.932,212.118 281.89,203.93 288.36,216.88 317.371,112.853 			"/>
		</g>
		<g>
			<path style="fill:#FFFFFF;" d="M205.646,339.369L65.424,300.265c-4.037-1.126-6.397-5.311-5.271-9.348l61.07-218.986
				c1.126-4.037,5.311-6.397,9.348-5.271l140.223,39.105c4.037,1.126,6.397,5.311,5.271,9.348l-61.07,218.986
				C213.868,338.135,209.683,340.495,205.646,339.369z"/>
			<path style="fill:#FAAEA4;" d="M214.428,136.703l-60.927-16.991c-1.956-0.545-3.099-2.573-2.554-4.529l3.896-13.971
				c0.546-1.956,2.573-3.099,4.529-2.554l60.927,16.991c1.956,0.545,3.099,2.573,2.554,4.529l-3.896,13.971
				C218.412,136.105,216.384,137.248,214.428,136.703z"/>
			<g>
				<path style="fill:#FAAEA4;" d="M241.118,170.337c-0.311,0-0.628-0.042-0.942-0.129l-120.603-33.633
					c-1.862-0.52-2.95-2.45-2.431-4.312c0.52-1.863,2.448-2.949,4.312-2.432l120.604,33.633c1.862,0.52,2.95,2.45,2.431,4.312
					C244.056,169.324,242.649,170.337,241.118,170.337z"/>
				<path style="fill:#FAAEA4;" d="M235,194.023c-0.311,0-0.627-0.042-0.942-0.129l-120.603-33.633
					c-1.862-0.52-2.95-2.45-2.431-4.312c0.52-1.862,2.449-2.947,4.312-2.431l120.603,33.633c1.862,0.52,2.951,2.45,2.432,4.312
					C237.938,193.01,236.532,194.023,235,194.023z"/>
				<path style="fill:#FAAEA4;" d="M228.011,219.087c-0.312,0-0.627-0.042-0.942-0.129l-120.603-33.633
					c-1.862-0.52-2.951-2.45-2.432-4.312c0.52-1.862,2.45-2.949,4.312-2.431l120.603,33.633c1.862,0.52,2.95,2.45,2.431,4.312
					C230.949,218.074,229.542,219.087,228.011,219.087z"/>
				<path style="fill:#FAAEA4;" d="M219.869,246.531c-0.311,0-0.627-0.042-0.942-0.129L98.323,212.769
					c-1.862-0.52-2.95-2.45-2.431-4.312c0.52-1.863,2.45-2.948,4.312-2.432l120.604,33.633c1.862,0.52,2.95,2.45,2.431,4.312
					C222.807,245.518,221.4,246.531,219.869,246.531z"/>
				<path style="fill:#FAAEA4;" d="M213.752,270.218c-0.312,0-0.628-0.042-0.942-0.13L92.206,236.455
					c-1.862-0.52-2.95-2.45-2.431-4.312c0.52-1.862,2.45-2.946,4.312-2.431l120.604,33.634c1.862,0.519,2.95,2.449,2.431,4.311
					C216.69,269.204,215.283,270.218,213.752,270.218z"/>
				<path style="fill:#FAAEA4;" d="M206.762,295.281c-0.311,0-0.627-0.042-0.942-0.13L85.217,261.519
					c-1.862-0.519-2.951-2.449-2.432-4.312c0.52-1.861,2.449-2.95,4.312-2.431L207.7,288.409c1.862,0.518,2.951,2.449,2.432,4.311
					C209.7,294.268,208.294,295.281,206.762,295.281z"/>
			</g>
		</g>
	</g>
	<g>
		<g>
			<path style="fill:#0C2CB3;" d="M45.463,342.76h256.833c3.555,0,6.463,2.908,6.463,6.463v44.563c0,3.555-2.908,6.463-6.463,6.463
				H45.463c-3.555,0-6.463-2.909-6.463-6.463v-44.563C39,345.669,41.909,342.76,45.463,342.76z"/>
			<rect x="77.695" y="342.76" style="fill:#EE777D;" width="22.111" height="57.49"/>
			<rect x="106.44" y="342.76" style="fill:#EE777D;" width="5.528" height="57.49"/>
			<path style="fill:#EE777D;" d="M249.366,381.455H144.828c-1.047,0-1.904-0.857-1.904-1.904v-16.092
				c0-1.047,0.857-1.904,1.904-1.904h104.537c1.047,0,1.904,0.857,1.904,1.904v16.092
				C251.27,380.598,250.413,381.455,249.366,381.455z"/>
		</g>
		<g>
			<path style="fill:#EFA238;" d="M57.431,306h220.736c2.232,0,4.059,1.826,4.059,4.059v28.366c0,2.232-1.827,4.059-4.059,4.059
				H57.431c-2.232,0-4.059-1.827-4.059-4.059v-28.366C53.373,307.826,55.199,306,57.431,306z"/>
			<rect x="226.608" y="306" style="opacity:0.36;fill:#F8F5F5;" width="5.868" height="36.484"/>
			<rect x="250.994" y="306" style="opacity:0.36;fill:#F8F5F5;" width="4.69" height="36.484"/>
			<rect x="88.411" y="306" style="opacity:0.36;fill:#F8F5F5;" width="3.415" height="36.484"/>
			<rect x="102.605" y="306" style="opacity:0.36;fill:#F8F5F5;" width="2.73" height="36.484"/>
		</g>
		<g>
			<path style="fill:#EE777D;" d="M253.051,306H80.337c-2.68,0-4.853-2.173-4.853-4.853v-42.256c0-2.68,2.173-4.853,4.853-4.853
				h172.714c2.68,0,4.853,2.173,4.853,4.853v42.256C257.904,303.827,255.731,306,253.051,306z"/>
			<rect x="88.751" y="265.094" style="opacity:0.36;fill:#F8F5F5;" width="27.639" height="27.639"/>
			<rect x="123.024" y="254.038" style="opacity:0.36;fill:#F8F5F5;" width="6.633" height="51.962"/>
			<rect x="218.103" y="272.833" style="opacity:0.36;fill:#F8F5F5;" width="15.478" height="15.478"/>
			<rect x="201.519" y="254.038" style="opacity:0.36;fill:#F8F5F5;" width="6.633" height="51.962"/>
		</g>
	</g>
	<g>
		<polygon style="fill:#A1525A;" points="312.794,222.611 314.368,222.568 320.56,225.948 321.544,223.906 313.855,220.424 		"/>
		<path style="fill:#0B090A;" d="M312.794,222.611l-4.814,0.129l-3.564-1.088c-1.638-0.5-3.424,0.153-4.386,1.604l-0.45,0.678
			l17.793,9.651l3.455-7.491l-0.268-0.146l-6.192-3.379L312.794,222.611z"/>
		<path style="fill:#0B2987;" d="M385.531,192.461c-0.143-1.151-0.284-2.286-0.391-3.131c-0.129-1.011-0.783-1.873-1.722-2.268
			l-14.414-6.074l-25.769-8.472c-3.316-2.129-8.247-0.771-10.271,3.214l-21.62,43.555l2.513,1.138l7.689,3.482l1.893,0.857
			l20.171-33.704l18.682,14.715c5.761,4.538,16.113,1.916,21.257-2.079C386.136,201.685,385.934,195.714,385.531,192.461z"/>
	</g>
	<g>
		<path style="fill:#EE777D;" d="M368.017,204.282c-55.219,0-99.983,44.764-99.983,99.983c0,55.219,44.764,99.983,99.983,99.983
			c55.219,0,99.983-44.764,99.983-99.983C468,249.046,423.236,204.282,368.017,204.282z M368.017,391.45
			c-48.151,0-87.185-39.034-87.185-87.185c0-48.151,39.034-87.185,87.185-87.185c48.151,0,87.185,39.034,87.185,87.185
			C455.202,352.416,416.168,391.45,368.017,391.45z"/>

			<ellipse transform="matrix(0.7071 -0.7071 0.7071 0.7071 -107.3579 349.3443)" style="fill:#EE777D;" cx="368.017" cy="304.265" rx="87.185" ry="87.185"/>
		<g>
			<g>
				<path style="fill:#F8F5F5;" d="M368.017,217.079c-48.151,0-87.185,39.034-87.185,87.185c0,48.151,39.034,87.185,87.185,87.185
					c48.151,0,87.185-39.034,87.185-87.185C455.202,256.113,416.168,217.079,368.017,217.079z M295.033,305.26h-6.399
					c-0.88,0-1.6-0.72-1.6-1.6s0.72-1.6,1.6-1.6h6.399c0.88,0,1.6,0.72,1.6,1.6S295.913,305.26,295.033,305.26z M367.217,223.478
					c0-0.88,0.72-1.6,1.6-1.6c0.88,0,1.6,0.72,1.6,1.6v6.399c0,0.88-0.72,1.6-1.6,1.6c-0.88,0-1.6-0.72-1.6-1.6V223.478z
					 M317.775,356.964l-4.525,4.525c-0.622,0.622-1.64,0.622-2.262,0c-0.622-0.622-0.622-1.64,0-2.262l4.525-4.525
					c0.622-0.622,1.64-0.622,2.262,0C318.398,355.324,318.398,356.342,317.775,356.964z M317.775,252.619
					c-0.622,0.622-1.64,0.622-2.262,0l-4.525-4.525c-0.622-0.622-0.622-1.64,0-2.262c0.622-0.622,1.64-0.622,2.262,0l4.525,4.525
					C318.398,250.979,318.398,251.997,317.775,252.619z M370.417,383.842c0,0.88-0.72,1.6-1.6,1.6c-0.88,0-1.6-0.72-1.6-1.6v-6.399
					c0-0.88,0.72-1.6,1.6-1.6c0.88,0,1.6,0.72,1.6,1.6V383.842z M402.371,283.869L369.28,316.96
					c-1.125,1.125-2.619,1.721-4.142,1.721c-0.757,0-1.522-0.147-2.252-0.449c-2.2-0.912-3.622-3.039-3.622-5.421v-54.737
					c0-2.25,1.824-4.073,4.074-4.073c2.25,0,4.074,1.824,4.074,4.073v49.233l29.199-29.2c1.589-1.59,4.169-1.59,5.76,0
					C403.963,279.698,403.963,282.277,402.371,283.869z M426.645,361.489c-0.622,0.622-1.64,0.622-2.262,0l-4.525-4.525
					c-0.622-0.622-0.622-1.64,0-2.262c0.622-0.622,1.64-0.622,2.262,0l4.525,4.525C427.267,359.849,427.267,360.867,426.645,361.489
					z M426.645,248.094l-4.525,4.525c-0.622,0.622-1.64,0.622-2.262,0c-0.622-0.622-0.622-1.64,0-2.262l4.525-4.525
					c0.622-0.622,1.64-0.622,2.262,0C427.267,246.454,427.267,247.472,426.645,248.094z M448.999,305.26H442.6
					c-0.88,0-1.599-0.72-1.599-1.6s0.72-1.6,1.599-1.6h6.399c0.88,0,1.6,0.72,1.6,1.6S449.879,305.26,448.999,305.26z"/>
			</g>
		</g>
	</g>
	<g>
		<g>
			<polygon style="fill:#A1525A;" points="344.86,237.37 346.255,236.639 353.302,236.948 353.288,234.681 344.851,234.939 			"/>
			<path style="fill:#0B090A;" d="M344.86,237.37l-4.266,2.235l-3.678,0.592c-1.691,0.272-3.007,1.645-3.233,3.371l-0.105,0.807
				l20.224,0.834l-0.195-8.247l-0.305-0.013l-7.047-0.309L344.86,237.37z"/>
			<path style="fill:#0C2CB3;" d="M396.662,198.714c-0.175-1.147-0.349-2.277-0.48-3.118c-0.157-1.007-0.836-1.85-1.786-2.218
				l-14.582-5.66l-28.186-8.384l-0.001,0.016c-4.367-1.658-9.22,2.014-9.291,7.049l-0.241,48.626l2.757-0.084l8.437-0.258
				l2.077-0.064l2.808-33.544l15.638,11.611c5.888,4.372,16.161,1.456,21.189-2.684C397.53,207.917,397.157,201.953,396.662,198.714
				z"/>
		</g>
		<g>
			<g>
				<path style="fill:#A1525A;" d="M348.059,169.374l0.128-0.335l-5.995-2.271c-0.645-0.244-1.385-0.072-1.949,0.453l-3.764,3.504
					c-1.104,1.028-1.029,1.818,0.199,2.383c0,0,1.374,0.124,1.922-0.422l0.752-0.637c0.71-0.601,1.732-0.639,2.491-0.102
					c1.09,0.772,2.737,1.817,4.319,2.368l0.049-0.128L348.059,169.374z"/>
				<path style="fill:#EE777D;" d="M388.769,155.64c-2.67-2.836-7.316-2.31-9.286,1.051l-9.324,15.915l-14.113-3.194l-7.362-1.666
					l-0.497,1.294l-0.128,0.335l-1.847,4.814l-0.049,0.128l-0.354,0.923l24.389,9.526c2.259,0.982,4.867,0.72,6.886-0.691
					l12.488-18.451C391.673,162.518,391.339,158.37,388.769,155.64z"/>
			</g>
			<g>
				<path style="fill:#A1525A;" d="M353.167,106.068l0.279-0.518c0,0,2.234-0.282,3.384-2.413c1.15-2.131,1.708-2.202,2.267-2.272
					c0.559-0.071,0.662-1.502-0.456-1.361c-1.117,0.141-1.676,0.212-2.722,0.911l0.631-1.935c-0.004-0.011-0.012-0.019-0.016-0.03
					l1.453-4.31c0.109-0.351-0.08-0.721-0.421-0.826l-0.086-0.027c-0.341-0.106-0.706,0.092-0.815,0.443l-1.057,3.409
					c-0.097-0.081-0.21-0.139-0.315-0.208l1.195-3.853c0.13-0.42-0.105-0.866-0.525-0.996c-0.42-0.13-0.866,0.104-0.996,0.524
					l-1.169,3.768c-0.058-0.009-0.115-0.022-0.174-0.028l0.883-2.846c0.13-0.42-0.104-0.866-0.525-0.996
					c-0.42-0.13-0.866,0.105-0.996,0.524l-1.056,3.406c-0.076,0.016-0.151,0.026-0.227,0.044l0.846-2.729
					c0.108-0.35-0.087-0.721-0.437-0.83c-0.35-0.109-0.721,0.087-0.83,0.437l-1.285,4.144c-0.691,1.757-1.881,5.06-1.372,5.819
					l-0.904,1.165l1.122,0.326L353.167,106.068z"/>
				<path style="fill:#EE777D;" d="M367.722,135.469l-16.224-7.761l2.97-21.262l-1.004-0.292l-0.297-0.086l-4.324-1.256
					l-1.122-0.326l-0.769-0.223l-7.266,24.473c-0.77,2.275-0.303,4.787,1.233,6.634l18.946,10.629
					c3.189,1.789,7.192,1.127,9.635-1.593C372.037,141.58,371.148,137.108,367.722,135.469z"/>
			</g>
			<g>
				<g>
					<g>
						<g>
							<path style="fill:#EE777D;" d="M356.92,156.512l1.942-9.353c0.311-9.188,8.011-16.383,17.198-16.073
								c13.81,0.467,24.625,12.041,24.158,25.85l-4.384,40.824l-43.327-19.994l2.115-10.186L356.92,156.512z"/>
						</g>
					</g>
				</g>
				<polyline style="fill:none;stroke:#FFFFFF;stroke-width:0.5;stroke-linecap:round;stroke-miterlimit:10;" points="357,169
					370,172 375,163 				"/>
			</g>
			<path style="fill:none;stroke:#FFFFFF;stroke-width:0.5;stroke-linecap:round;stroke-miterlimit:10;" d="M360.5,180.5"/>
			<path style="fill:none;stroke:#FFFFFF;stroke-width:0.5;stroke-linecap:round;stroke-miterlimit:10;" d="M376.5,188.5"/>
			<path style="fill:none;stroke:#FFFFFF;stroke-width:0.5;stroke-linecap:round;stroke-miterlimit:10;" d="M384,175"/>
		</g>
		<g>
			<path style="fill:#33322F;" d="M396.702,104.071c0.184-0.491,0.298-1.016,0.298-1.571c0-2.485-2.015-4.5-4.5-4.5
				c-1.276,0-2.422,0.536-3.241,1.39c-0.557-2.422-2.461-4.427-5.053-4.974c-2.618-0.553-5.2,0.535-6.681,2.565
				c-0.013,0.019-0.038,0.021-0.055,0.006c-0.208-0.191-0.443-0.355-0.7-0.487c-1.238-0.631-2.723-0.249-3.719,0.72
				c-0.606,0.59-0.818,1.203-0.875,1.802c-0.001,0.016-0.013,0.029-0.029,0.032c-0.12,0.028-0.235,0.07-0.352,0.108
				c-1.604,0.266-2.978,1.466-3.371,3.141c-0.521,2.221,0.869,4.464,3.09,4.985h0c0.056,0.013,0.111,0.011,0.167,0.022
				c0.596,0.114,1.188,0.089,1.746-0.047l0.277,0.087l-2.237,9.534c-0.961,4.095,1.603,8.231,5.698,9.192l7.502,1.76
				c4.095,0.961,8.231-1.603,9.192-5.698l1.915-8.161C395.85,113.981,395.922,114,396,114c2.761,0,5-2.239,5-5
				C401,106.479,399.128,104.415,396.702,104.071z"/>
			<path style="fill:#A1525A;" d="M391.703,114.585c-0.03-0.008-0.048-0.038-0.041-0.069c0,0,0.074-0.29,0.19-0.746
				c-0.429,0.136-0.878,0.23-1.352,0.23c-2.485,0-4.5-2.015-4.5-4.5c0-0.142,0.029-0.276,0.042-0.414
				c-1.478,1.076-3.389,1.542-5.298,1.094c-2.374-0.557-4.141-2.371-4.766-4.571c-0.031-0.014-0.063-0.027-0.094-0.04
				c-0.908,1.334-2.545,2.06-4.204,1.742l-3.139,12.415c-0.719,2.783,0.367,5.609,2.528,7.238c0.428,0.323,0.921,0.552,1.441,0.682
				l3.533,0.885l-1.297,5.998c-0.667,3.097,1.302,6.148,4.399,6.815c3.097,0.667,6.148-1.302,6.815-4.399l2.172-10.048
				c0.356-0.576,0.641-1.206,0.819-1.896l1.013-3.92l0.095,0.024c2.154,0.557,4.361-1.106,4.2-3.562
				C394.167,116.117,393.086,114.943,391.703,114.585z"/>
			<g>
				<g>
					<g>
						<path style="fill:#33322F;" d="M393.382,118.612c0.163,0.042,0.329-0.056,0.372-0.219c0.47-1.82-0.798-2.66-1.534-2.851
							c-0.163-0.042-0.329,0.056-0.371,0.219c-0.042,0.163,0.055,0.329,0.218,0.371c0.158,0.042,1.524,0.459,1.097,2.108
							C393.121,118.404,393.219,118.57,393.382,118.612z"/>
					</g>
					<g>
						<g>
							<path style="fill:#33322F;" d="M376.761,124.495c-0.044-0.011-0.081-0.045-0.094-0.093c-0.122-0.439-0.472-0.783-0.913-0.897
								c-0.441-0.114-0.913,0.017-1.233,0.342c-0.052,0.052-0.135,0.052-0.187,0.001c-0.052-0.051-0.053-0.135-0.001-0.187
								c0.386-0.392,0.956-0.55,1.488-0.412c0.532,0.137,0.954,0.552,1.102,1.082c0.02,0.071-0.021,0.143-0.092,0.163
								C376.806,124.501,376.783,124.501,376.761,124.495z"/>
							<g>
								<g>
									<path style="fill:#33322F;" d="M373.361,115.795c0.195,0.051,0.395-0.067,0.446-0.263l0.353-1.366
										c0.051-0.196-0.067-0.395-0.263-0.446l-0.329-0.085c-0.196-0.051-0.395,0.067-0.446,0.262l-0.353,1.366
										c-0.051,0.196,0.067,0.395,0.262,0.446L373.361,115.795z"/>
									<path style="fill:#33322F;" d="M378.833,118.067c0.036-0.141-0.048-0.286-0.19-0.322l-1.856-0.48
										c-0.04-0.01-0.054-0.04-0.058-0.062c-0.004-0.023-0.003-0.055,0.031-0.079c0.672-0.497,1.157-1.216,1.366-2.025l0.457-1.77
										c0.037-0.141-0.048-0.286-0.19-0.322c-0.141-0.036-0.286,0.049-0.322,0.19l-0.457,1.77
										c-0.179,0.692-0.594,1.307-1.168,1.732c-0.191,0.141-0.281,0.373-0.236,0.606c0.045,0.233,0.216,0.414,0.445,0.473
										l1.856,0.48C378.653,118.293,378.797,118.208,378.833,118.067z"/>
									<path style="fill:#33322F;" d="M376.516,110.77c-0.249-0.338-0.915-0.706-1.812-0.708
										c-0.898,0.002-1.576,0.369-1.835,0.707c-0.276,0.347-0.181,0.629,0.052,0.728c0.241,0.106,0.56,0.076,0.867,0.064
										c0.31-0.018,0.621-0.029,0.893-0.029c0.271,0,0.582,0.011,0.892,0.029c0.308,0.012,0.624,0.042,0.869-0.063
										C376.677,111.399,376.781,111.117,376.516,110.77z"/>
									<path style="fill:#33322F;" d="M384.374,113.899c-0.036-0.418-0.413-1.079-1.177-1.549
										c-0.767-0.467-1.537-0.507-1.934-0.354c-0.416,0.152-0.483,0.442-0.336,0.648c0.151,0.216,0.438,0.356,0.707,0.507
										c0.274,0.146,0.545,0.299,0.777,0.441c0.231,0.141,0.491,0.313,0.746,0.49c0.256,0.171,0.511,0.362,0.774,0.4
										C384.184,114.52,384.419,114.333,384.374,113.899z"/>
									<path style="fill:#33322F;" d="M374.141,115.827c-0.946,0.202-1.465-0.343-1.488-0.369
										c-0.098-0.108-0.264-0.117-0.372-0.02c-0.109,0.097-0.118,0.265-0.021,0.373c0.02,0.022,0.339,0.37,0.921,0.521
										c0.292,0.076,0.651,0.101,1.071,0.011c0.143-0.031,0.234-0.171,0.203-0.314
										C374.424,115.888,374.284,115.797,374.141,115.827z"/>
									<path style="fill:#33322F;" d="M382.094,117.883c-0.512,0.11-0.897,0-1.148-0.127l0.192,0.05
										c0.195,0.051,0.395-0.067,0.446-0.263l0.353-1.366c0.05-0.196-0.067-0.395-0.263-0.446l-0.329-0.085
										c-0.196-0.051-0.395,0.067-0.446,0.262l-0.353,1.366c-0.018,0.068-0.014,0.137,0.006,0.2
										c-0.098-0.065-0.228-0.062-0.319,0.02c-0.109,0.097-0.118,0.265-0.021,0.373c0.02,0.022,0.339,0.37,0.921,0.521
										c0.292,0.076,0.651,0.101,1.071,0.011c0.143-0.03,0.234-0.171,0.203-0.314
										C382.378,117.944,382.237,117.853,382.094,117.883z"/>
								</g>
							</g>
						</g>
					</g>
					<path style="fill:#FFFFFF;" d="M379.412,122.495l-1.947-0.457l0.685-2.921l4.868,1.142l0,0
						C382.639,121.872,381.025,122.873,379.412,122.495z"/>
				</g>
			</g>
		</g>
	</g>
</g>
</svg>
